{"glyphs":{"0":{"ha":840,"x_min":94,"x_max":747,"o":"m 747 460 q 668 103 747 221 q 421 -15 589 -15 q 174 103 253 -15 q 94 460 94 221 q 174 820 94 701 q 421 939 253 939 q 668 820 589 939 q 747 460 747 701 m 665 460 q 639 688 665 599 q 558 819 613 776 q 421 863 504 863 q 283 819 338 863 q 203 688 229 776 q 176 460 176 599 q 203 234 176 322 q 283 103 229 146 q 421 61 338 61 q 558 103 504 61 q 639 234 613 146 q 665 460 665 322 z "},"1":{"ha":840,"x_min":222,"x_max":560,"o":"m 222 850 l 497 924 l 560 924 l 560 0 l 481 0 l 481 840 l 222 772 l 222 850 z "},"2":{"ha":840,"x_min":118,"x_max":711,"o":"m 161 832 l 151 907 q 219 923 178 915 q 306 935 260 931 q 392 939 351 939 q 553 915 483 939 q 662 838 622 890 q 701 696 701 785 q 692 622 701 657 q 660 545 683 586 q 595 451 638 504 q 485 328 553 399 q 321 163 418 258 l 229 76 l 711 76 l 711 0 l 118 0 l 118 71 l 231 178 q 401 350 332 278 q 514 474 471 422 q 579 564 557 526 q 610 633 601 601 q 618 694 618 664 q 590 794 618 757 q 509 847 561 831 q 385 863 457 863 q 306 858 347 863 q 228 847 265 854 q 161 832 190 840 z "},"3":{"ha":840,"x_min":108,"x_max":719,"o":"m 129 924 l 699 924 l 699 854 l 385 532 q 521 517 460 531 q 626 472 582 503 q 695 392 671 442 q 719 269 719 343 q 675 103 719 165 q 552 13 631 40 q 368 -15 474 -15 q 231 -8 292 -15 q 108 14 169 0 l 117 90 q 240 69 182 76 q 364 63 299 63 q 565 108 492 63 q 638 268 638 153 q 617 363 638 325 q 560 424 597 401 q 474 455 524 446 q 367 464 425 464 l 289 464 l 289 525 l 600 849 l 129 849 l 129 924 z "},"4":{"ha":840,"x_min":60,"x_max":782,"o":"m 542 924 l 644 924 l 644 294 l 782 294 l 782 218 l 644 218 l 644 0 l 565 0 l 565 218 l 60 218 l 60 283 l 542 924 m 144 282 l 113 294 l 565 294 l 565 863 l 576 847 l 144 282 z "},"5":{"ha":840,"x_min":124,"x_max":713,"o":"m 671 924 l 671 846 l 253 846 l 228 533 q 267 540 242 536 q 325 547 293 544 q 386 550 357 550 q 563 523 490 550 q 674 436 636 496 q 713 275 713 376 q 672 102 713 165 q 556 12 631 39 q 379 -15 481 -15 q 245 -8 306 -15 q 124 14 185 0 l 132 89 q 254 68 199 75 q 374 61 310 61 q 509 79 451 61 q 599 143 567 97 q 631 274 631 189 q 601 398 631 354 q 514 458 571 442 q 378 475 457 475 q 317 472 353 475 q 242 463 281 468 q 171 451 204 458 l 150 474 l 185 924 l 671 924 z "},"6":{"ha":840,"x_min":115,"x_max":739,"o":"m 196 426 q 205 287 197 353 q 236 170 213 221 q 308 90 260 119 q 439 61 357 61 q 602 120 546 61 q 658 285 658 179 q 603 428 658 378 q 436 479 547 479 q 316 465 376 479 q 196 426 256 450 m 701 917 l 692 842 q 594 856 644 850 q 493 863 543 863 q 272 780 344 863 q 196 504 199 697 q 312 540 250 524 q 443 556 374 556 q 661 486 583 556 q 739 286 739 417 q 661 67 739 150 q 439 -15 583 -15 q 244 40 314 -15 q 144 199 174 94 q 115 447 115 303 q 160 737 115 629 q 288 892 204 844 q 492 939 372 939 q 597 933 543 939 q 701 917 651 926 z "},"7":{"ha":840,"x_min":111,"x_max":728,"o":"m 111 924 l 728 924 l 728 857 l 325 0 l 239 0 l 638 846 l 111 846 l 111 924 z "},"8":{"ha":840,"x_min":92,"x_max":750,"o":"m 421 447 q 235 398 299 447 q 172 250 172 349 q 235 107 172 156 q 422 58 299 58 q 607 107 544 58 q 669 250 669 156 q 607 398 669 349 q 421 447 544 447 m 560 482 q 700 402 650 463 q 750 246 750 342 q 666 51 750 117 q 421 -15 582 -15 q 176 51 261 -15 q 92 246 92 117 q 142 402 92 342 q 281 482 192 463 q 165 558 204 501 q 125 700 125 614 q 201 879 125 819 q 421 939 278 939 q 640 879 564 939 q 717 700 717 819 q 677 558 717 614 q 560 482 638 501 m 421 865 q 206 696 206 865 q 421 517 206 517 q 636 696 636 517 q 421 865 636 865 z "},"9":{"ha":840,"x_min":101,"x_max":725,"o":"m 644 497 q 635 637 643 571 q 604 753 628 703 q 532 833 581 804 q 401 863 483 863 q 239 804 296 863 q 182 639 182 746 q 238 494 182 546 q 404 443 293 443 q 525 458 464 443 q 644 497 586 474 m 139 7 l 149 82 q 247 67 196 74 q 349 61 297 61 q 570 144 497 61 q 644 418 643 226 q 529 384 590 400 q 397 368 468 368 q 180 438 258 368 q 101 638 101 507 q 179 856 101 774 q 401 939 257 939 q 597 884 526 939 q 696 726 667 829 q 725 476 725 622 q 681 187 725 294 q 552 32 636 79 q 349 -15 468 -15 q 243 -9 297 -15 q 139 7 189 -3 z "},"\u0000":{"ha":0,"x_min":0,"x_max":0,"o":""},"\r":{"ha":356,"x_min":0,"x_max":0,"o":""}," ":{"ha":342,"x_min":0,"x_max":0,"o":""}," ":{"ha":342,"x_min":0,"x_max":0,"o":""},"A":{"ha":924,"x_min":126,"x_max":797,"o":"m 208 364 l 208 0 l 126 0 l 126 600 q 162 787 126 711 q 272 901 197 863 q 461 939 346 939 q 651 901 576 939 q 761 787 725 863 q 797 600 797 711 l 797 0 l 714 0 l 714 364 l 208 364 m 208 438 l 714 438 l 714 603 q 651 798 714 733 q 461 863 589 863 q 272 798 335 863 q 208 603 208 733 l 208 438 z "},"B":{"ha":857,"x_min":140,"x_max":765,"o":"m 222 429 l 222 79 q 328 64 275 69 q 438 58 382 58 q 621 106 563 58 q 679 247 679 153 q 621 384 679 339 q 439 429 563 429 l 222 429 m 222 851 l 222 501 l 439 501 q 599 547 546 501 q 653 686 653 593 q 598 811 653 771 q 432 851 543 851 l 222 851 m 140 924 l 432 924 q 599 899 532 924 q 701 824 667 875 q 736 693 736 772 q 697 547 736 601 q 581 469 658 492 q 681 430 640 458 q 744 356 722 401 q 765 243 765 310 q 728 97 765 154 q 618 13 690 40 q 440 -15 546 -15 q 299 -6 374 -15 q 140 21 224 3 l 140 924 z "},"C":{"ha":772,"x_min":94,"x_max":719,"o":"m 715 917 l 704 840 q 602 856 653 850 q 499 861 551 861 q 262 763 344 861 q 179 460 179 664 q 215 234 179 322 q 319 104 250 146 q 490 63 389 63 q 602 69 549 63 q 713 86 656 75 l 719 13 q 611 -8 667 0 q 488 -15 556 -15 q 274 35 361 -15 q 140 191 186 86 q 94 460 94 296 q 141 730 94 624 q 278 888 188 836 q 500 939 369 939 q 609 933 557 939 q 715 917 661 926 z "},"D":{"ha":931,"x_min":140,"x_max":836,"o":"m 140 924 l 439 924 q 736 810 636 924 q 836 464 836 697 q 813 258 836 347 q 740 108 789 169 q 614 16 692 47 q 428 -15 536 -15 q 290 -7 361 -15 q 140 19 218 1 l 140 924 m 222 849 l 222 83 q 322 68 271 74 q 431 63 374 63 q 613 107 542 63 q 718 240 683 151 q 753 463 753 329 q 674 755 753 661 q 439 849 596 849 l 222 849 z "},"E":{"ha":729,"x_min":135,"x_max":675,"o":"m 135 924 l 654 924 l 654 849 l 217 849 l 217 515 l 608 515 l 608 440 l 217 440 l 217 193 q 251 103 217 132 q 350 75 285 75 l 675 75 l 675 0 l 347 0 q 230 19 278 0 q 158 79 182 38 q 135 186 135 121 l 135 924 z "},"F":{"ha":707,"x_min":140,"x_max":658,"o":"m 140 924 l 658 924 l 658 849 l 222 849 l 222 510 l 610 510 l 610 435 l 222 435 l 222 0 l 140 0 l 140 924 z "},"G":{"ha":886,"x_min":94,"x_max":785,"o":"m 768 915 l 758 839 q 649 856 707 850 q 532 863 592 863 q 335 819 414 863 q 217 688 256 776 q 178 464 178 600 q 215 235 178 324 q 326 103 253 146 q 510 61 400 61 q 609 67 560 61 q 706 82 658 72 l 706 417 l 468 417 l 468 489 l 785 489 l 785 25 q 700 4 744 14 q 608 -10 656 -6 q 513 -15 561 -15 q 331 13 408 -15 q 200 99 253 40 q 121 247 147 157 q 94 464 94 338 q 144 733 94 628 q 290 888 193 838 q 529 939 388 939 q 609 936 568 939 q 690 928 650 933 q 768 915 731 922 z "},"H":{"ha":996,"x_min":140,"x_max":856,"o":"m 140 924 l 222 924 l 222 515 l 774 515 l 774 924 l 856 924 l 856 0 l 774 0 l 774 439 l 222 439 l 222 0 l 140 0 l 140 924 z "},"I":{"ha":363,"x_min":140,"x_max":222,"o":"m 140 924 l 222 924 l 222 0 l 140 0 l 140 924 z "},"J":{"ha":364,"x_min":-39,"x_max":224,"o":"m 142 924 l 224 924 l 224 79 q 205 -35 224 17 q 138 -141 186 -86 q 0 -271 90 -196 l -39 -206 q 74 -98 35 -144 q 127 -9 113 -51 q 142 81 142 33 l 142 924 z "},"K":{"ha":846,"x_min":140,"x_max":793,"o":"m 140 924 l 222 924 l 222 406 l 690 924 l 782 924 l 418 518 q 576 436 518 494 q 678 271 635 378 l 793 0 l 703 0 l 599 244 q 542 353 572 310 q 470 421 513 396 q 364 456 428 446 l 222 304 l 222 0 l 140 0 l 140 924 z "},"L":{"ha":690,"x_min":140,"x_max":649,"o":"m 140 924 l 222 924 l 222 75 l 649 75 l 649 0 l 140 0 l 140 924 z "},"M":{"ha":1176,"x_min":140,"x_max":1038,"o":"m 621 292 l 554 292 l 222 793 l 222 0 l 140 0 l 140 924 l 228 924 l 589 379 l 950 924 l 1038 924 l 1038 0 l 954 0 l 954 793 l 621 292 z "},"N":{"ha":993,"x_min":140,"x_max":853,"o":"m 140 924 l 213 924 l 772 325 l 772 924 l 853 924 l 853 0 l 772 0 l 772 208 l 221 797 l 221 0 l 140 0 l 140 924 z "},"O":{"ha":963,"x_min":97,"x_max":865,"o":"m 481 939 q 770 822 675 939 q 865 461 865 704 q 770 102 865 219 q 481 -15 675 -15 q 192 102 288 -15 q 97 461 97 219 q 192 822 97 704 q 481 939 288 939 m 482 863 q 256 765 331 863 q 181 463 181 668 q 256 158 181 256 q 482 61 331 61 q 708 158 633 61 q 782 463 782 256 q 708 765 782 668 q 482 863 633 863 z "},"P":{"ha":831,"x_min":140,"x_max":760,"o":"m 222 849 l 222 439 q 322 424 274 429 q 418 419 371 419 q 614 474 550 419 q 678 638 678 528 q 616 798 678 747 q 426 849 554 849 l 222 849 m 140 924 l 426 924 q 613 893 539 924 q 723 799 686 863 q 760 638 760 736 q 722 472 760 536 q 609 376 683 407 q 426 344 535 344 q 330 349 381 344 q 222 364 279 354 l 222 0 l 140 0 l 140 924 z "},"Q":{"ha":963,"x_min":97,"x_max":926,"o":"m 408 -164 l 408 -93 q 495 -104 446 -93 q 596 -131 544 -115 q 693 -157 647 -146 q 768 -168 739 -168 q 833 -156 804 -168 q 889 -118 863 -143 l 926 -176 q 856 -224 894 -207 q 769 -242 818 -242 q 687 -230 735 -242 q 588 -203 639 -218 q 489 -176 536 -187 q 408 -164 442 -164 m 481 939 q 770 822 675 939 q 865 461 865 704 q 770 102 865 219 q 481 -15 675 -15 q 192 102 288 -15 q 97 461 97 219 q 192 822 97 704 q 481 939 288 939 m 482 863 q 256 765 331 863 q 181 461 181 668 q 256 158 181 256 q 482 61 331 61 q 708 158 633 61 q 782 461 782 256 q 708 765 782 668 q 482 863 633 863 z "},"R":{"ha":860,"x_min":140,"x_max":785,"o":"m 140 924 l 426 924 q 613 895 539 924 q 723 808 686 867 q 760 657 760 749 q 735 536 760 586 q 665 455 711 486 q 551 411 618 424 q 628 354 594 396 q 694 228 661 313 l 785 0 l 697 0 l 615 207 q 558 319 585 281 q 498 370 531 357 q 417 383 465 383 l 222 383 l 222 0 l 140 0 l 140 924 m 222 849 l 222 458 l 418 458 q 614 508 550 458 q 678 657 678 557 q 616 803 678 757 q 426 849 554 849 l 222 849 z "},"S":{"ha":715,"x_min":69,"x_max":646,"o":"m 611 917 l 603 843 q 498 858 553 851 q 388 864 443 864 q 223 834 278 864 q 168 739 168 804 q 203 640 168 682 q 292 565 238 599 q 407 497 346 531 q 522 424 468 464 q 611 331 576 383 q 646 204 646 278 q 575 41 646 97 q 363 -15 504 -15 q 214 -3 288 -15 q 69 32 140 10 l 79 104 q 218 71 149 82 q 361 60 288 60 q 511 95 460 60 q 563 196 563 131 q 528 300 563 256 q 439 380 493 344 q 324 450 385 415 q 208 524 263 485 q 119 614 154 563 q 85 736 85 665 q 119 851 85 807 q 222 917 154 896 q 388 938 289 938 q 501 932 444 938 q 611 917 557 926 z "},"T":{"ha":808,"x_min":42,"x_max":768,"o":"m 42 924 l 768 924 l 768 849 l 446 849 l 446 0 l 364 0 l 364 849 l 42 849 l 42 924 z "},"U":{"ha":944,"x_min":125,"x_max":806,"o":"m 125 924 l 207 924 l 207 329 q 232 193 207 254 q 315 97 257 132 q 475 61 374 61 q 626 72 567 61 q 724 93 686 83 l 724 924 l 806 924 l 806 38 q 665 2 742 19 q 475 -15 588 -15 q 267 30 344 -15 q 158 152 190 75 q 125 326 125 229 l 125 924 z "},"V":{"ha":890,"x_min":44,"x_max":832,"o":"m 492 0 l 403 0 l 44 924 l 132 924 l 454 97 q 631 487 549 282 q 751 924 713 692 l 832 924 q 752 597 803 753 q 635 294 701 442 q 492 0 569 147 z "},"W":{"ha":1268,"x_min":57,"x_max":1196,"o":"m 367 0 l 282 0 l 57 924 l 142 924 l 333 103 l 592 732 l 672 732 l 933 99 q 1050 493 1004 290 q 1121 924 1096 696 l 1196 924 q 1162 676 1181 792 q 1117 450 1143 560 q 1057 230 1092 340 q 976 0 1022 119 l 893 0 l 632 642 l 367 0 z "},"X":{"ha":842,"x_min":47,"x_max":792,"o":"m 167 924 l 436 524 l 456 501 l 792 0 l 697 0 l 406 432 l 386 453 l 72 924 l 167 924 m 378 481 l 424 415 l 135 0 l 47 0 l 378 481 m 463 469 l 415 531 l 694 924 l 782 924 l 463 469 z "},"Y":{"ha":799,"x_min":40,"x_max":747,"o":"m 353 0 l 353 329 l 40 924 l 129 924 l 400 407 q 484 510 442 451 q 564 638 526 569 q 628 778 601 706 q 665 924 656 851 l 747 924 q 679 705 725 813 q 570 502 633 597 q 433 332 507 407 l 433 0 l 353 0 z "},"Z":{"ha":801,"x_min":54,"x_max":746,"o":"m 74 924 l 733 924 l 733 857 l 156 75 l 746 75 l 746 0 l 54 0 l 54 67 l 632 849 l 74 849 l 74 924 z "},"Æ":{"ha":1310,"x_min":126,"x_max":1256,"o":"m 718 924 l 1233 924 l 1233 849 l 797 849 l 797 511 l 1189 511 l 1189 438 l 797 438 l 797 192 q 831 103 797 132 q 929 75 865 75 l 1256 75 l 1256 0 l 926 0 q 810 19 857 0 q 739 81 763 39 q 715 188 715 122 l 715 438 l 208 438 l 208 0 l 126 0 l 126 600 q 162 787 126 711 q 270 901 197 863 q 456 939 343 939 q 619 906 553 939 q 718 808 686 874 l 718 924 m 208 511 l 714 511 l 714 603 q 651 798 714 733 q 461 863 589 863 q 271 798 333 863 q 208 603 208 733 l 208 511 z "},"Œ":{"ha":1363,"x_min":97,"x_max":1308,"o":"m 774 924 l 1288 924 l 1288 849 l 850 849 l 850 515 l 1242 515 l 1242 440 l 850 440 l 850 193 q 884 103 850 132 q 982 75 918 75 l 1308 75 l 1308 0 l 981 0 q 843 34 892 0 q 788 139 794 68 l 786 178 q 670 33 747 81 q 474 -15 593 -15 q 191 101 285 -15 q 97 461 97 218 q 191 822 97 704 q 474 939 285 939 q 661 894 586 939 q 774 756 736 849 l 774 924 m 768 461 q 735 688 768 600 q 638 819 703 776 q 475 863 574 863 q 311 819 376 863 q 213 688 246 776 q 181 461 181 600 q 213 235 181 324 q 311 103 246 146 q 475 61 376 61 q 638 103 574 61 q 735 235 703 146 q 768 461 768 324 z "},"Ł":{"ha":725,"x_min":44,"x_max":685,"o":"m 176 924 l 258 924 l 258 496 l 538 604 l 538 525 l 258 415 l 258 75 l 685 75 l 685 0 l 176 0 l 176 383 l 44 331 l 44 411 l 176 463 l 176 924 z "},"Ø":{"ha":950,"x_min":92,"x_max":860,"o":"m 476 939 q 765 822 671 939 q 860 461 860 704 q 765 102 860 219 q 476 -15 671 -15 q 188 102 283 -15 q 92 461 92 219 q 188 822 92 704 q 476 939 283 939 m 476 867 q 309 823 376 867 q 208 690 242 779 q 175 461 175 600 q 208 234 175 324 q 309 101 242 144 q 476 57 376 57 q 644 101 578 57 q 743 234 710 144 q 776 461 776 324 q 743 690 776 600 q 644 823 710 779 q 476 867 578 867 m 849 956 l 160 -76 l 101 -36 l 790 996 l 849 956 z "},"Ð":{"ha":957,"x_min":43,"x_max":863,"o":"m 43 440 l 43 515 l 513 515 l 513 440 l 43 440 m 167 924 l 465 924 q 763 810 663 924 q 863 464 863 697 q 839 258 863 347 q 767 108 815 169 q 641 16 718 47 q 456 -15 564 -15 q 316 -7 388 -15 q 167 19 244 1 l 167 924 m 249 849 l 249 83 q 349 68 297 74 q 457 63 400 63 q 639 107 568 63 q 744 240 710 151 q 779 463 779 329 q 701 755 779 661 q 465 849 622 849 l 249 849 z "},"Þ":{"ha":826,"x_min":140,"x_max":760,"o":"m 222 686 l 222 279 q 322 265 274 269 q 418 261 371 261 q 614 315 550 261 q 678 478 678 368 q 616 635 678 585 q 426 686 554 686 l 222 686 m 222 761 l 426 761 q 613 731 539 761 q 723 639 686 701 q 760 478 760 576 q 722 312 760 376 q 609 216 683 247 q 426 185 535 185 q 330 190 381 185 q 222 204 279 194 l 222 0 l 140 0 l 140 924 l 222 924 l 222 761 z "},"a":{"ha":700,"x_min":63,"x_max":585,"o":"m 508 74 l 508 326 q 419 339 463 335 q 335 343 376 343 q 188 308 238 343 q 138 197 138 272 q 184 84 138 121 q 322 47 231 47 q 421 54 375 47 q 508 74 467 61 m 133 622 l 128 688 q 216 701 168 696 q 315 706 264 706 q 463 683 403 706 q 553 615 522 661 q 585 494 585 568 l 585 28 q 494 6 540 15 q 406 -10 449 -4 q 321 -15 363 -15 q 180 8 238 -15 q 92 78 122 31 q 63 201 63 126 q 94 317 63 272 q 183 382 125 361 q 325 403 242 403 q 415 399 369 403 q 508 385 461 394 l 508 490 q 460 604 508 568 q 313 640 411 640 q 221 635 267 640 q 133 622 175 631 z "},"b":{"ha":783,"x_min":124,"x_max":696,"o":"m 124 1014 l 200 1014 l 200 679 q 300 699 247 692 q 397 706 353 706 q 560 667 493 706 q 661 549 626 629 q 696 344 696 469 q 660 142 696 222 q 557 24 625 63 q 390 -15 489 -15 q 261 -4 328 -15 q 124 28 194 7 l 124 1014 m 200 79 q 295 60 247 65 q 389 54 343 54 q 517 85 465 54 q 594 180 568 115 q 619 344 619 244 q 563 566 619 494 q 390 638 506 638 q 301 631 347 638 q 200 610 256 625 l 200 79 z "},"c":{"ha":629,"x_min":85,"x_max":585,"o":"m 581 689 l 571 621 q 492 633 531 629 q 417 638 454 638 q 276 607 332 638 q 191 512 219 576 q 163 346 163 447 q 226 125 163 197 q 419 53 289 53 q 494 59 456 53 q 576 75 532 65 l 585 8 q 494 -9 539 -3 q 411 -15 450 -15 q 233 24 306 -15 q 122 142 160 63 q 85 344 85 222 q 123 549 85 469 q 235 667 161 629 q 415 706 308 706 q 498 701 456 706 q 581 689 540 697 z "},"d":{"ha":783,"x_min":86,"x_max":660,"o":"m 660 1014 l 660 28 q 522 -4 589 7 q 393 -15 456 -15 q 226 24 294 -15 q 122 142 157 63 q 86 344 86 222 q 122 549 86 469 q 224 667 157 629 q 386 706 290 706 q 483 699 431 706 q 582 679 536 692 l 582 1014 l 660 1014 m 582 79 l 582 610 q 481 631 528 625 q 392 638 435 638 q 221 566 278 638 q 164 344 164 494 q 190 180 164 244 q 267 85 215 115 q 394 54 318 54 q 488 60 439 54 q 582 79 536 65 z "},"e":{"ha":732,"x_min":85,"x_max":660,"o":"m 660 336 l 163 336 q 230 124 164 193 q 433 56 296 56 q 499 58 465 56 q 567 67 532 61 q 633 79 601 72 l 640 10 q 535 -8 589 -1 q 426 -15 481 -15 q 239 23 315 -15 q 124 142 163 61 q 85 346 85 222 q 119 549 85 469 q 220 667 153 629 q 386 706 288 706 q 541 669 481 706 q 631 564 601 633 q 660 393 660 494 l 660 336 m 164 399 l 585 399 q 536 579 585 518 q 383 640 488 640 q 224 579 278 640 q 164 399 169 518 z "},"f":{"ha":500,"x_min":33,"x_max":508,"o":"m 33 692 l 147 692 l 147 789 q 178 924 147 874 q 264 996 208 974 q 392 1018 319 1018 q 451 1016 417 1018 q 508 1008 485 1014 l 500 942 q 449 948 478 946 q 397 950 421 950 q 272 917 319 950 q 225 789 225 883 l 225 692 l 468 692 l 468 624 l 225 624 l 225 0 l 147 0 l 147 624 l 33 624 l 33 692 z "},"g":{"ha":783,"x_min":86,"x_max":658,"o":"m 582 -39 l 582 15 q 483 -3 536 4 q 386 -11 431 -11 q 223 27 290 -11 q 121 144 156 65 q 86 347 86 224 q 122 550 86 471 q 226 667 157 629 q 393 706 294 706 q 522 694 454 706 q 658 664 589 683 l 658 -31 q 626 -168 658 -114 q 532 -249 594 -222 q 378 -276 469 -276 q 258 -267 317 -276 q 146 -240 200 -257 l 156 -174 q 227 -192 192 -185 q 300 -203 263 -200 q 376 -207 338 -207 q 532 -163 482 -207 q 582 -39 582 -119 m 582 613 q 487 631 535 625 q 393 638 439 638 q 267 607 318 638 q 190 513 215 576 q 164 347 164 449 q 221 128 164 199 q 392 57 278 57 q 481 64 435 57 q 582 85 526 71 l 582 613 z "},"h":{"ha":797,"x_min":124,"x_max":683,"o":"m 201 0 l 124 0 l 124 1014 l 201 1014 l 201 679 q 303 699 251 693 q 408 706 354 706 q 550 685 488 706 q 648 614 613 664 q 683 476 683 564 l 683 0 l 606 0 l 606 465 q 579 571 606 533 q 506 624 553 608 q 400 639 460 639 q 298 631 353 639 q 201 610 243 622 l 201 0 z "},"i":{"ha":325,"x_min":108,"x_max":217,"o":"m 124 692 l 201 692 l 201 0 l 124 0 l 124 692 m 217 913 q 202 873 217 886 q 163 860 188 860 q 123 873 138 860 q 108 913 108 886 q 123 951 108 939 q 163 964 138 964 q 202 951 188 964 q 217 913 217 939 z "},"j":{"ha":325,"x_min":-37,"x_max":218,"o":"m 218 913 q 203 873 218 886 q 163 860 188 860 q 123 873 138 860 q 108 913 108 886 q 124 951 108 939 q 163 964 139 964 q 203 951 188 964 q 218 913 218 939 m 124 692 l 201 692 l 201 75 q 194 -26 201 17 q 165 -106 186 -69 q 104 -183 143 -143 q 3 -272 65 -222 l -37 -212 q 49 -134 17 -168 q 98 -70 82 -100 q 119 -6 114 -40 q 124 74 124 28 l 124 692 z "},"k":{"ha":718,"x_min":124,"x_max":672,"o":"m 124 1014 l 201 1014 l 201 331 l 572 692 l 661 692 l 382 414 q 504 346 456 396 q 579 224 553 296 l 672 0 l 589 0 l 506 206 q 440 305 481 265 q 329 360 400 344 l 201 246 l 201 0 l 124 0 l 124 1014 z "},"l":{"ha":325,"x_min":124,"x_max":201,"o":"m 124 1014 l 201 1014 l 201 0 l 124 0 l 124 1014 z "},"m":{"ha":1206,"x_min":124,"x_max":1089,"o":"m 201 0 l 124 0 l 124 660 q 249 693 182 681 q 389 706 317 706 q 521 685 463 706 q 613 614 579 664 q 646 476 646 564 l 646 0 l 568 0 l 568 465 q 544 571 568 533 q 479 624 521 608 q 383 639 438 639 q 290 631 340 639 q 201 610 240 622 l 201 0 m 621 583 l 564 633 q 651 674 607 658 q 740 698 694 690 q 832 706 786 706 q 965 685 907 706 q 1056 614 1022 664 q 1089 476 1089 564 l 1089 0 l 1013 0 l 1013 465 q 989 571 1013 533 q 923 624 965 608 q 826 639 881 639 q 721 625 776 639 q 621 583 665 611 z "},"n":{"ha":797,"x_min":124,"x_max":683,"o":"m 201 0 l 124 0 l 124 660 q 258 693 186 681 q 406 706 329 706 q 549 685 486 706 q 647 614 611 664 q 683 476 683 564 l 683 0 l 606 0 l 606 465 q 579 571 606 533 q 506 624 553 608 q 400 639 460 639 q 298 631 353 639 q 201 610 243 622 l 201 0 z "},"o":{"ha":783,"x_min":86,"x_max":696,"o":"m 696 346 q 619 74 696 163 q 390 -15 543 -15 q 163 74 239 -15 q 86 346 86 163 q 163 617 86 529 q 390 706 239 706 q 619 617 543 706 q 696 346 696 529 m 619 346 q 564 566 619 494 q 392 638 508 638 q 219 566 275 638 q 164 346 164 494 q 219 125 164 197 q 392 53 275 53 q 564 125 508 53 q 619 346 619 197 z "},"p":{"ha":783,"x_min":124,"x_max":696,"o":"m 124 -261 l 124 664 q 261 694 194 683 q 390 706 328 706 q 558 667 490 706 q 661 550 626 629 q 696 347 696 471 q 661 142 696 222 q 560 23 626 61 q 397 -15 493 -15 q 300 -8 353 -15 q 201 13 247 0 l 201 -261 l 124 -261 m 201 613 l 201 81 q 302 60 256 67 q 392 53 349 53 q 563 124 506 53 q 619 347 619 196 q 594 513 619 449 q 517 607 568 576 q 389 638 465 638 q 295 631 343 638 q 201 613 247 625 z "},"q":{"ha":783,"x_min":86,"x_max":660,"o":"m 660 -261 l 582 -261 l 582 13 q 483 -8 536 0 q 386 -15 431 -15 q 224 23 290 -15 q 122 142 157 61 q 86 347 86 222 q 122 550 86 471 q 226 667 157 629 q 393 706 294 706 q 522 694 456 706 q 660 664 589 683 l 660 -261 m 582 613 q 488 631 536 625 q 394 638 439 638 q 267 607 318 638 q 190 513 215 576 q 164 347 164 449 q 221 124 164 196 q 392 53 278 53 q 481 60 435 53 q 582 81 528 67 l 582 613 z "},"r":{"ha":479,"x_min":124,"x_max":450,"o":"m 450 706 l 450 638 q 311 629 374 638 q 201 607 249 621 l 201 0 l 124 0 l 124 660 q 283 694 204 683 q 450 706 363 706 z "},"s":{"ha":599,"x_min":63,"x_max":538,"o":"m 507 685 l 500 619 q 408 634 457 629 q 318 639 360 639 q 191 617 233 639 q 149 547 149 596 q 176 477 149 506 q 249 426 204 449 q 343 380 293 403 q 438 328 393 357 q 510 260 482 300 q 538 164 538 221 q 510 68 538 108 q 431 6 483 28 q 299 -15 378 -15 q 172 -3 235 -15 q 63 26 110 10 l 75 92 q 181 65 124 76 q 293 53 238 53 q 417 79 378 53 q 457 160 457 106 q 429 235 457 204 q 358 290 401 267 q 264 337 314 314 q 170 387 214 360 q 99 452 126 414 q 71 544 71 490 q 99 637 71 601 q 181 689 126 672 q 317 706 236 706 q 420 699 365 706 q 507 685 475 693 z "},"t":{"ha":500,"x_min":33,"x_max":460,"o":"m 167 851 l 224 851 l 224 692 l 432 692 l 432 624 l 224 624 l 224 150 q 256 76 224 96 q 336 56 289 56 q 398 61 365 56 q 456 75 431 67 l 460 7 q 395 -9 431 -3 q 325 -15 360 -15 q 199 22 250 -15 q 147 146 147 60 l 147 624 l 33 624 l 33 692 l 147 692 l 167 851 z "},"u":{"ha":772,"x_min":114,"x_max":650,"o":"m 572 692 l 650 692 l 650 31 q 522 -2 590 11 q 381 -15 453 -15 q 244 6 304 -15 q 149 77 183 26 q 114 214 114 128 l 114 692 l 192 692 l 192 226 q 217 121 192 158 q 286 68 242 83 q 386 53 331 53 q 482 61 431 53 q 572 81 533 69 l 572 692 z "},"v":{"ha":707,"x_min":36,"x_max":658,"o":"m 118 692 l 361 79 q 446 264 403 165 q 525 470 489 363 q 582 692 561 578 l 658 692 q 554 340 625 515 q 397 0 483 165 l 313 0 l 36 692 l 118 692 z "},"w":{"ha":1064,"x_min":51,"x_max":1000,"o":"m 574 692 l 793 88 q 874 375 840 221 q 925 692 908 529 l 1000 692 q 964 458 986 569 q 910 235 942 346 q 835 0 879 124 l 751 0 l 532 606 l 313 0 l 221 0 l 51 692 l 132 692 l 275 90 l 492 692 l 574 692 z "},"x":{"ha":681,"x_min":40,"x_max":640,"o":"m 140 692 l 347 410 l 386 361 l 640 0 l 550 0 l 332 307 l 296 350 l 51 692 l 140 692 m 388 357 l 342 408 l 550 692 l 631 692 l 388 357 m 293 357 l 338 307 l 122 0 l 40 0 l 293 357 z "},"y":{"ha":772,"x_min":114,"x_max":649,"o":"m 572 -39 l 572 14 q 477 -4 525 3 q 381 -11 429 -11 q 244 10 304 -11 q 149 81 183 31 q 114 218 114 132 l 114 692 l 192 692 l 192 231 q 217 125 192 163 q 285 72 242 88 q 386 57 329 57 q 482 65 431 57 q 572 85 533 74 l 572 692 l 649 692 l 649 -31 q 616 -168 649 -114 q 521 -249 583 -222 q 368 -276 458 -276 q 288 -272 328 -276 q 211 -260 249 -268 q 138 -240 174 -251 l 146 -175 q 217 -194 182 -186 q 290 -207 253 -203 q 367 -211 328 -211 q 522 -167 472 -211 q 572 -39 572 -122 z "},"z":{"ha":651,"x_min":49,"x_max":604,"o":"m 60 692 l 593 692 l 593 632 l 150 68 l 604 68 l 604 0 l 49 0 l 49 58 l 493 624 l 60 624 l 60 692 z "},"æ":{"ha":1131,"x_min":61,"x_max":1058,"o":"m 132 622 l 126 688 q 215 701 167 696 q 314 706 263 706 q 472 673 413 706 q 550 572 531 640 q 642 673 582 640 q 790 706 701 706 q 942 669 882 706 q 1030 564 1001 633 q 1058 393 1058 494 l 1058 336 l 572 336 q 597 178 575 240 q 674 85 619 115 q 832 56 729 56 q 897 58 864 56 q 965 67 931 61 q 1032 81 1000 74 l 1039 11 q 934 -8 989 -1 q 825 -15 879 -15 q 688 4 747 -15 q 593 63 629 24 q 463 7 528 29 q 319 -15 399 -15 q 178 8 236 -15 q 91 78 121 31 q 61 201 61 126 q 92 317 61 272 q 183 382 124 361 q 324 403 242 403 q 410 398 367 403 q 500 385 453 393 l 500 490 q 453 604 500 568 q 311 640 406 640 q 219 635 265 640 q 132 622 174 629 m 574 399 l 983 399 q 937 579 983 518 q 788 640 890 640 q 628 578 683 640 q 574 399 572 515 m 547 111 q 514 203 525 147 q 500 326 503 260 q 415 339 457 335 q 333 343 374 343 q 186 308 236 343 q 136 197 136 272 q 183 84 136 121 q 321 47 229 47 q 442 66 385 47 q 547 111 500 85 z "},"œ":{"ha":1260,"x_min":86,"x_max":1188,"o":"m 1188 336 l 694 336 q 760 124 694 193 q 963 56 826 56 q 1028 58 994 56 q 1095 67 1061 61 q 1161 81 1129 74 l 1168 11 q 1064 -8 1118 -1 q 956 -15 1010 -15 q 773 24 847 -15 q 660 142 699 63 q 622 346 622 222 q 656 549 622 469 q 754 667 689 629 q 915 706 819 706 q 1069 669 1008 706 q 1158 564 1129 633 q 1188 393 1188 494 l 1188 336 m 696 399 l 1113 399 q 1065 579 1113 518 q 913 640 1017 640 q 753 579 807 640 q 696 399 700 518 m 686 346 q 612 74 686 163 q 388 -15 538 -15 q 161 74 236 -15 q 86 346 86 163 q 161 617 86 529 q 388 706 236 706 q 612 617 538 706 q 686 346 686 529 m 615 346 q 560 566 615 494 q 389 638 504 638 q 218 566 274 638 q 163 346 163 494 q 218 126 163 197 q 389 54 274 54 q 560 126 504 54 q 615 346 615 197 z "},"ł":{"ha":374,"x_min":39,"x_max":336,"o":"m 149 1014 l 225 1014 l 225 560 l 336 603 l 336 529 l 225 486 l 225 0 l 149 0 l 149 454 l 39 411 l 39 485 l 149 528 l 149 1014 z "},"ø":{"ha":785,"x_min":88,"x_max":697,"o":"m 697 346 q 621 74 697 163 q 392 -15 544 -15 q 164 74 240 -15 q 88 346 88 163 q 164 617 88 529 q 392 706 240 706 q 621 617 544 706 q 697 346 697 529 m 622 346 q 566 566 622 494 q 393 638 510 638 q 219 566 275 638 q 164 346 164 494 q 219 126 164 197 q 393 54 275 54 q 566 126 510 54 q 622 346 622 197 m 146 -107 l 89 -74 l 640 799 l 696 765 l 146 -107 z "},"ð":{"ha":783,"x_min":85,"x_max":689,"o":"m 597 603 q 565 713 588 650 q 511 826 543 775 l 276 778 l 276 840 l 482 879 q 432 949 460 915 q 376 1014 404 983 l 458 1014 q 502 960 478 992 q 547 897 526 929 l 689 929 l 689 867 l 578 843 q 641 690 617 771 q 677 524 665 608 q 689 354 689 439 q 653 144 689 226 q 549 24 617 63 q 385 -15 482 -15 q 163 69 242 -15 q 85 343 85 154 q 162 617 85 532 q 379 701 239 701 q 512 676 460 701 q 597 603 564 651 m 610 343 q 580 523 610 460 q 499 610 550 586 q 386 635 449 635 q 273 610 324 635 q 192 523 222 586 q 163 343 163 460 q 192 165 163 228 q 273 77 222 101 q 386 53 324 53 q 499 77 449 53 q 580 165 550 101 q 610 343 610 228 z "},"þ":{"ha":772,"x_min":122,"x_max":694,"o":"m 122 -261 l 122 1014 l 199 1014 l 199 682 q 298 700 251 694 q 388 706 344 706 q 556 667 488 706 q 659 550 624 629 q 694 347 694 471 q 675 185 694 254 q 617 72 656 117 q 523 6 579 28 q 394 -15 467 -15 q 298 -7 351 -15 q 199 13 244 1 l 199 -261 l 122 -261 m 199 613 l 199 82 q 300 60 254 68 q 389 53 346 53 q 516 85 465 53 q 592 182 567 117 q 617 347 617 247 q 591 513 617 449 q 515 607 565 576 q 388 638 464 638 q 294 631 342 638 q 199 613 246 625 z "},"ß":{"ha":756,"x_min":124,"x_max":703,"o":"m 533 806 q 495 919 533 878 q 367 960 457 960 q 239 915 278 960 q 200 789 200 869 l 200 0 l 124 0 l 124 789 q 185 967 124 904 q 367 1029 246 1029 q 551 971 490 1029 q 611 808 611 913 q 594 724 611 758 q 551 663 576 689 q 501 613 526 636 q 458 564 475 590 q 440 503 440 538 q 467 439 440 468 q 533 382 493 410 q 611 323 572 354 q 676 253 650 292 q 703 165 703 215 q 644 29 703 72 q 482 -15 586 -14 q 397 -10 443 -15 q 315 3 350 -4 l 321 68 q 397 57 356 63 q 469 51 439 51 q 585 75 543 51 q 628 163 628 99 q 601 234 628 203 q 536 292 575 265 q 458 349 497 319 q 392 414 418 378 q 365 499 365 450 q 382 573 365 543 q 424 626 399 603 q 475 674 450 650 q 517 729 500 699 q 533 806 533 760 z "},"ı":{"ha":321,"x_min":122,"x_max":199,"o":"m 122 692 l 199 692 l 199 0 l 122 0 l 122 692 z "},"ȷ":{"ha":314,"x_min":-37,"x_max":201,"o":"m 124 692 l 201 692 l 201 75 q 194 -26 201 17 q 165 -106 186 -69 q 104 -183 143 -143 q 3 -272 65 -222 l -37 -212 q 49 -134 17 -168 q 98 -70 82 -100 q 119 -6 114 -40 q 124 74 124 28 l 124 692 z "},"Á":{"ha":924,"x_min":126,"x_max":797,"o":"m 208 364 l 208 0 l 126 0 l 126 600 q 162 787 126 711 q 272 901 197 863 q 461 939 346 939 q 651 901 576 939 q 761 787 725 863 q 797 600 797 711 l 797 0 l 714 0 l 714 364 l 208 364 m 208 438 l 714 438 l 714 603 q 651 798 714 733 q 461 863 589 863 q 272 798 335 863 q 208 603 208 733 l 208 438 m 490 1242 l 576 1242 l 432 1018 l 365 1018 l 490 1242 z "},"Â":{"ha":924,"x_min":126,"x_max":797,"o":"m 208 364 l 208 0 l 126 0 l 126 600 q 162 787 126 711 q 272 901 197 863 q 461 939 346 939 q 651 901 576 939 q 761 787 725 863 q 797 600 797 711 l 797 0 l 714 0 l 714 364 l 208 364 m 208 438 l 714 438 l 714 603 q 651 798 714 733 q 461 863 589 863 q 272 798 335 863 q 208 603 208 733 l 208 438 m 418 1242 l 490 1242 l 628 1018 l 554 1018 l 454 1189 l 354 1018 l 281 1018 l 418 1242 z "},"Ä":{"ha":924,"x_min":126,"x_max":797,"o":"m 208 364 l 208 0 l 126 0 l 126 600 q 162 787 126 711 q 272 901 197 863 q 461 939 346 939 q 651 901 576 939 q 761 787 725 863 q 797 600 797 711 l 797 0 l 714 0 l 714 364 l 208 364 m 208 438 l 714 438 l 714 603 q 651 798 714 733 q 461 863 589 863 q 272 798 335 863 q 208 603 208 733 l 208 438 m 396 1138 q 383 1100 396 1113 q 346 1088 369 1088 q 310 1100 324 1088 q 296 1138 296 1113 q 310 1176 296 1163 q 346 1189 324 1189 q 383 1176 369 1189 q 396 1138 396 1163 m 613 1138 q 599 1100 613 1113 q 563 1088 586 1088 q 526 1100 539 1088 q 513 1138 513 1113 q 526 1176 513 1163 q 563 1189 540 1189 q 599 1176 586 1189 q 613 1138 613 1163 z "},"À":{"ha":924,"x_min":126,"x_max":797,"o":"m 208 364 l 208 0 l 126 0 l 126 600 q 162 787 126 711 q 272 901 197 863 q 461 939 346 939 q 651 901 576 939 q 761 787 725 863 q 797 600 797 711 l 797 0 l 714 0 l 714 364 l 208 364 m 208 438 l 714 438 l 714 603 q 651 798 714 733 q 461 863 589 863 q 272 798 335 863 q 208 603 208 733 l 208 438 m 278 1242 l 364 1242 l 490 1018 l 424 1018 l 278 1242 z "},"Å":{"ha":924,"x_min":126,"x_max":797,"o":"m 208 364 l 208 0 l 126 0 l 126 600 q 162 787 126 711 q 272 901 197 863 q 461 939 346 939 q 651 901 576 939 q 761 787 725 863 q 797 600 797 711 l 797 0 l 714 0 l 714 364 l 208 364 m 208 438 l 714 438 l 714 603 q 651 798 714 733 q 461 863 589 863 q 272 798 335 863 q 208 603 208 733 l 208 438 m 453 1197 q 398 1181 418 1197 q 378 1131 378 1165 q 398 1080 378 1096 q 453 1064 418 1064 q 509 1080 489 1064 q 529 1131 529 1096 q 509 1181 529 1165 q 453 1197 489 1197 m 453 1246 q 549 1215 514 1246 q 585 1131 585 1185 q 549 1044 585 1075 q 453 1014 514 1014 q 357 1044 393 1014 q 321 1131 321 1075 q 357 1215 321 1185 q 453 1246 393 1246 z "},"Ã":{"ha":924,"x_min":126,"x_max":797,"o":"m 208 364 l 208 0 l 126 0 l 126 600 q 162 787 126 711 q 272 901 197 863 q 461 939 346 939 q 651 901 576 939 q 761 787 725 863 q 797 600 797 711 l 797 0 l 714 0 l 714 364 l 208 364 m 208 438 l 714 438 l 714 603 q 651 798 714 733 q 461 863 589 863 q 272 798 335 863 q 208 603 208 733 l 208 438 m 307 1067 l 250 1089 q 286 1157 261 1129 q 360 1185 311 1185 q 422 1171 389 1185 q 487 1143 456 1157 q 539 1129 518 1129 q 581 1147 569 1129 q 599 1186 593 1164 l 657 1165 q 619 1095 644 1124 q 546 1067 594 1067 q 485 1081 518 1067 q 421 1110 451 1096 q 368 1124 390 1124 q 326 1106 339 1124 q 307 1067 314 1089 z "},"Ă":{"ha":924,"x_min":126,"x_max":797,"o":"m 208 364 l 208 0 l 126 0 l 126 600 q 162 787 126 711 q 272 901 197 863 q 461 939 346 939 q 651 901 576 939 q 761 787 725 863 q 797 600 797 711 l 797 0 l 714 0 l 714 364 l 208 364 m 208 438 l 714 438 l 714 603 q 651 798 714 733 q 461 863 589 863 q 272 798 335 863 q 208 603 208 733 l 208 438 m 263 1193 l 329 1193 q 363 1108 332 1133 q 454 1082 394 1082 q 547 1108 515 1082 q 579 1193 578 1133 l 646 1193 q 594 1065 644 1107 q 454 1022 544 1022 q 314 1065 364 1022 q 263 1193 264 1107 z "},"Ā":{"ha":924,"x_min":126,"x_max":797,"o":"m 208 364 l 208 0 l 126 0 l 126 600 q 162 787 126 711 q 272 901 197 863 q 461 939 346 939 q 651 901 576 939 q 761 787 725 863 q 797 600 797 711 l 797 0 l 714 0 l 714 364 l 208 364 m 208 438 l 714 438 l 714 603 q 651 798 714 733 q 461 863 589 863 q 272 798 335 863 q 208 603 208 733 l 208 438 m 290 1154 l 618 1154 l 618 1093 l 290 1093 l 290 1154 z "},"Ą":{"ha":924,"x_min":126,"x_max":807,"o":"m 800 -172 l 807 -225 q 774 -235 793 -231 q 735 -239 754 -239 q 663 -217 692 -239 q 633 -146 633 -194 q 651 -85 633 -112 q 692 -37 668 -58 q 732 0 715 -15 l 797 0 q 756 -37 779 -17 q 715 -82 732 -58 q 697 -133 697 -106 q 710 -171 697 -160 q 743 -182 724 -182 q 774 -179 760 -182 q 800 -172 789 -176 m 208 364 l 208 0 l 126 0 l 126 600 q 162 787 126 711 q 272 901 197 863 q 461 939 346 939 q 651 901 576 939 q 761 787 725 863 q 797 600 797 711 l 797 0 l 714 0 l 714 364 l 208 364 m 208 438 l 714 438 l 714 603 q 651 798 714 733 q 461 863 589 863 q 272 798 335 863 q 208 603 208 733 l 208 438 z "},"Ǻ":{"ha":924,"x_min":126,"x_max":797,"o":"m 593 1154 q 558 1072 593 1101 q 461 1042 522 1042 q 366 1072 401 1042 q 331 1154 331 1101 q 356 1227 331 1199 q 428 1263 382 1256 l 513 1408 l 592 1408 l 493 1263 q 567 1227 540 1256 q 593 1154 593 1199 m 538 1154 q 517 1203 538 1186 q 461 1219 497 1219 q 406 1203 426 1219 q 386 1154 386 1186 q 406 1104 386 1121 q 461 1088 426 1088 q 517 1104 497 1088 q 538 1154 538 1121 m 208 364 l 208 0 l 126 0 l 126 600 q 162 787 126 711 q 272 901 197 863 q 461 939 346 939 q 651 901 576 939 q 761 787 725 863 q 797 600 797 711 l 797 0 l 714 0 l 714 364 l 208 364 m 208 438 l 714 438 l 714 603 q 651 798 714 733 q 461 863 589 863 q 272 798 335 863 q 208 603 208 733 l 208 438 z "},"Ç":{"ha":772,"x_min":94,"x_max":719,"o":"m 715 917 l 704 840 q 602 856 653 850 q 499 861 551 861 q 262 763 344 861 q 179 460 179 664 q 215 234 179 322 q 319 104 250 146 q 490 63 389 63 q 602 69 549 63 q 713 86 656 75 l 719 13 q 611 -8 667 0 q 488 -15 556 -15 q 274 35 361 -15 q 140 191 186 86 q 94 460 94 296 q 141 730 94 624 q 278 888 188 836 q 500 939 369 939 q 609 933 557 939 q 715 917 661 926 m 421 -64 l 483 -64 q 515 -122 500 -90 q 531 -185 531 -154 q 501 -254 531 -232 q 422 -276 472 -276 q 377 -274 401 -276 q 333 -262 353 -271 l 342 -210 q 376 -217 357 -214 q 413 -221 396 -221 q 452 -211 439 -221 q 465 -175 465 -201 q 451 -119 465 -150 q 421 -64 436 -89 z "},"Ć":{"ha":772,"x_min":94,"x_max":719,"o":"m 715 917 l 704 840 q 602 856 653 850 q 499 861 551 861 q 262 763 344 861 q 179 460 179 664 q 215 234 179 322 q 319 104 250 146 q 490 63 389 63 q 602 69 549 63 q 713 86 656 75 l 719 13 q 611 -8 667 0 q 488 -15 556 -15 q 274 35 361 -15 q 140 191 186 86 q 94 460 94 296 q 141 730 94 624 q 278 888 188 836 q 500 939 369 939 q 609 933 557 939 q 715 917 661 926 m 513 1242 l 599 1242 l 454 1018 l 388 1018 l 513 1242 z "},"Č":{"ha":772,"x_min":94,"x_max":719,"o":"m 715 917 l 704 840 q 602 856 653 850 q 499 861 551 861 q 262 763 344 861 q 179 460 179 664 q 215 234 179 322 q 319 104 250 146 q 490 63 389 63 q 602 69 549 63 q 713 86 656 75 l 719 13 q 611 -8 667 0 q 488 -15 556 -15 q 274 35 361 -15 q 140 191 186 86 q 94 460 94 296 q 141 730 94 624 q 278 888 188 836 q 500 939 369 939 q 609 933 557 939 q 715 917 661 926 m 433 1018 l 296 1242 l 369 1242 l 469 1071 l 569 1242 l 643 1242 l 506 1018 l 433 1018 z "},"Ĉ":{"ha":772,"x_min":94,"x_max":719,"o":"m 715 917 l 704 840 q 602 856 653 850 q 499 861 551 861 q 262 763 344 861 q 179 460 179 664 q 215 234 179 322 q 319 104 250 146 q 490 63 389 63 q 602 69 549 63 q 713 86 656 75 l 719 13 q 611 -8 667 0 q 488 -15 556 -15 q 274 35 361 -15 q 140 191 186 86 q 94 460 94 296 q 141 730 94 624 q 278 888 188 836 q 500 939 369 939 q 609 933 557 939 q 715 917 661 926 m 438 1242 l 510 1242 l 647 1018 l 574 1018 l 474 1189 l 374 1018 l 300 1018 l 438 1242 z "},"Ċ":{"ha":772,"x_min":94,"x_max":719,"o":"m 715 917 l 704 840 q 602 856 653 850 q 499 861 551 861 q 262 763 344 861 q 179 460 179 664 q 215 234 179 322 q 319 104 250 146 q 490 63 389 63 q 602 69 549 63 q 713 86 656 75 l 719 13 q 611 -8 667 0 q 488 -15 556 -15 q 274 35 361 -15 q 140 191 186 86 q 94 460 94 296 q 141 730 94 624 q 278 888 188 836 q 500 939 369 939 q 609 933 557 939 q 715 917 661 926 m 529 1138 q 514 1098 529 1111 q 474 1085 499 1085 q 433 1098 447 1085 q 418 1138 418 1111 q 433 1176 418 1163 q 474 1189 449 1189 q 514 1176 499 1189 q 529 1138 529 1163 z "},"Ď":{"ha":931,"x_min":140,"x_max":836,"o":"m 140 924 l 439 924 q 736 810 636 924 q 836 464 836 697 q 813 258 836 347 q 740 108 789 169 q 614 16 692 47 q 428 -15 536 -15 q 290 -7 361 -15 q 140 19 218 1 l 140 924 m 222 849 l 222 83 q 322 68 271 74 q 431 63 374 63 q 613 107 542 63 q 718 240 683 151 q 753 463 753 329 q 674 755 753 661 q 439 849 596 849 l 222 849 m 390 1018 l 253 1242 l 326 1242 l 426 1071 l 526 1242 l 600 1242 l 463 1018 l 390 1018 z "},"Đ":{"ha":957,"x_min":43,"x_max":863,"o":"m 43 440 l 43 515 l 513 515 l 513 440 l 43 440 m 167 924 l 465 924 q 763 810 663 924 q 863 464 863 697 q 839 258 863 347 q 767 108 815 169 q 641 16 718 47 q 456 -15 564 -15 q 316 -7 388 -15 q 167 19 244 1 l 167 924 m 249 849 l 249 83 q 349 68 297 74 q 457 63 400 63 q 639 107 568 63 q 744 240 710 151 q 779 463 779 329 q 701 755 779 661 q 465 849 622 849 l 249 849 z "},"É":{"ha":729,"x_min":135,"x_max":675,"o":"m 135 924 l 654 924 l 654 849 l 217 849 l 217 515 l 608 515 l 608 440 l 217 440 l 217 193 q 251 103 217 132 q 350 75 285 75 l 675 75 l 675 0 l 347 0 q 230 19 278 0 q 158 79 182 38 q 135 186 135 121 l 135 924 m 442 1242 l 528 1242 l 383 1018 l 317 1018 l 442 1242 z "},"Ê":{"ha":729,"x_min":135,"x_max":675,"o":"m 135 924 l 654 924 l 654 849 l 217 849 l 217 515 l 608 515 l 608 440 l 217 440 l 217 193 q 251 103 217 132 q 350 75 285 75 l 675 75 l 675 0 l 347 0 q 230 19 278 0 q 158 79 182 38 q 135 186 135 121 l 135 924 m 367 1242 l 439 1242 l 576 1018 l 503 1018 l 403 1189 l 303 1018 l 229 1018 l 367 1242 z "},"Ë":{"ha":729,"x_min":135,"x_max":675,"o":"m 135 924 l 654 924 l 654 849 l 217 849 l 217 515 l 608 515 l 608 440 l 217 440 l 217 193 q 251 103 217 132 q 350 75 285 75 l 675 75 l 675 0 l 347 0 q 230 19 278 0 q 158 79 182 38 q 135 186 135 121 l 135 924 m 344 1138 q 331 1100 344 1113 q 294 1088 318 1088 q 258 1100 272 1088 q 244 1138 244 1113 q 258 1176 244 1163 q 294 1189 272 1189 q 331 1176 318 1189 q 344 1138 344 1163 m 561 1138 q 548 1100 561 1113 q 511 1088 535 1088 q 474 1100 488 1088 q 461 1138 461 1113 q 475 1176 461 1163 q 511 1189 489 1189 q 548 1176 535 1189 q 561 1138 561 1163 z "},"È":{"ha":729,"x_min":135,"x_max":675,"o":"m 135 924 l 654 924 l 654 849 l 217 849 l 217 515 l 608 515 l 608 440 l 217 440 l 217 193 q 251 103 217 132 q 350 75 285 75 l 675 75 l 675 0 l 347 0 q 230 19 278 0 q 158 79 182 38 q 135 186 135 121 l 135 924 m 226 1242 l 313 1242 l 439 1018 l 372 1018 l 226 1242 z "},"Ĕ":{"ha":729,"x_min":135,"x_max":675,"o":"m 135 924 l 654 924 l 654 849 l 217 849 l 217 515 l 608 515 l 608 440 l 217 440 l 217 193 q 251 103 217 132 q 350 75 285 75 l 675 75 l 675 0 l 347 0 q 230 19 278 0 q 158 79 182 38 q 135 186 135 121 l 135 924 m 211 1193 l 278 1193 q 312 1108 281 1133 q 403 1082 343 1082 q 495 1108 464 1082 q 528 1193 526 1133 l 594 1193 q 543 1065 593 1107 q 403 1022 493 1022 q 263 1065 313 1022 q 211 1193 213 1107 z "},"Ě":{"ha":729,"x_min":135,"x_max":675,"o":"m 135 924 l 654 924 l 654 849 l 217 849 l 217 515 l 608 515 l 608 440 l 217 440 l 217 193 q 251 103 217 132 q 350 75 285 75 l 675 75 l 675 0 l 347 0 q 230 19 278 0 q 158 79 182 38 q 135 186 135 121 l 135 924 m 367 1018 l 229 1242 l 303 1242 l 403 1071 l 503 1242 l 576 1242 l 439 1018 l 367 1018 z "},"Ė":{"ha":729,"x_min":135,"x_max":675,"o":"m 135 924 l 654 924 l 654 849 l 217 849 l 217 515 l 608 515 l 608 440 l 217 440 l 217 193 q 251 103 217 132 q 350 75 285 75 l 675 75 l 675 0 l 347 0 q 230 19 278 0 q 158 79 182 38 q 135 186 135 121 l 135 924 m 458 1138 q 443 1098 458 1111 q 403 1085 428 1085 q 362 1098 376 1085 q 347 1138 347 1111 q 363 1176 347 1163 q 403 1189 378 1189 q 443 1176 428 1189 q 458 1138 458 1163 z "},"Ē":{"ha":729,"x_min":135,"x_max":675,"o":"m 135 924 l 654 924 l 654 849 l 217 849 l 217 515 l 608 515 l 608 440 l 217 440 l 217 193 q 251 103 217 132 q 350 75 285 75 l 675 75 l 675 0 l 347 0 q 230 19 278 0 q 158 79 182 38 q 135 186 135 121 l 135 924 m 239 1154 l 567 1154 l 567 1093 l 239 1093 l 239 1154 z "},"Ę":{"ha":731,"x_min":135,"x_max":685,"o":"m 676 -172 l 685 -225 q 653 -235 671 -231 q 617 -239 635 -239 q 544 -217 574 -239 q 514 -149 514 -196 q 531 -87 514 -114 q 570 -38 547 -60 q 611 0 593 -17 l 675 0 q 635 -38 657 -17 q 596 -85 613 -60 q 579 -137 579 -110 q 592 -172 579 -162 q 628 -182 606 -182 q 654 -179 642 -182 q 676 -172 667 -176 m 135 924 l 654 924 l 654 849 l 217 849 l 217 515 l 608 515 l 608 440 l 217 440 l 217 193 q 251 103 217 132 q 350 75 285 75 l 675 75 l 675 0 l 347 0 q 230 19 278 0 q 158 79 182 38 q 135 186 135 121 l 135 924 z "},"Ǽ":{"ha":1310,"x_min":126,"x_max":1256,"o":"m 856 1242 l 942 1242 l 797 1018 l 731 1018 l 856 1242 m 718 924 l 1233 924 l 1233 849 l 797 849 l 797 511 l 1189 511 l 1189 438 l 797 438 l 797 192 q 831 103 797 132 q 929 75 865 75 l 1256 75 l 1256 0 l 926 0 q 810 19 857 0 q 739 81 763 39 q 715 188 715 122 l 715 438 l 208 438 l 208 0 l 126 0 l 126 600 q 162 787 126 711 q 270 901 197 863 q 456 939 343 939 q 619 906 553 939 q 718 808 686 874 l 718 924 m 208 511 l 714 511 l 714 603 q 651 798 714 733 q 461 863 589 863 q 271 798 333 863 q 208 603 208 733 l 208 511 z "},"Ğ":{"ha":886,"x_min":94,"x_max":785,"o":"m 768 915 l 758 839 q 649 856 707 850 q 532 863 592 863 q 335 819 414 863 q 217 688 256 776 q 178 464 178 600 q 215 235 178 324 q 326 103 253 146 q 510 61 400 61 q 609 67 560 61 q 706 82 658 72 l 706 417 l 468 417 l 468 489 l 785 489 l 785 25 q 700 4 744 14 q 608 -10 656 -6 q 513 -15 561 -15 q 331 13 408 -15 q 200 99 253 40 q 121 247 147 157 q 94 464 94 338 q 144 733 94 628 q 290 888 193 838 q 529 939 388 939 q 609 936 568 939 q 690 928 650 933 q 768 915 731 922 m 307 1193 l 374 1193 q 408 1108 376 1133 q 499 1082 439 1082 q 591 1108 560 1082 q 624 1193 622 1133 l 690 1193 q 639 1065 689 1107 q 499 1022 589 1022 q 358 1065 408 1022 q 307 1193 308 1107 z "},"Ĝ":{"ha":886,"x_min":94,"x_max":785,"o":"m 768 915 l 758 839 q 649 856 707 850 q 532 863 592 863 q 335 819 414 863 q 217 688 256 776 q 178 464 178 600 q 215 235 178 324 q 326 103 253 146 q 510 61 400 61 q 609 67 560 61 q 706 82 658 72 l 706 417 l 468 417 l 468 489 l 785 489 l 785 25 q 700 4 744 14 q 608 -10 656 -6 q 513 -15 561 -15 q 331 13 408 -15 q 200 99 253 40 q 121 247 147 157 q 94 464 94 338 q 144 733 94 628 q 290 888 193 838 q 529 939 388 939 q 609 936 568 939 q 690 928 650 933 q 768 915 731 922 m 463 1242 l 535 1242 l 672 1018 l 599 1018 l 499 1189 l 399 1018 l 325 1018 l 463 1242 z "},"Ģ":{"ha":886,"x_min":94,"x_max":785,"o":"m 768 915 l 758 839 q 649 856 707 850 q 532 863 592 863 q 335 819 414 863 q 217 688 256 776 q 178 464 178 600 q 215 235 178 324 q 326 103 253 146 q 510 61 400 61 q 609 67 560 61 q 706 82 658 72 l 706 417 l 468 417 l 468 489 l 785 489 l 785 25 q 700 4 744 14 q 608 -10 656 -6 q 513 -15 561 -15 q 331 13 408 -15 q 200 99 253 40 q 121 247 147 157 q 94 464 94 338 q 144 733 94 628 q 290 888 193 838 q 529 939 388 939 q 609 936 568 939 q 690 928 650 933 q 768 915 731 922 m 460 -64 l 539 -64 l 414 -261 l 350 -261 l 460 -64 z "},"Ġ":{"ha":886,"x_min":94,"x_max":785,"o":"m 768 915 l 758 839 q 649 856 707 850 q 532 863 592 863 q 335 819 414 863 q 217 688 256 776 q 178 464 178 600 q 215 235 178 324 q 326 103 253 146 q 510 61 400 61 q 609 67 560 61 q 706 82 658 72 l 706 417 l 468 417 l 468 489 l 785 489 l 785 25 q 700 4 744 14 q 608 -10 656 -6 q 513 -15 561 -15 q 331 13 408 -15 q 200 99 253 40 q 121 247 147 157 q 94 464 94 338 q 144 733 94 628 q 290 888 193 838 q 529 939 388 939 q 609 936 568 939 q 690 928 650 933 q 768 915 731 922 m 554 1138 q 539 1098 554 1111 q 499 1085 524 1085 q 458 1098 472 1085 q 443 1138 443 1111 q 458 1176 443 1163 q 499 1189 474 1189 q 539 1176 524 1189 q 554 1138 554 1163 z "},"Ħ":{"ha":996,"x_min":17,"x_max":978,"o":"m 140 924 l 222 924 l 222 506 l 774 506 l 774 924 l 856 924 l 856 0 l 774 0 l 774 429 l 222 429 l 222 0 l 140 0 l 140 924 m 17 703 l 17 771 l 978 771 l 978 703 l 17 703 z "},"Ĥ":{"ha":996,"x_min":140,"x_max":856,"o":"m 140 924 l 222 924 l 222 515 l 774 515 l 774 924 l 856 924 l 856 0 l 774 0 l 774 439 l 222 439 l 222 0 l 140 0 l 140 924 m 457 1242 l 529 1242 l 667 1018 l 593 1018 l 493 1189 l 393 1018 l 319 1018 l 457 1242 z "},"Í":{"ha":363,"x_min":101,"x_max":313,"o":"m 140 924 l 222 924 l 222 0 l 140 0 l 140 924 m 226 1242 l 313 1242 l 168 1018 l 101 1018 l 226 1242 z "},"Î":{"ha":363,"x_min":7,"x_max":354,"o":"m 140 924 l 222 924 l 222 0 l 140 0 l 140 924 m 144 1242 l 217 1242 l 354 1018 l 281 1018 l 181 1189 l 81 1018 l 7 1018 l 144 1242 z "},"Ï":{"ha":363,"x_min":22,"x_max":339,"o":"m 140 924 l 222 924 l 222 0 l 140 0 l 140 924 m 122 1138 q 109 1100 122 1113 q 72 1088 96 1088 q 36 1100 50 1088 q 22 1138 22 1113 q 36 1176 22 1163 q 72 1189 50 1189 q 109 1176 96 1189 q 122 1138 122 1163 m 339 1138 q 326 1100 339 1113 q 289 1088 313 1088 q 252 1100 265 1088 q 239 1138 239 1113 q 253 1176 239 1163 q 289 1189 267 1189 q 326 1176 313 1189 q 339 1138 339 1163 z "},"Ì":{"ha":363,"x_min":4,"x_max":222,"o":"m 140 924 l 222 924 l 222 0 l 140 0 l 140 924 m 4 1242 l 90 1242 l 217 1018 l 150 1018 l 4 1242 z "},"Ĭ":{"ha":363,"x_min":-11,"x_max":372,"o":"m 140 924 l 222 924 l 222 0 l 140 0 l 140 924 m -11 1193 l 56 1193 q 90 1108 58 1133 q 181 1082 121 1082 q 273 1108 242 1082 q 306 1193 304 1133 l 372 1193 q 321 1065 371 1107 q 181 1022 271 1022 q 40 1065 90 1022 q -11 1193 -10 1107 z "},"İ":{"ha":363,"x_min":125,"x_max":236,"o":"m 140 924 l 222 924 l 222 0 l 140 0 l 140 924 m 236 1138 q 221 1098 236 1111 q 181 1085 206 1085 q 140 1098 154 1085 q 125 1138 125 1111 q 140 1176 125 1163 q 181 1189 156 1189 q 221 1176 206 1189 q 236 1138 236 1163 z "},"Ī":{"ha":363,"x_min":17,"x_max":344,"o":"m 140 924 l 222 924 l 222 0 l 140 0 l 140 924 m 17 1154 l 344 1154 l 344 1093 l 17 1093 l 17 1154 z "},"Į":{"ha":363,"x_min":89,"x_max":286,"o":"m 140 924 l 222 924 l 222 0 l 140 0 l 140 924 m 279 -172 l 286 -225 q 249 -235 271 -231 q 204 -239 226 -239 q 123 -215 157 -239 q 89 -140 89 -192 q 113 -56 89 -92 q 158 0 136 -19 l 222 0 q 176 -55 200 -21 q 153 -128 153 -89 q 170 -170 153 -158 q 214 -182 188 -182 q 249 -180 233 -182 q 279 -172 265 -178 z "},"Ĩ":{"ha":363,"x_min":-24,"x_max":383,"o":"m 140 924 l 222 924 l 222 0 l 140 0 l 140 924 m 33 1067 l -24 1089 q 13 1157 -12 1129 q 86 1185 38 1185 q 149 1171 115 1185 q 213 1143 182 1157 q 265 1129 244 1129 q 308 1147 296 1129 q 325 1186 319 1164 l 383 1165 q 346 1095 371 1124 q 272 1067 321 1067 q 211 1081 244 1067 q 147 1110 178 1096 q 94 1124 117 1124 q 53 1106 65 1124 q 33 1067 40 1089 z "},"Ĵ":{"ha":363,"x_min":-39,"x_max":354,"o":"m 142 924 l 224 924 l 224 79 q 205 -35 224 17 q 138 -141 186 -86 q 0 -271 90 -196 l -39 -206 q 74 -98 35 -144 q 127 -9 113 -51 q 142 81 142 33 l 142 924 m 144 1253 l 217 1253 l 354 1029 l 281 1029 l 181 1200 l 81 1029 l 7 1029 l 144 1253 z "},"Ķ":{"ha":846,"x_min":140,"x_max":793,"o":"m 140 924 l 222 924 l 222 406 l 690 924 l 782 924 l 418 518 q 576 436 518 494 q 678 271 635 378 l 793 0 l 703 0 l 599 244 q 542 353 572 310 q 470 421 513 396 q 364 456 428 446 l 222 304 l 222 0 l 140 0 l 140 924 m 431 -64 l 510 -64 l 385 -261 l 321 -261 l 431 -64 z "},"Ĺ":{"ha":690,"x_min":140,"x_max":649,"o":"m 140 924 l 222 924 l 222 75 l 649 75 l 649 0 l 140 0 l 140 924 m 271 1251 l 357 1251 l 213 1028 l 146 1028 l 271 1251 z "},"Ľ":{"ha":690,"x_min":140,"x_max":649,"o":"m 140 924 l 222 924 l 222 75 l 649 75 l 649 0 l 140 0 l 140 924 m 504 924 l 585 924 l 474 628 l 410 628 l 504 924 z "},"Ļ":{"ha":690,"x_min":140,"x_max":649,"o":"m 140 924 l 222 924 l 222 75 l 649 75 l 649 0 l 140 0 l 140 924 m 371 -64 l 450 -64 l 325 -261 l 261 -261 l 371 -64 z "},"Ŀ":{"ha":690,"x_min":140,"x_max":649,"o":"m 140 924 l 222 924 l 222 75 l 649 75 l 649 0 l 140 0 l 140 924 m 574 474 q 558 435 574 449 q 518 422 543 422 q 477 435 492 422 q 463 474 463 449 q 478 512 463 499 q 518 525 493 525 q 558 512 543 525 q 574 474 574 499 z "},"Ñ":{"ha":993,"x_min":140,"x_max":853,"o":"m 140 924 l 213 924 l 772 325 l 772 924 l 853 924 l 853 0 l 772 0 l 772 208 l 221 797 l 221 0 l 140 0 l 140 924 m 346 1067 l 289 1089 q 325 1157 300 1129 q 399 1185 350 1185 q 461 1171 428 1185 q 526 1143 494 1157 q 578 1129 557 1129 q 620 1147 608 1129 q 638 1186 632 1164 l 696 1165 q 658 1095 683 1124 q 585 1067 633 1067 q 524 1081 557 1067 q 460 1110 490 1096 q 407 1124 429 1124 q 365 1106 378 1124 q 346 1067 353 1089 z "},"Ń":{"ha":993,"x_min":140,"x_max":853,"o":"m 140 924 l 213 924 l 772 325 l 772 924 l 853 924 l 853 0 l 772 0 l 772 208 l 221 797 l 221 0 l 140 0 l 140 924 m 532 1242 l 618 1242 l 474 1018 l 407 1018 l 532 1242 z "},"Ň":{"ha":993,"x_min":140,"x_max":853,"o":"m 140 924 l 213 924 l 772 325 l 772 924 l 853 924 l 853 0 l 772 0 l 772 208 l 221 797 l 221 0 l 140 0 l 140 924 m 457 1018 l 319 1242 l 393 1242 l 493 1071 l 593 1242 l 667 1242 l 529 1018 l 457 1018 z "},"Ņ":{"ha":993,"x_min":140,"x_max":853,"o":"m 140 924 l 213 924 l 772 325 l 772 924 l 853 924 l 853 0 l 772 0 l 772 208 l 221 797 l 221 0 l 140 0 l 140 924 m 469 -64 l 549 -64 l 424 -261 l 360 -261 l 469 -64 z "},"Ŋ":{"ha":993,"x_min":140,"x_max":853,"o":"m 140 924 l 213 924 l 772 325 l 772 924 l 853 924 l 853 257 l 772 257 l 772 208 l 221 797 l 221 0 l 140 0 l 140 924 m 772 924 l 853 924 l 853 79 q 834 -35 853 17 q 767 -141 815 -86 q 628 -271 718 -196 l 589 -206 q 703 -98 664 -144 q 758 -9 743 -51 q 772 81 772 33 l 772 924 z "},"Ó":{"ha":963,"x_min":97,"x_max":865,"o":"m 481 939 q 770 822 675 939 q 865 461 865 704 q 770 102 865 219 q 481 -15 675 -15 q 192 102 288 -15 q 97 461 97 219 q 192 822 97 704 q 481 939 288 939 m 482 863 q 256 765 331 863 q 181 463 181 668 q 256 158 181 256 q 482 61 331 61 q 708 158 633 61 q 782 463 782 256 q 708 765 782 668 q 482 863 633 863 m 513 1242 l 599 1242 l 454 1018 l 388 1018 l 513 1242 z "},"Ô":{"ha":963,"x_min":97,"x_max":865,"o":"m 481 939 q 770 822 675 939 q 865 461 865 704 q 770 102 865 219 q 481 -15 675 -15 q 192 102 288 -15 q 97 461 97 219 q 192 822 97 704 q 481 939 288 939 m 482 863 q 256 765 331 863 q 181 463 181 668 q 256 158 181 256 q 482 61 331 61 q 708 158 633 61 q 782 463 782 256 q 708 765 782 668 q 482 863 633 863 m 438 1242 l 510 1242 l 647 1018 l 574 1018 l 474 1189 l 374 1018 l 300 1018 l 438 1242 z "},"Ö":{"ha":963,"x_min":97,"x_max":865,"o":"m 481 939 q 770 822 675 939 q 865 461 865 704 q 770 102 865 219 q 481 -15 675 -15 q 192 102 288 -15 q 97 461 97 219 q 192 822 97 704 q 481 939 288 939 m 482 863 q 256 765 331 863 q 181 463 181 668 q 256 158 181 256 q 482 61 331 61 q 708 158 633 61 q 782 463 782 256 q 708 765 782 668 q 482 863 633 863 m 415 1138 q 402 1100 415 1113 q 365 1088 389 1088 q 329 1100 343 1088 q 315 1138 315 1113 q 329 1176 315 1163 q 365 1189 343 1189 q 402 1176 389 1189 q 415 1138 415 1163 m 632 1138 q 619 1100 632 1113 q 582 1088 606 1088 q 545 1100 558 1088 q 532 1138 532 1113 q 546 1176 532 1163 q 582 1189 560 1189 q 619 1176 606 1189 q 632 1138 632 1163 z "},"Ò":{"ha":963,"x_min":97,"x_max":865,"o":"m 481 939 q 770 822 675 939 q 865 461 865 704 q 770 102 865 219 q 481 -15 675 -15 q 192 102 288 -15 q 97 461 97 219 q 192 822 97 704 q 481 939 288 939 m 482 863 q 256 765 331 863 q 181 463 181 668 q 256 158 181 256 q 482 61 331 61 q 708 158 633 61 q 782 463 782 256 q 708 765 782 668 q 482 863 633 863 m 297 1242 l 383 1242 l 510 1018 l 443 1018 l 297 1242 z "},"Õ":{"ha":963,"x_min":97,"x_max":865,"o":"m 481 939 q 770 822 675 939 q 865 461 865 704 q 770 102 865 219 q 481 -15 675 -15 q 192 102 288 -15 q 97 461 97 219 q 192 822 97 704 q 481 939 288 939 m 482 863 q 256 765 331 863 q 181 463 181 668 q 256 158 181 256 q 482 61 331 61 q 708 158 633 61 q 782 463 782 256 q 708 765 782 668 q 482 863 633 863 m 326 1067 l 269 1089 q 306 1157 281 1129 q 379 1185 331 1185 q 442 1171 408 1185 q 506 1143 475 1157 q 558 1129 538 1129 q 601 1147 589 1129 q 618 1186 613 1164 l 676 1165 q 639 1095 664 1124 q 565 1067 614 1067 q 504 1081 538 1067 q 440 1110 471 1096 q 388 1124 410 1124 q 346 1106 358 1124 q 326 1067 333 1089 z "},"Ŏ":{"ha":963,"x_min":97,"x_max":865,"o":"m 481 939 q 770 822 675 939 q 865 461 865 704 q 770 102 865 219 q 481 -15 675 -15 q 192 102 288 -15 q 97 461 97 219 q 192 822 97 704 q 481 939 288 939 m 482 863 q 256 765 331 863 q 181 463 181 668 q 256 158 181 256 q 482 61 331 61 q 708 158 633 61 q 782 463 782 256 q 708 765 782 668 q 482 863 633 863 m 282 1193 l 349 1193 q 383 1108 351 1133 q 474 1082 414 1082 q 566 1108 535 1082 q 599 1193 597 1133 l 665 1193 q 614 1065 664 1107 q 474 1022 564 1022 q 333 1065 383 1022 q 282 1193 283 1107 z "},"Ő":{"ha":963,"x_min":97,"x_max":865,"o":"m 481 939 q 770 822 675 939 q 865 461 865 704 q 770 102 865 219 q 481 -15 675 -15 q 192 102 288 -15 q 97 461 97 219 q 192 822 97 704 q 481 939 288 939 m 482 863 q 256 765 331 863 q 181 463 181 668 q 256 158 181 256 q 482 61 331 61 q 708 158 633 61 q 782 463 782 256 q 708 765 782 668 q 482 863 633 863 m 386 1242 l 458 1242 l 368 1018 l 311 1018 l 386 1242 m 567 1242 l 642 1242 l 531 1018 l 472 1018 l 567 1242 z "},"Ō":{"ha":963,"x_min":97,"x_max":865,"o":"m 481 939 q 770 822 675 939 q 865 461 865 704 q 770 102 865 219 q 481 -15 675 -15 q 192 102 288 -15 q 97 461 97 219 q 192 822 97 704 q 481 939 288 939 m 482 863 q 256 765 331 863 q 181 463 181 668 q 256 158 181 256 q 482 61 331 61 q 708 158 633 61 q 782 463 782 256 q 708 765 782 668 q 482 863 633 863 m 310 1154 l 638 1154 l 638 1093 l 310 1093 l 310 1154 z "},"Ǿ":{"ha":963,"x_min":92,"x_max":860,"o":"m 476 939 q 765 822 671 939 q 860 461 860 704 q 765 102 860 219 q 476 -15 671 -15 q 188 102 283 -15 q 92 461 92 219 q 188 822 92 704 q 476 939 283 939 m 476 867 q 309 823 376 867 q 208 690 242 779 q 175 461 175 600 q 208 234 175 324 q 309 101 242 144 q 476 57 376 57 q 644 101 578 57 q 743 234 710 144 q 776 461 776 324 q 743 690 776 600 q 644 823 710 779 q 476 867 578 867 m 849 956 l 160 -76 l 101 -36 l 790 996 l 849 956 m 513 1242 l 599 1242 l 454 1018 l 388 1018 l 513 1242 z "},"Ŕ":{"ha":860,"x_min":140,"x_max":785,"o":"m 140 924 l 426 924 q 613 895 539 924 q 723 808 686 867 q 760 657 760 749 q 735 536 760 586 q 665 455 711 486 q 551 411 618 424 q 628 354 594 396 q 694 228 661 313 l 785 0 l 697 0 l 615 207 q 558 319 585 281 q 498 370 531 357 q 417 383 465 383 l 222 383 l 222 0 l 140 0 l 140 924 m 222 849 l 222 458 l 418 458 q 614 508 550 458 q 678 657 678 557 q 616 803 678 757 q 426 849 554 849 l 222 849 m 479 1242 l 565 1242 l 421 1018 l 354 1018 l 479 1242 z "},"Ř":{"ha":860,"x_min":140,"x_max":785,"o":"m 140 924 l 426 924 q 613 895 539 924 q 723 808 686 867 q 760 657 760 749 q 735 536 760 586 q 665 455 711 486 q 551 411 618 424 q 628 354 594 396 q 694 228 661 313 l 785 0 l 697 0 l 615 207 q 558 319 585 281 q 498 370 531 357 q 417 383 465 383 l 222 383 l 222 0 l 140 0 l 140 924 m 222 849 l 222 458 l 418 458 q 614 508 550 458 q 678 657 678 557 q 616 803 678 757 q 426 849 554 849 l 222 849 m 386 1018 l 249 1242 l 322 1242 l 422 1071 l 522 1242 l 596 1242 l 458 1018 l 386 1018 z "},"Ŗ":{"ha":860,"x_min":140,"x_max":785,"o":"m 140 924 l 426 924 q 613 895 539 924 q 723 808 686 867 q 760 657 760 749 q 735 536 760 586 q 665 455 711 486 q 551 411 618 424 q 628 354 594 396 q 694 228 661 313 l 785 0 l 697 0 l 615 207 q 558 319 585 281 q 498 370 531 357 q 417 383 465 383 l 222 383 l 222 0 l 140 0 l 140 924 m 222 849 l 222 458 l 418 458 q 614 508 550 458 q 678 657 678 557 q 616 803 678 757 q 426 849 554 849 l 222 849 m 428 -64 l 507 -64 l 382 -261 l 318 -261 l 428 -64 z "},"Š":{"ha":715,"x_min":69,"x_max":646,"o":"m 611 917 l 603 843 q 498 858 553 851 q 388 864 443 864 q 223 834 278 864 q 168 739 168 804 q 203 640 168 682 q 292 565 238 599 q 407 497 346 531 q 522 424 468 464 q 611 331 576 383 q 646 204 646 278 q 575 41 646 97 q 363 -15 504 -15 q 214 -3 288 -15 q 69 32 140 10 l 79 104 q 218 71 149 82 q 361 60 288 60 q 511 95 460 60 q 563 196 563 131 q 528 300 563 256 q 439 380 493 344 q 324 450 385 415 q 208 524 263 485 q 119 614 154 563 q 85 736 85 665 q 119 851 85 807 q 222 917 154 896 q 388 938 289 938 q 501 932 444 938 q 611 917 557 926 m 343 1018 l 206 1242 l 279 1242 l 379 1071 l 479 1242 l 553 1242 l 415 1018 l 343 1018 z "},"Ś":{"ha":715,"x_min":69,"x_max":646,"o":"m 611 917 l 603 843 q 498 858 553 851 q 388 864 443 864 q 223 834 278 864 q 168 739 168 804 q 203 640 168 682 q 292 565 238 599 q 407 497 346 531 q 522 424 468 464 q 611 331 576 383 q 646 204 646 278 q 575 41 646 97 q 363 -15 504 -15 q 214 -3 288 -15 q 69 32 140 10 l 79 104 q 218 71 149 82 q 361 60 288 60 q 511 95 460 60 q 563 196 563 131 q 528 300 563 256 q 439 380 493 344 q 324 450 385 415 q 208 524 263 485 q 119 614 154 563 q 85 736 85 665 q 119 851 85 807 q 222 917 154 896 q 388 938 289 938 q 501 932 444 938 q 611 917 557 926 m 418 1242 l 504 1242 l 360 1018 l 293 1018 l 418 1242 z "},"Ş":{"ha":715,"x_min":69,"x_max":646,"o":"m 611 917 l 603 843 q 498 858 553 851 q 388 864 443 864 q 223 834 278 864 q 168 739 168 804 q 203 640 168 682 q 292 565 238 599 q 407 497 346 531 q 522 424 468 464 q 611 331 576 383 q 646 204 646 278 q 575 41 646 97 q 363 -15 504 -15 q 214 -3 288 -15 q 69 32 140 10 l 79 104 q 218 71 149 82 q 361 60 288 60 q 511 95 460 60 q 563 196 563 131 q 528 300 563 256 q 439 380 493 344 q 324 450 385 415 q 208 524 263 485 q 119 614 154 563 q 85 736 85 665 q 119 851 85 807 q 222 917 154 896 q 388 938 289 938 q 501 932 444 938 q 611 917 557 926 m 326 -62 l 389 -62 q 421 -121 406 -89 q 436 -183 436 -153 q 407 -253 436 -231 q 328 -275 378 -275 q 283 -272 307 -275 q 239 -261 258 -269 l 247 -208 q 282 -216 263 -212 q 318 -219 301 -219 q 358 -210 344 -219 q 371 -174 371 -200 q 356 -118 371 -149 q 326 -62 342 -87 z "},"Ŝ":{"ha":715,"x_min":69,"x_max":646,"o":"m 611 917 l 603 843 q 498 858 553 851 q 388 864 443 864 q 223 834 278 864 q 168 739 168 804 q 203 640 168 682 q 292 565 238 599 q 407 497 346 531 q 522 424 468 464 q 611 331 576 383 q 646 204 646 278 q 575 41 646 97 q 363 -15 504 -15 q 214 -3 288 -15 q 69 32 140 10 l 79 104 q 218 71 149 82 q 361 60 288 60 q 511 95 460 60 q 563 196 563 131 q 528 300 563 256 q 439 380 493 344 q 324 450 385 415 q 208 524 263 485 q 119 614 154 563 q 85 736 85 665 q 119 851 85 807 q 222 917 154 896 q 388 938 289 938 q 501 932 444 938 q 611 917 557 926 m 343 1242 l 415 1242 l 553 1018 l 479 1018 l 379 1189 l 279 1018 l 206 1018 l 343 1242 z "},"Ș":{"ha":715,"x_min":69,"x_max":646,"o":"m 611 917 l 603 843 q 498 858 553 851 q 388 864 443 864 q 223 834 278 864 q 168 739 168 804 q 203 640 168 682 q 292 565 238 599 q 407 497 346 531 q 522 424 468 464 q 611 331 576 383 q 646 204 646 278 q 575 41 646 97 q 363 -15 504 -15 q 214 -3 288 -15 q 69 32 140 10 l 79 104 q 218 71 149 82 q 361 60 288 60 q 511 95 460 60 q 563 196 563 131 q 528 300 563 256 q 439 380 493 344 q 324 450 385 415 q 208 524 263 485 q 119 614 154 563 q 85 736 85 665 q 119 851 85 807 q 222 917 154 896 q 388 938 289 938 q 501 932 444 938 q 611 917 557 926 m 321 -64 l 400 -64 l 275 -261 l 211 -261 l 321 -64 z "},"Ţ":{"ha":808,"x_min":42,"x_max":768,"o":"m 42 924 l 768 924 l 768 849 l 446 849 l 446 0 l 364 0 l 364 849 l 42 849 l 42 924 m 360 -64 l 439 -64 l 314 -261 l 250 -261 l 360 -64 z "},"Ŧ":{"ha":811,"x_min":42,"x_max":769,"o":"m 42 924 l 769 924 l 769 851 l 449 851 l 449 0 l 363 0 l 363 851 l 42 851 l 42 924 m 717 432 l 93 432 l 93 504 l 717 504 l 717 432 z "},"Ť":{"ha":808,"x_min":42,"x_max":768,"o":"m 42 924 l 768 924 l 768 849 l 446 849 l 446 0 l 364 0 l 364 849 l 42 849 l 42 924 m 368 1029 l 231 1253 l 304 1253 l 404 1082 l 504 1253 l 578 1253 l 440 1029 l 368 1029 z "},"Ú":{"ha":944,"x_min":125,"x_max":806,"o":"m 125 924 l 207 924 l 207 329 q 232 193 207 254 q 315 97 257 132 q 475 61 374 61 q 626 72 567 61 q 724 93 686 83 l 724 924 l 806 924 l 806 38 q 665 2 742 19 q 475 -15 588 -15 q 267 30 344 -15 q 158 152 190 75 q 125 326 125 229 l 125 924 m 504 1242 l 590 1242 l 446 1018 l 379 1018 l 504 1242 z "},"Û":{"ha":944,"x_min":125,"x_max":806,"o":"m 125 924 l 207 924 l 207 329 q 232 193 207 254 q 315 97 257 132 q 475 61 374 61 q 626 72 567 61 q 724 93 686 83 l 724 924 l 806 924 l 806 38 q 665 2 742 19 q 475 -15 588 -15 q 267 30 344 -15 q 158 152 190 75 q 125 326 125 229 l 125 924 m 429 1242 l 501 1242 l 639 1018 l 565 1018 l 465 1189 l 365 1018 l 292 1018 l 429 1242 z "},"Ü":{"ha":944,"x_min":125,"x_max":806,"o":"m 125 924 l 207 924 l 207 329 q 232 193 207 254 q 315 97 257 132 q 475 61 374 61 q 626 72 567 61 q 724 93 686 83 l 724 924 l 806 924 l 806 38 q 665 2 742 19 q 475 -15 588 -15 q 267 30 344 -15 q 158 152 190 75 q 125 326 125 229 l 125 924 m 407 1138 q 394 1100 407 1113 q 357 1088 381 1088 q 321 1100 335 1088 q 307 1138 307 1113 q 321 1176 307 1163 q 357 1189 335 1189 q 394 1176 381 1189 q 407 1138 407 1163 m 624 1138 q 610 1100 624 1113 q 574 1088 597 1088 q 537 1100 550 1088 q 524 1138 524 1113 q 538 1176 524 1163 q 574 1189 551 1189 q 610 1176 597 1189 q 624 1138 624 1163 z "},"Ù":{"ha":944,"x_min":125,"x_max":806,"o":"m 125 924 l 207 924 l 207 329 q 232 193 207 254 q 315 97 257 132 q 475 61 374 61 q 626 72 567 61 q 724 93 686 83 l 724 924 l 806 924 l 806 38 q 665 2 742 19 q 475 -15 588 -15 q 267 30 344 -15 q 158 152 190 75 q 125 326 125 229 l 125 924 m 289 1242 l 375 1242 l 501 1018 l 435 1018 l 289 1242 z "},"Ŭ":{"ha":944,"x_min":125,"x_max":806,"o":"m 125 924 l 207 924 l 207 329 q 232 193 207 254 q 315 97 257 132 q 475 61 374 61 q 626 72 567 61 q 724 93 686 83 l 724 924 l 806 924 l 806 38 q 665 2 742 19 q 475 -15 588 -15 q 267 30 344 -15 q 158 152 190 75 q 125 326 125 229 l 125 924 m 274 1193 l 340 1193 q 374 1108 343 1133 q 465 1082 406 1082 q 558 1108 526 1082 q 590 1193 589 1133 l 657 1193 q 606 1065 656 1107 q 465 1022 556 1022 q 325 1065 375 1022 q 274 1193 275 1107 z "},"Ű":{"ha":944,"x_min":125,"x_max":806,"o":"m 125 924 l 207 924 l 207 329 q 232 193 207 254 q 315 97 257 132 q 475 61 374 61 q 626 72 567 61 q 724 93 686 83 l 724 924 l 806 924 l 806 38 q 665 2 742 19 q 475 -15 588 -15 q 267 30 344 -15 q 158 152 190 75 q 125 326 125 229 l 125 924 m 378 1242 l 450 1242 l 360 1018 l 303 1018 l 378 1242 m 558 1242 l 633 1242 l 522 1018 l 464 1018 l 558 1242 z "},"Ū":{"ha":944,"x_min":125,"x_max":806,"o":"m 125 924 l 207 924 l 207 329 q 232 193 207 254 q 315 97 257 132 q 475 61 374 61 q 626 72 567 61 q 724 93 686 83 l 724 924 l 806 924 l 806 38 q 665 2 742 19 q 475 -15 588 -15 q 267 30 344 -15 q 158 152 190 75 q 125 326 125 229 l 125 924 m 301 1154 l 629 1154 l 629 1093 l 301 1093 l 301 1154 z "},"Ų":{"ha":947,"x_min":125,"x_max":819,"o":"m 813 -135 l 819 -187 q 783 -197 804 -193 q 740 -201 761 -201 q 669 -181 699 -201 q 639 -114 639 -160 q 657 -52 639 -81 q 699 -1 675 -24 q 742 38 724 21 l 806 38 q 763 -3 788 19 q 722 -49 739 -25 q 704 -103 704 -74 q 717 -135 704 -126 q 750 -144 731 -144 q 783 -142 768 -144 q 813 -135 799 -139 m 125 924 l 207 924 l 207 329 q 232 193 207 254 q 315 97 257 132 q 475 61 374 61 q 626 72 567 61 q 724 93 686 83 l 724 924 l 806 924 l 806 38 q 665 2 742 19 q 475 -15 588 -15 q 267 30 344 -15 q 158 152 190 75 q 125 326 125 229 l 125 924 z "},"Ů":{"ha":944,"x_min":125,"x_max":806,"o":"m 125 924 l 207 924 l 207 329 q 232 193 207 254 q 315 97 257 132 q 475 61 374 61 q 626 72 567 61 q 724 93 686 83 l 724 924 l 806 924 l 806 38 q 665 2 742 19 q 475 -15 588 -15 q 267 30 344 -15 q 158 152 190 75 q 125 326 125 229 l 125 924 m 464 1197 q 409 1181 429 1197 q 389 1131 389 1165 q 409 1080 389 1096 q 464 1064 429 1064 q 520 1080 500 1064 q 540 1131 540 1096 q 520 1181 540 1165 q 464 1197 500 1197 m 464 1246 q 560 1215 525 1246 q 596 1131 596 1185 q 560 1044 596 1075 q 464 1014 525 1014 q 368 1044 404 1014 q 332 1131 332 1075 q 368 1215 332 1185 q 464 1246 404 1246 z "},"Ũ":{"ha":944,"x_min":125,"x_max":806,"o":"m 125 924 l 207 924 l 207 329 q 232 193 207 254 q 315 97 257 132 q 475 61 374 61 q 626 72 567 61 q 724 93 686 83 l 724 924 l 806 924 l 806 38 q 665 2 742 19 q 475 -15 588 -15 q 267 30 344 -15 q 158 152 190 75 q 125 326 125 229 l 125 924 m 318 1067 l 261 1089 q 297 1157 272 1129 q 371 1185 322 1185 q 433 1171 400 1185 q 498 1143 467 1157 q 550 1129 529 1129 q 592 1147 581 1129 q 610 1186 604 1164 l 668 1165 q 631 1095 656 1124 q 557 1067 606 1067 q 496 1081 529 1067 q 432 1110 463 1096 q 379 1124 401 1124 q 338 1106 350 1124 q 318 1067 325 1089 z "},"Ẃ":{"ha":1268,"x_min":57,"x_max":1196,"o":"m 367 0 l 282 0 l 57 924 l 142 924 l 333 103 l 592 732 l 672 732 l 933 99 q 1050 493 1004 290 q 1121 924 1096 696 l 1196 924 q 1162 676 1181 792 q 1117 450 1143 560 q 1057 230 1092 340 q 976 0 1022 119 l 893 0 l 632 642 l 367 0 m 667 1242 l 753 1242 l 608 1018 l 542 1018 l 667 1242 z "},"Ŵ":{"ha":1268,"x_min":57,"x_max":1196,"o":"m 367 0 l 282 0 l 57 924 l 142 924 l 333 103 l 592 732 l 672 732 l 933 99 q 1050 493 1004 290 q 1121 924 1096 696 l 1196 924 q 1162 676 1181 792 q 1117 450 1143 560 q 1057 230 1092 340 q 976 0 1022 119 l 893 0 l 632 642 l 367 0 m 592 1242 l 664 1242 l 801 1018 l 728 1018 l 628 1189 l 528 1018 l 454 1018 l 592 1242 z "},"Ẅ":{"ha":1268,"x_min":57,"x_max":1196,"o":"m 367 0 l 282 0 l 57 924 l 142 924 l 333 103 l 592 732 l 672 732 l 933 99 q 1050 493 1004 290 q 1121 924 1096 696 l 1196 924 q 1162 676 1181 792 q 1117 450 1143 560 q 1057 230 1092 340 q 976 0 1022 119 l 893 0 l 632 642 l 367 0 m 569 1138 q 556 1100 569 1113 q 519 1088 543 1088 q 483 1100 497 1088 q 469 1138 469 1113 q 483 1176 469 1163 q 519 1189 497 1189 q 556 1176 543 1189 q 569 1138 569 1163 m 786 1138 q 773 1100 786 1113 q 736 1088 760 1088 q 699 1100 713 1088 q 686 1138 686 1113 q 700 1176 686 1163 q 736 1189 714 1189 q 773 1176 760 1189 q 786 1138 786 1163 z "},"Ẁ":{"ha":1268,"x_min":57,"x_max":1196,"o":"m 367 0 l 282 0 l 57 924 l 142 924 l 333 103 l 592 732 l 672 732 l 933 99 q 1050 493 1004 290 q 1121 924 1096 696 l 1196 924 q 1162 676 1181 792 q 1117 450 1143 560 q 1057 230 1092 340 q 976 0 1022 119 l 893 0 l 632 642 l 367 0 m 451 1242 l 538 1242 l 664 1018 l 597 1018 l 451 1242 z "},"Ý":{"ha":799,"x_min":40,"x_max":747,"o":"m 353 0 l 353 329 l 40 924 l 129 924 l 400 407 q 484 510 442 451 q 564 638 526 569 q 628 778 601 706 q 665 924 656 851 l 747 924 q 679 705 725 813 q 570 502 633 597 q 433 332 507 407 l 433 0 l 353 0 m 431 1242 l 517 1242 l 372 1018 l 306 1018 l 431 1242 z "},"Ÿ":{"ha":799,"x_min":40,"x_max":747,"o":"m 353 0 l 353 329 l 40 924 l 129 924 l 400 407 q 484 510 442 451 q 564 638 526 569 q 628 778 601 706 q 665 924 656 851 l 747 924 q 679 705 725 813 q 570 502 633 597 q 433 332 507 407 l 433 0 l 353 0 m 333 1138 q 320 1100 333 1113 q 283 1088 307 1088 q 247 1100 261 1088 q 233 1138 233 1113 q 247 1176 233 1163 q 283 1189 261 1189 q 320 1176 307 1189 q 333 1138 333 1163 m 550 1138 q 537 1100 550 1113 q 500 1088 524 1088 q 463 1100 476 1088 q 450 1138 450 1113 q 464 1176 450 1163 q 500 1189 478 1189 q 537 1176 524 1189 q 550 1138 550 1163 z "},"Ŷ":{"ha":799,"x_min":40,"x_max":747,"o":"m 353 0 l 353 329 l 40 924 l 129 924 l 400 407 q 484 510 442 451 q 564 638 526 569 q 628 778 601 706 q 665 924 656 851 l 747 924 q 679 705 725 813 q 570 502 633 597 q 433 332 507 407 l 433 0 l 353 0 m 356 1242 l 428 1242 l 565 1018 l 492 1018 l 392 1189 l 292 1018 l 218 1018 l 356 1242 z "},"Ỳ":{"ha":799,"x_min":40,"x_max":747,"o":"m 353 0 l 353 329 l 40 924 l 129 924 l 400 407 q 484 510 442 451 q 564 638 526 569 q 628 778 601 706 q 665 924 656 851 l 747 924 q 679 705 725 813 q 570 502 633 597 q 433 332 507 407 l 433 0 l 353 0 m 215 1242 l 301 1242 l 428 1018 l 361 1018 l 215 1242 z "},"Ž":{"ha":801,"x_min":54,"x_max":746,"o":"m 74 924 l 733 924 l 733 857 l 156 75 l 746 75 l 746 0 l 54 0 l 54 67 l 632 849 l 74 849 l 74 924 m 364 1018 l 226 1242 l 300 1242 l 400 1071 l 500 1242 l 574 1242 l 436 1018 l 364 1018 z "},"Ź":{"ha":801,"x_min":54,"x_max":746,"o":"m 74 924 l 733 924 l 733 857 l 156 75 l 746 75 l 746 0 l 54 0 l 54 67 l 632 849 l 74 849 l 74 924 m 439 1242 l 525 1242 l 381 1018 l 314 1018 l 439 1242 z "},"Ż":{"ha":801,"x_min":54,"x_max":746,"o":"m 74 924 l 733 924 l 733 857 l 156 75 l 746 75 l 746 0 l 54 0 l 54 67 l 632 849 l 74 849 l 74 924 m 456 1138 q 440 1098 456 1111 q 400 1085 425 1085 q 359 1098 374 1085 q 344 1138 344 1111 q 360 1176 344 1163 q 400 1189 375 1189 q 440 1176 425 1189 q 456 1138 456 1163 z "},"á":{"ha":700,"x_min":63,"x_max":585,"o":"m 508 74 l 508 326 q 419 339 463 335 q 335 343 376 343 q 188 308 238 343 q 138 197 138 272 q 184 84 138 121 q 322 47 231 47 q 421 54 375 47 q 508 74 467 61 m 133 622 l 128 688 q 216 701 168 696 q 315 706 264 706 q 463 683 403 706 q 553 615 522 661 q 585 494 585 568 l 585 28 q 494 6 540 15 q 406 -10 449 -4 q 321 -15 363 -15 q 180 8 238 -15 q 92 78 122 31 q 63 201 63 126 q 94 317 63 272 q 183 382 125 361 q 325 403 242 403 q 415 399 369 403 q 508 385 461 394 l 508 490 q 460 604 508 568 q 313 640 411 640 q 221 635 267 640 q 133 622 175 631 m 378 1014 l 464 1014 l 319 790 l 253 790 l 378 1014 z "},"â":{"ha":700,"x_min":63,"x_max":585,"o":"m 508 74 l 508 326 q 419 339 463 335 q 335 343 376 343 q 188 308 238 343 q 138 197 138 272 q 184 84 138 121 q 322 47 231 47 q 421 54 375 47 q 508 74 467 61 m 133 622 l 128 688 q 216 701 168 696 q 315 706 264 706 q 463 683 403 706 q 553 615 522 661 q 585 494 585 568 l 585 28 q 494 6 540 15 q 406 -10 449 -4 q 321 -15 363 -15 q 180 8 238 -15 q 92 78 122 31 q 63 201 63 126 q 94 317 63 272 q 183 382 125 361 q 325 403 242 403 q 415 399 369 403 q 508 385 461 394 l 508 490 q 460 604 508 568 q 313 640 411 640 q 221 635 267 640 q 133 622 175 631 m 303 1014 l 375 1014 l 513 790 l 439 790 l 339 961 l 239 790 l 165 790 l 303 1014 z "},"ä":{"ha":700,"x_min":63,"x_max":585,"o":"m 508 74 l 508 326 q 419 339 463 335 q 335 343 376 343 q 188 308 238 343 q 138 197 138 272 q 184 84 138 121 q 322 47 231 47 q 421 54 375 47 q 508 74 467 61 m 133 622 l 128 688 q 216 701 168 696 q 315 706 264 706 q 463 683 403 706 q 553 615 522 661 q 585 494 585 568 l 585 28 q 494 6 540 15 q 406 -10 449 -4 q 321 -15 363 -15 q 180 8 238 -15 q 92 78 122 31 q 63 201 63 126 q 94 317 63 272 q 183 382 125 361 q 325 403 242 403 q 415 399 369 403 q 508 385 461 394 l 508 490 q 460 604 508 568 q 313 640 411 640 q 221 635 267 640 q 133 622 175 631 m 281 910 q 267 872 281 885 q 231 860 254 860 q 194 872 208 860 q 181 910 181 885 q 194 948 181 935 q 231 961 208 961 q 267 948 254 961 q 281 910 281 935 m 497 910 q 484 872 497 885 q 447 860 471 860 q 410 872 424 860 q 397 910 397 885 q 411 948 397 935 q 447 961 425 961 q 484 948 471 961 q 497 910 497 935 z "},"à":{"ha":700,"x_min":63,"x_max":585,"o":"m 508 74 l 508 326 q 419 339 463 335 q 335 343 376 343 q 188 308 238 343 q 138 197 138 272 q 184 84 138 121 q 322 47 231 47 q 421 54 375 47 q 508 74 467 61 m 133 622 l 128 688 q 216 701 168 696 q 315 706 264 706 q 463 683 403 706 q 553 615 522 661 q 585 494 585 568 l 585 28 q 494 6 540 15 q 406 -10 449 -4 q 321 -15 363 -15 q 180 8 238 -15 q 92 78 122 31 q 63 201 63 126 q 94 317 63 272 q 183 382 125 361 q 325 403 242 403 q 415 399 369 403 q 508 385 461 394 l 508 490 q 460 604 508 568 q 313 640 411 640 q 221 635 267 640 q 133 622 175 631 m 163 1014 l 249 1014 l 375 790 l 308 790 l 163 1014 z "},"å":{"ha":700,"x_min":63,"x_max":585,"o":"m 508 74 l 508 326 q 419 339 463 335 q 335 343 376 343 q 188 308 238 343 q 138 197 138 272 q 184 84 138 121 q 322 47 231 47 q 421 54 375 47 q 508 74 467 61 m 133 622 l 128 688 q 216 701 168 696 q 315 706 264 706 q 463 683 403 706 q 553 615 522 661 q 585 494 585 568 l 585 28 q 494 6 540 15 q 406 -10 449 -4 q 321 -15 363 -15 q 180 8 238 -15 q 92 78 122 31 q 63 201 63 126 q 94 317 63 272 q 183 382 125 361 q 325 403 242 403 q 415 399 369 403 q 508 385 461 394 l 508 490 q 460 604 508 568 q 313 640 411 640 q 221 635 267 640 q 133 622 175 631 m 338 969 q 283 953 303 969 q 263 903 263 938 q 283 852 263 868 q 338 836 303 836 q 394 852 374 836 q 414 903 414 868 q 394 953 414 938 q 338 969 374 969 m 338 1018 q 434 988 399 1018 q 469 903 469 957 q 434 817 469 847 q 338 786 399 786 q 242 817 278 786 q 206 903 206 847 q 242 988 206 957 q 338 1018 278 1018 z "},"ã":{"ha":700,"x_min":63,"x_max":585,"o":"m 508 74 l 508 326 q 419 339 463 335 q 335 343 376 343 q 188 308 238 343 q 138 197 138 272 q 184 84 138 121 q 322 47 231 47 q 421 54 375 47 q 508 74 467 61 m 133 622 l 128 688 q 216 701 168 696 q 315 706 264 706 q 463 683 403 706 q 553 615 522 661 q 585 494 585 568 l 585 28 q 494 6 540 15 q 406 -10 449 -4 q 321 -15 363 -15 q 180 8 238 -15 q 92 78 122 31 q 63 201 63 126 q 94 317 63 272 q 183 382 125 361 q 325 403 242 403 q 415 399 369 403 q 508 385 461 394 l 508 490 q 460 604 508 568 q 313 640 411 640 q 221 635 267 640 q 133 622 175 631 m 192 839 l 135 861 q 171 929 146 901 q 244 957 196 957 q 307 943 274 957 q 372 915 340 929 q 424 901 403 901 q 466 919 454 901 q 483 958 478 936 l 542 938 q 504 867 529 896 q 431 839 479 839 q 369 853 403 839 q 306 882 336 868 q 253 896 275 896 q 211 878 224 896 q 192 839 199 861 z "},"ă":{"ha":700,"x_min":63,"x_max":585,"o":"m 508 74 l 508 326 q 419 339 463 335 q 335 343 376 343 q 188 308 238 343 q 138 197 138 272 q 184 84 138 121 q 322 47 231 47 q 421 54 375 47 q 508 74 467 61 m 133 622 l 128 688 q 216 701 168 696 q 315 706 264 706 q 463 683 403 706 q 553 615 522 661 q 585 494 585 568 l 585 28 q 494 6 540 15 q 406 -10 449 -4 q 321 -15 363 -15 q 180 8 238 -15 q 92 78 122 31 q 63 201 63 126 q 94 317 63 272 q 183 382 125 361 q 325 403 242 403 q 415 399 369 403 q 508 385 461 394 l 508 490 q 460 604 508 568 q 313 640 411 640 q 221 635 267 640 q 133 622 175 631 m 147 965 l 214 965 q 248 880 217 906 q 339 854 279 854 q 431 880 400 854 q 464 965 463 906 l 531 965 q 479 837 529 879 q 339 794 429 794 q 199 837 249 794 q 147 965 149 879 z "},"ā":{"ha":700,"x_min":63,"x_max":585,"o":"m 508 74 l 508 326 q 419 339 463 335 q 335 343 376 343 q 188 308 238 343 q 138 197 138 272 q 184 84 138 121 q 322 47 231 47 q 421 54 375 47 q 508 74 467 61 m 133 622 l 128 688 q 216 701 168 696 q 315 706 264 706 q 463 683 403 706 q 553 615 522 661 q 585 494 585 568 l 585 28 q 494 6 540 15 q 406 -10 449 -4 q 321 -15 363 -15 q 180 8 238 -15 q 92 78 122 31 q 63 201 63 126 q 94 317 63 272 q 183 382 125 361 q 325 403 242 403 q 415 399 369 403 q 508 385 461 394 l 508 490 q 460 604 508 568 q 313 640 411 640 q 221 635 267 640 q 133 622 175 631 m 175 926 l 503 926 l 503 865 l 175 865 l 175 926 z "},"ą":{"ha":700,"x_min":63,"x_max":597,"o":"m 589 -144 l 597 -197 q 565 -206 583 -203 q 528 -210 547 -210 q 455 -189 485 -210 q 425 -122 425 -168 q 442 -60 425 -89 q 481 -10 458 -32 q 521 28 503 13 l 585 28 q 544 -10 567 11 q 506 -57 522 -32 q 490 -110 490 -82 q 503 -144 490 -135 q 538 -154 517 -154 q 565 -151 553 -154 q 589 -144 578 -149 m 508 74 l 508 326 q 419 339 463 335 q 335 343 376 343 q 188 308 238 343 q 138 197 138 272 q 184 84 138 121 q 322 47 231 47 q 421 54 375 47 q 508 74 467 61 m 133 622 l 128 688 q 216 701 168 696 q 315 706 264 706 q 463 683 403 706 q 553 615 522 661 q 585 494 585 568 l 585 28 q 494 6 540 15 q 406 -10 449 -4 q 321 -15 363 -15 q 180 8 238 -15 q 92 78 122 31 q 63 201 63 126 q 94 317 63 272 q 183 382 125 361 q 325 403 242 403 q 415 399 369 403 q 508 385 461 394 l 508 490 q 460 604 508 568 q 313 640 411 640 q 221 635 267 640 q 133 622 175 631 z "},"ǻ":{"ha":700,"x_min":63,"x_max":585,"o":"m 479 900 q 444 819 479 849 q 347 789 408 789 q 252 819 288 789 q 217 900 217 849 q 242 973 217 944 q 314 1010 268 1001 l 399 1154 l 478 1154 l 379 1008 q 453 973 426 1001 q 479 900 479 944 m 424 900 q 403 949 424 932 q 347 967 383 967 q 292 949 313 967 q 272 900 272 932 q 292 851 272 868 q 347 835 313 835 q 403 851 383 835 q 424 900 424 868 m 508 74 l 508 326 q 419 339 463 335 q 335 343 376 343 q 188 308 238 343 q 138 197 138 272 q 184 84 138 121 q 322 47 231 47 q 421 54 375 47 q 508 74 467 61 m 133 622 l 128 688 q 216 701 168 696 q 315 706 264 706 q 463 683 403 706 q 553 615 522 661 q 585 494 585 568 l 585 28 q 494 6 540 15 q 406 -10 449 -4 q 321 -15 363 -15 q 180 8 238 -15 q 92 78 122 31 q 63 201 63 126 q 94 317 63 272 q 183 382 125 361 q 325 403 242 403 q 415 399 369 403 q 508 385 461 394 l 508 490 q 460 604 508 568 q 313 640 411 640 q 221 635 267 640 q 133 622 175 631 z "},"ç":{"ha":629,"x_min":85,"x_max":585,"o":"m 581 689 l 571 621 q 492 633 531 629 q 417 638 454 638 q 276 607 332 638 q 191 512 219 576 q 163 346 163 447 q 226 125 163 197 q 419 53 289 53 q 494 59 456 53 q 576 75 532 65 l 585 8 q 494 -9 539 -3 q 411 -15 450 -15 q 233 24 306 -15 q 122 142 160 63 q 85 344 85 222 q 123 549 85 469 q 235 667 161 629 q 415 706 308 706 q 498 701 456 706 q 581 689 540 697 m 322 -58 l 385 -58 q 417 -117 401 -85 q 432 -179 432 -149 q 403 -249 432 -226 q 324 -271 374 -271 q 278 -268 303 -271 q 235 -257 254 -265 l 243 -204 q 278 -212 258 -208 q 314 -215 297 -215 q 353 -206 340 -215 q 367 -169 367 -196 q 352 -114 367 -144 q 322 -58 338 -83 z "},"ć":{"ha":629,"x_min":85,"x_max":585,"o":"m 581 689 l 571 621 q 492 633 531 629 q 417 638 454 638 q 276 607 332 638 q 191 512 219 576 q 163 346 163 447 q 226 125 163 197 q 419 53 289 53 q 494 59 456 53 q 576 75 532 65 l 585 8 q 494 -9 539 -3 q 411 -15 450 -15 q 233 24 306 -15 q 122 142 160 63 q 85 344 85 222 q 123 549 85 469 q 235 667 161 629 q 415 706 308 706 q 498 701 456 706 q 581 689 540 697 m 435 1014 l 521 1014 l 376 790 l 310 790 l 435 1014 z "},"č":{"ha":629,"x_min":85,"x_max":585,"o":"m 581 689 l 571 621 q 492 633 531 629 q 417 638 454 638 q 276 607 332 638 q 191 512 219 576 q 163 346 163 447 q 226 125 163 197 q 419 53 289 53 q 494 59 456 53 q 576 75 532 65 l 585 8 q 494 -9 539 -3 q 411 -15 450 -15 q 233 24 306 -15 q 122 142 160 63 q 85 344 85 222 q 123 549 85 469 q 235 667 161 629 q 415 706 308 706 q 498 701 456 706 q 581 689 540 697 m 360 790 l 222 1014 l 296 1014 l 396 843 l 496 1014 l 569 1014 l 432 790 l 360 790 z "},"ĉ":{"ha":629,"x_min":85,"x_max":585,"o":"m 581 689 l 571 621 q 492 633 531 629 q 417 638 454 638 q 276 607 332 638 q 191 512 219 576 q 163 346 163 447 q 226 125 163 197 q 419 53 289 53 q 494 59 456 53 q 576 75 532 65 l 585 8 q 494 -9 539 -3 q 411 -15 450 -15 q 233 24 306 -15 q 122 142 160 63 q 85 344 85 222 q 123 549 85 469 q 235 667 161 629 q 415 706 308 706 q 498 701 456 706 q 581 689 540 697 m 360 1014 l 432 1014 l 569 790 l 496 790 l 396 961 l 296 790 l 222 790 l 360 1014 z "},"ċ":{"ha":629,"x_min":85,"x_max":585,"o":"m 581 689 l 571 621 q 492 633 531 629 q 417 638 454 638 q 276 607 332 638 q 191 512 219 576 q 163 346 163 447 q 226 125 163 197 q 419 53 289 53 q 494 59 456 53 q 576 75 532 65 l 585 8 q 494 -9 539 -3 q 411 -15 450 -15 q 233 24 306 -15 q 122 142 160 63 q 85 344 85 222 q 123 549 85 469 q 235 667 161 629 q 415 706 308 706 q 498 701 456 706 q 581 689 540 697 m 451 910 q 436 870 451 883 q 396 857 421 857 q 355 870 369 857 q 340 910 340 883 q 356 948 340 935 q 396 961 371 961 q 436 948 421 961 q 451 910 451 935 z "},"ď":{"ha":936,"x_min":86,"x_max":915,"o":"m 660 1014 l 660 28 q 522 -4 589 7 q 393 -15 456 -15 q 226 24 294 -15 q 122 142 157 63 q 86 344 86 222 q 122 549 86 469 q 224 667 157 629 q 386 706 290 706 q 483 699 431 706 q 582 679 536 692 l 582 1014 l 660 1014 m 582 79 l 582 610 q 481 631 528 625 q 392 638 435 638 q 221 566 278 638 q 164 344 164 494 q 190 180 164 244 q 267 85 215 115 q 394 54 318 54 q 488 60 439 54 q 582 79 536 65 m 835 1014 l 915 1014 l 804 718 l 740 718 l 835 1014 z "},"đ":{"ha":793,"x_min":81,"x_max":776,"o":"m 361 843 l 361 901 l 776 901 l 776 843 l 361 843 m 654 1014 l 654 28 q 517 -4 583 7 q 388 -15 450 -15 q 220 24 289 -15 q 116 142 151 63 q 81 344 81 222 q 116 549 81 469 q 218 667 151 629 q 381 706 285 706 q 478 699 425 706 q 576 679 531 692 l 576 1014 l 654 1014 m 576 79 l 576 610 q 476 631 522 625 q 386 638 429 638 q 215 566 272 638 q 158 344 158 494 q 184 180 158 244 q 261 85 210 115 q 389 54 313 54 q 482 60 433 54 q 576 79 531 65 z "},"é":{"ha":732,"x_min":85,"x_max":660,"o":"m 660 336 l 163 336 q 230 124 164 193 q 433 56 296 56 q 499 58 465 56 q 567 67 532 61 q 633 79 601 72 l 640 10 q 535 -8 589 -1 q 426 -15 481 -15 q 239 23 315 -15 q 124 142 163 61 q 85 346 85 222 q 119 549 85 469 q 220 667 153 629 q 386 706 288 706 q 541 669 481 706 q 631 564 601 633 q 660 393 660 494 l 660 336 m 164 399 l 585 399 q 536 579 585 518 q 383 640 488 640 q 224 579 278 640 q 164 399 169 518 m 414 1014 l 500 1014 l 356 790 l 289 790 l 414 1014 z "},"ê":{"ha":732,"x_min":85,"x_max":660,"o":"m 660 336 l 163 336 q 230 124 164 193 q 433 56 296 56 q 499 58 465 56 q 567 67 532 61 q 633 79 601 72 l 640 10 q 535 -8 589 -1 q 426 -15 481 -15 q 239 23 315 -15 q 124 142 163 61 q 85 346 85 222 q 119 549 85 469 q 220 667 153 629 q 386 706 288 706 q 541 669 481 706 q 631 564 601 633 q 660 393 660 494 l 660 336 m 164 399 l 585 399 q 536 579 585 518 q 383 640 488 640 q 224 579 278 640 q 164 399 169 518 m 339 1014 l 411 1014 l 549 790 l 475 790 l 375 961 l 275 790 l 201 790 l 339 1014 z "},"ë":{"ha":732,"x_min":85,"x_max":660,"o":"m 660 336 l 163 336 q 230 124 164 193 q 433 56 296 56 q 499 58 465 56 q 567 67 532 61 q 633 79 601 72 l 640 10 q 535 -8 589 -1 q 426 -15 481 -15 q 239 23 315 -15 q 124 142 163 61 q 85 346 85 222 q 119 549 85 469 q 220 667 153 629 q 386 706 288 706 q 541 669 481 706 q 631 564 601 633 q 660 393 660 494 l 660 336 m 164 399 l 585 399 q 536 579 585 518 q 383 640 488 640 q 224 579 278 640 q 164 399 169 518 m 317 910 q 303 872 317 885 q 267 860 290 860 q 231 872 244 860 q 217 910 217 885 q 231 948 217 935 q 267 961 244 961 q 303 948 290 961 q 317 910 317 935 m 533 910 q 520 872 533 885 q 483 860 507 860 q 447 872 460 860 q 433 910 433 885 q 447 948 433 935 q 483 961 461 961 q 520 948 507 961 q 533 910 533 935 z "},"è":{"ha":732,"x_min":85,"x_max":660,"o":"m 660 336 l 163 336 q 230 124 164 193 q 433 56 296 56 q 499 58 465 56 q 567 67 532 61 q 633 79 601 72 l 640 10 q 535 -8 589 -1 q 426 -15 481 -15 q 239 23 315 -15 q 124 142 163 61 q 85 346 85 222 q 119 549 85 469 q 220 667 153 629 q 386 706 288 706 q 541 669 481 706 q 631 564 601 633 q 660 393 660 494 l 660 336 m 164 399 l 585 399 q 536 579 585 518 q 383 640 488 640 q 224 579 278 640 q 164 399 169 518 m 199 1014 l 285 1014 l 411 790 l 344 790 l 199 1014 z "},"ĕ":{"ha":732,"x_min":85,"x_max":660,"o":"m 660 336 l 163 336 q 230 124 164 193 q 433 56 296 56 q 499 58 465 56 q 567 67 532 61 q 633 79 601 72 l 640 10 q 535 -8 589 -1 q 426 -15 481 -15 q 239 23 315 -15 q 124 142 163 61 q 85 346 85 222 q 119 549 85 469 q 220 667 153 629 q 386 706 288 706 q 541 669 481 706 q 631 564 601 633 q 660 393 660 494 l 660 336 m 164 399 l 585 399 q 536 579 585 518 q 383 640 488 640 q 224 579 278 640 q 164 399 169 518 m 183 965 l 250 965 q 284 880 253 906 q 375 854 315 854 q 467 880 436 854 q 500 965 499 906 l 567 965 q 515 837 565 879 q 375 794 465 794 q 235 837 285 794 q 183 965 185 879 z "},"ě":{"ha":732,"x_min":85,"x_max":660,"o":"m 660 336 l 163 336 q 230 124 164 193 q 433 56 296 56 q 499 58 465 56 q 567 67 532 61 q 633 79 601 72 l 640 10 q 535 -8 589 -1 q 426 -15 481 -15 q 239 23 315 -15 q 124 142 163 61 q 85 346 85 222 q 119 549 85 469 q 220 667 153 629 q 386 706 288 706 q 541 669 481 706 q 631 564 601 633 q 660 393 660 494 l 660 336 m 164 399 l 585 399 q 536 579 585 518 q 383 640 488 640 q 224 579 278 640 q 164 399 169 518 m 339 790 l 201 1014 l 275 1014 l 375 843 l 475 1014 l 549 1014 l 411 790 l 339 790 z "},"ė":{"ha":732,"x_min":85,"x_max":660,"o":"m 660 336 l 163 336 q 230 124 164 193 q 433 56 296 56 q 499 58 465 56 q 567 67 532 61 q 633 79 601 72 l 640 10 q 535 -8 589 -1 q 426 -15 481 -15 q 239 23 315 -15 q 124 142 163 61 q 85 346 85 222 q 119 549 85 469 q 220 667 153 629 q 386 706 288 706 q 541 669 481 706 q 631 564 601 633 q 660 393 660 494 l 660 336 m 164 399 l 585 399 q 536 579 585 518 q 383 640 488 640 q 224 579 278 640 q 164 399 169 518 m 431 910 q 415 870 431 883 q 375 857 400 857 q 334 870 349 857 q 319 910 319 883 q 335 948 319 935 q 375 961 350 961 q 415 948 400 961 q 431 910 431 935 z "},"ē":{"ha":732,"x_min":85,"x_max":660,"o":"m 660 336 l 163 336 q 230 124 164 193 q 433 56 296 56 q 499 58 465 56 q 567 67 532 61 q 633 79 601 72 l 640 10 q 535 -8 589 -1 q 426 -15 481 -15 q 239 23 315 -15 q 124 142 163 61 q 85 346 85 222 q 119 549 85 469 q 220 667 153 629 q 386 706 288 706 q 541 669 481 706 q 631 564 601 633 q 660 393 660 494 l 660 336 m 164 399 l 585 399 q 536 579 585 518 q 383 640 488 640 q 224 579 278 640 q 164 399 169 518 m 211 926 l 539 926 l 539 865 l 211 865 l 211 926 z "},"ę":{"ha":732,"x_min":85,"x_max":660,"o":"m 643 -162 l 651 -215 q 620 -224 638 -221 q 585 -228 603 -228 q 512 -206 542 -228 q 482 -137 482 -185 q 498 -77 482 -104 q 536 -28 514 -50 q 576 10 558 -6 l 640 10 q 600 -28 622 -7 q 562 -74 578 -50 q 546 -125 546 -97 q 560 -162 546 -151 q 594 -172 574 -172 q 620 -169 608 -172 q 643 -162 632 -167 m 660 336 l 163 336 q 230 124 164 193 q 433 56 296 56 q 499 58 465 56 q 567 67 532 61 q 633 79 601 72 l 640 10 q 535 -8 589 -1 q 426 -15 481 -15 q 239 23 315 -15 q 124 142 163 61 q 85 346 85 222 q 119 549 85 469 q 220 667 153 629 q 386 706 288 706 q 541 669 481 706 q 631 564 601 633 q 660 393 660 494 l 660 336 m 164 399 l 585 399 q 536 579 585 518 q 383 640 488 640 q 224 579 278 640 q 164 399 169 518 z "},"ǽ":{"ha":1132,"x_min":63,"x_max":1060,"o":"m 133 622 l 128 688 q 216 701 168 696 q 315 706 264 706 q 473 673 414 706 q 551 572 532 640 q 643 673 583 640 q 792 706 703 706 q 943 669 883 706 q 1031 564 1003 633 q 1060 393 1060 494 l 1060 336 l 574 336 q 599 178 576 240 q 676 85 621 115 q 833 56 731 56 q 899 58 865 56 q 967 67 932 61 q 1033 81 1001 74 l 1040 11 q 935 -8 990 -1 q 826 -15 881 -15 q 690 4 749 -15 q 594 63 631 24 q 465 7 529 29 q 321 -15 400 -15 q 180 8 238 -15 q 92 78 122 31 q 63 201 63 126 q 94 317 63 272 q 184 382 125 361 q 325 403 243 403 q 411 398 368 403 q 501 385 454 393 l 501 490 q 454 604 501 568 q 313 640 407 640 q 221 635 267 640 q 133 622 175 629 m 575 399 l 985 399 q 938 579 985 518 q 789 640 892 640 q 629 578 685 640 q 575 399 574 515 m 549 111 q 515 203 526 147 q 501 326 504 260 q 417 339 458 335 q 335 343 375 343 q 188 308 238 343 q 138 197 138 272 q 184 84 138 121 q 322 47 231 47 q 444 66 386 47 q 549 111 501 85 m 636 1014 l 722 1014 l 578 790 l 511 790 l 636 1014 z "},"ğ":{"ha":783,"x_min":86,"x_max":658,"o":"m 582 -39 l 582 15 q 483 -3 536 4 q 386 -11 431 -11 q 223 27 290 -11 q 121 144 156 65 q 86 347 86 224 q 122 550 86 471 q 226 667 157 629 q 393 706 294 706 q 522 694 454 706 q 658 664 589 683 l 658 -31 q 626 -168 658 -114 q 532 -249 594 -222 q 378 -276 469 -276 q 258 -267 317 -276 q 146 -240 200 -257 l 156 -174 q 227 -192 192 -185 q 300 -203 263 -200 q 376 -207 338 -207 q 532 -163 482 -207 q 582 -39 582 -119 m 582 613 q 487 631 535 625 q 393 638 439 638 q 267 607 318 638 q 190 513 215 576 q 164 347 164 449 q 221 128 164 199 q 392 57 278 57 q 481 64 435 57 q 582 85 526 71 l 582 613 m 217 965 l 283 965 q 317 880 286 906 q 408 854 349 854 q 501 880 469 854 q 533 965 532 906 l 600 965 q 549 837 599 879 q 408 794 499 794 q 268 837 318 794 q 217 965 218 879 z "},"ĝ":{"ha":783,"x_min":86,"x_max":658,"o":"m 582 -39 l 582 15 q 483 -3 536 4 q 386 -11 431 -11 q 223 27 290 -11 q 121 144 156 65 q 86 347 86 224 q 122 550 86 471 q 226 667 157 629 q 393 706 294 706 q 522 694 454 706 q 658 664 589 683 l 658 -31 q 626 -168 658 -114 q 532 -249 594 -222 q 378 -276 469 -276 q 258 -267 317 -276 q 146 -240 200 -257 l 156 -174 q 227 -192 192 -185 q 300 -203 263 -200 q 376 -207 338 -207 q 532 -163 482 -207 q 582 -39 582 -119 m 582 613 q 487 631 535 625 q 393 638 439 638 q 267 607 318 638 q 190 513 215 576 q 164 347 164 449 q 221 128 164 199 q 392 57 278 57 q 481 64 435 57 q 582 85 526 71 l 582 613 m 372 1014 l 444 1014 l 582 790 l 508 790 l 408 961 l 308 790 l 235 790 l 372 1014 z "},"ģ":{"ha":783,"x_min":86,"x_max":658,"o":"m 582 -39 l 582 15 q 483 -3 536 4 q 386 -11 431 -11 q 223 27 290 -11 q 121 144 156 65 q 86 347 86 224 q 122 550 86 471 q 226 667 157 629 q 393 706 294 706 q 522 694 454 706 q 658 664 589 683 l 658 -31 q 626 -168 658 -114 q 532 -249 594 -222 q 378 -276 469 -276 q 258 -267 317 -276 q 146 -240 200 -257 l 156 -174 q 227 -192 192 -185 q 300 -203 263 -200 q 376 -207 338 -207 q 532 -163 482 -207 q 582 -39 582 -119 m 582 613 q 487 631 535 625 q 393 638 439 638 q 267 607 318 638 q 190 513 215 576 q 164 347 164 449 q 221 128 164 199 q 392 57 278 57 q 481 64 435 57 q 582 85 526 71 l 582 613 m 469 1006 l 549 1006 l 424 808 l 360 808 l 469 1006 z "},"ġ":{"ha":783,"x_min":86,"x_max":658,"o":"m 582 -39 l 582 15 q 483 -3 536 4 q 386 -11 431 -11 q 223 27 290 -11 q 121 144 156 65 q 86 347 86 224 q 122 550 86 471 q 226 667 157 629 q 393 706 294 706 q 522 694 454 706 q 658 664 589 683 l 658 -31 q 626 -168 658 -114 q 532 -249 594 -222 q 378 -276 469 -276 q 258 -267 317 -276 q 146 -240 200 -257 l 156 -174 q 227 -192 192 -185 q 300 -203 263 -200 q 376 -207 338 -207 q 532 -163 482 -207 q 582 -39 582 -119 m 582 613 q 487 631 535 625 q 393 638 439 638 q 267 607 318 638 q 190 513 215 576 q 164 347 164 449 q 221 128 164 199 q 392 57 278 57 q 481 64 435 57 q 582 85 526 71 l 582 613 m 464 910 q 449 870 464 883 q 408 857 433 857 q 367 870 382 857 q 353 910 353 883 q 368 948 353 935 q 408 961 383 961 q 449 948 433 961 q 464 910 464 935 z "},"ħ":{"ha":806,"x_min":17,"x_max":699,"o":"m 433 843 l 17 843 l 17 901 l 433 901 l 433 843 m 217 0 l 140 0 l 140 1014 l 217 1014 l 217 679 q 319 699 267 693 q 424 706 371 706 q 565 685 503 706 q 663 614 628 664 q 699 476 699 564 l 699 0 l 621 0 l 621 465 q 594 571 621 533 q 522 624 568 608 q 415 639 475 639 q 314 631 368 639 q 217 610 260 622 l 217 0 z "},"ĥ":{"ha":804,"x_min":124,"x_max":683,"o":"m 201 0 l 124 0 l 124 1014 l 201 1014 l 201 679 q 303 699 251 693 q 408 706 354 706 q 550 685 488 706 q 648 614 613 664 q 683 476 683 564 l 683 0 l 606 0 l 606 465 q 579 571 606 533 q 506 624 553 608 q 400 639 460 639 q 298 631 353 639 q 201 610 243 622 l 201 0 m 367 1293 l 439 1293 l 576 1069 l 503 1069 l 403 1240 l 303 1069 l 229 1069 l 367 1293 z "},"í":{"ha":321,"x_min":119,"x_max":331,"o":"m 122 692 l 199 692 l 199 0 l 122 0 l 122 692 m 244 1014 l 331 1014 l 186 790 l 119 790 l 244 1014 z "},"î":{"ha":325,"x_min":-11,"x_max":336,"o":"m 125 692 l 201 692 l 201 0 l 125 0 l 125 692 m 126 1014 l 199 1014 l 336 790 l 263 790 l 163 961 l 63 790 l -11 790 l 126 1014 z "},"ï":{"ha":321,"x_min":4,"x_max":321,"o":"m 122 692 l 199 692 l 199 0 l 122 0 l 122 692 m 104 910 q 91 872 104 885 q 54 860 78 860 q 18 872 32 860 q 4 910 4 885 q 18 948 4 935 q 54 961 32 961 q 91 948 78 961 q 104 910 104 935 m 321 910 q 308 872 321 885 q 271 860 294 860 q 234 872 247 860 q 221 910 221 885 q 235 948 221 935 q 271 961 249 961 q 308 948 294 961 q 321 910 321 935 z "},"ì":{"ha":321,"x_min":-14,"x_max":199,"o":"m 122 692 l 199 692 l 199 0 l 122 0 l 122 692 m -14 1014 l 72 1014 l 199 790 l 132 790 l -14 1014 z "},"ĭ":{"ha":321,"x_min":-29,"x_max":354,"o":"m 122 692 l 199 692 l 199 0 l 122 0 l 122 692 m -29 965 l 38 965 q 72 880 40 906 q 163 854 103 854 q 255 880 224 854 q 288 965 286 906 l 354 965 q 303 837 353 879 q 163 794 253 794 q 22 837 72 794 q -29 965 -28 879 z "},"ī":{"ha":321,"x_min":-1,"x_max":326,"o":"m 122 692 l 199 692 l 199 0 l 122 0 l 122 692 m -1 926 l 326 926 l 326 865 l -1 865 l -1 926 z "},"į":{"ha":321,"x_min":68,"x_max":265,"o":"m 124 692 l 201 692 l 201 0 l 124 0 l 124 692 m 217 913 q 202 873 217 886 q 163 860 188 860 q 123 873 138 860 q 108 913 108 886 q 123 951 108 939 q 163 964 138 964 q 202 951 188 964 q 217 913 217 939 m 258 -172 l 265 -225 q 228 -235 250 -231 q 183 -239 206 -239 q 102 -215 136 -239 q 68 -140 68 -192 q 92 -56 68 -92 q 138 0 115 -19 l 201 0 q 156 -55 179 -21 q 132 -128 132 -89 q 149 -170 132 -158 q 193 -182 167 -182 q 228 -180 213 -182 q 258 -172 244 -178 z "},"ĩ":{"ha":321,"x_min":-42,"x_max":365,"o":"m 122 692 l 199 692 l 199 0 l 122 0 l 122 692 m 15 839 l -42 861 q -6 929 -31 901 q 68 957 19 957 q 131 943 97 957 q 195 915 164 929 q 247 901 226 901 q 290 919 278 901 q 307 958 301 936 l 365 938 q 328 867 353 896 q 254 839 303 839 q 193 853 226 839 q 129 882 160 868 q 76 896 99 896 q 35 878 47 896 q 15 839 22 861 z "},"ĵ":{"ha":314,"x_min":-37,"x_max":331,"o":"m 124 692 l 201 692 l 201 75 q 194 -26 201 17 q 165 -106 186 -69 q 104 -183 143 -143 q 3 -272 65 -222 l -37 -212 q 49 -134 17 -168 q 98 -70 82 -100 q 119 -6 114 -40 q 124 74 124 28 l 124 692 m 121 1014 l 193 1014 l 331 790 l 257 790 l 157 961 l 57 790 l -17 790 l 121 1014 z "},"ķ":{"ha":718,"x_min":124,"x_max":672,"o":"m 124 1014 l 201 1014 l 201 331 l 572 692 l 661 692 l 382 414 q 504 346 456 396 q 579 224 553 296 l 672 0 l 589 0 l 506 206 q 440 305 481 265 q 329 360 400 344 l 201 246 l 201 0 l 124 0 l 124 1014 m 360 -64 l 439 -64 l 314 -261 l 250 -261 l 360 -64 z "},"ĸ":{"ha":718,"x_min":124,"x_max":672,"o":"m 124 692 l 201 692 l 201 331 l 572 692 l 661 692 l 382 414 q 504 346 456 396 q 579 224 553 296 l 672 0 l 589 0 l 506 206 q 440 305 481 265 q 329 360 400 344 l 201 246 l 201 0 l 124 0 l 124 692 z "},"ĺ":{"ha":399,"x_min":124,"x_max":344,"o":"m 124 1014 l 201 1014 l 201 0 l 124 0 l 124 1014 m 258 1289 l 344 1289 l 200 1065 l 133 1065 l 258 1289 z "},"ľ":{"ha":478,"x_min":124,"x_max":457,"o":"m 124 1014 l 201 1014 l 201 0 l 124 0 l 124 1014 m 376 1014 l 457 1014 l 346 718 l 282 718 l 376 1014 z "},"ļ":{"ha":325,"x_min":7,"x_max":201,"o":"m 124 1014 l 201 1014 l 201 0 l 124 0 l 124 1014 m 117 -64 l 196 -64 l 71 -261 l 7 -261 l 117 -64 z "},"ŀ":{"ha":453,"x_min":124,"x_max":435,"o":"m 124 1014 l 201 1014 l 201 0 l 124 0 l 124 1014 m 435 482 q 419 444 435 457 q 379 431 404 431 q 338 444 353 431 q 324 482 324 457 q 339 520 324 507 q 379 533 354 533 q 419 520 404 533 q 435 482 435 507 z "},"ñ":{"ha":797,"x_min":124,"x_max":683,"o":"m 201 0 l 124 0 l 124 660 q 258 693 186 681 q 406 706 329 706 q 549 685 486 706 q 647 614 611 664 q 683 476 683 564 l 683 0 l 606 0 l 606 465 q 579 571 606 533 q 506 624 553 608 q 400 639 460 639 q 298 631 353 639 q 201 610 243 622 l 201 0 m 246 839 l 189 861 q 225 929 200 901 q 299 957 250 957 q 361 943 328 957 q 426 915 394 929 q 478 901 457 901 q 520 919 508 901 q 538 958 532 936 l 596 938 q 558 867 583 896 q 485 839 533 839 q 424 853 457 839 q 360 882 390 868 q 307 896 329 896 q 265 878 278 896 q 246 839 253 861 z "},"ń":{"ha":797,"x_min":124,"x_max":683,"o":"m 201 0 l 124 0 l 124 660 q 258 693 186 681 q 406 706 329 706 q 549 685 486 706 q 647 614 611 664 q 683 476 683 564 l 683 0 l 606 0 l 606 465 q 579 571 606 533 q 506 624 553 608 q 400 639 460 639 q 298 631 353 639 q 201 610 243 622 l 201 0 m 432 1014 l 518 1014 l 374 790 l 307 790 l 432 1014 z "},"ň":{"ha":797,"x_min":124,"x_max":683,"o":"m 201 0 l 124 0 l 124 660 q 258 693 186 681 q 406 706 329 706 q 549 685 486 706 q 647 614 611 664 q 683 476 683 564 l 683 0 l 606 0 l 606 465 q 579 571 606 533 q 506 624 553 608 q 400 639 460 639 q 298 631 353 639 q 201 610 243 622 l 201 0 m 357 790 l 219 1014 l 293 1014 l 393 843 l 493 1014 l 567 1014 l 429 790 l 357 790 z "},"ņ":{"ha":797,"x_min":124,"x_max":683,"o":"m 201 0 l 124 0 l 124 660 q 258 693 186 681 q 406 706 329 706 q 549 685 486 706 q 647 614 611 664 q 683 476 683 564 l 683 0 l 606 0 l 606 465 q 579 571 606 533 q 506 624 553 608 q 400 639 460 639 q 298 631 353 639 q 201 610 243 622 l 201 0 m 379 -64 l 458 -64 l 333 -261 l 269 -261 l 379 -64 z "},"ŋ":{"ha":797,"x_min":124,"x_max":683,"o":"m 201 0 l 124 0 l 124 660 q 258 693 186 681 q 406 706 329 706 q 549 685 486 706 q 647 614 611 664 q 683 476 683 564 l 683 75 q 675 -26 683 17 q 646 -106 667 -69 q 586 -183 625 -143 q 485 -272 547 -222 l 444 -212 q 531 -134 499 -168 q 579 -70 563 -100 q 601 -6 596 -40 q 606 74 606 28 l 606 465 q 579 571 606 533 q 506 624 553 608 q 400 639 460 639 q 298 631 353 639 q 201 610 243 622 l 201 0 z "},"ó":{"ha":783,"x_min":86,"x_max":696,"o":"m 696 346 q 619 74 696 163 q 390 -15 543 -15 q 163 74 239 -15 q 86 346 86 163 q 163 617 86 529 q 390 706 239 706 q 619 617 543 706 q 696 346 696 529 m 619 346 q 564 566 619 494 q 392 638 508 638 q 219 566 275 638 q 164 346 164 494 q 219 125 164 197 q 392 53 275 53 q 564 125 508 53 q 619 346 619 197 m 468 1014 l 554 1014 l 410 790 l 343 790 l 468 1014 z "},"ô":{"ha":783,"x_min":86,"x_max":696,"o":"m 696 346 q 619 74 696 163 q 390 -15 543 -15 q 163 74 239 -15 q 86 346 86 163 q 163 617 86 529 q 390 706 239 706 q 619 617 543 706 q 696 346 696 529 m 619 346 q 564 566 619 494 q 392 638 508 638 q 219 566 275 638 q 164 346 164 494 q 219 125 164 197 q 392 53 275 53 q 564 125 508 53 q 619 346 619 197 m 351 1014 l 424 1014 l 561 790 l 488 790 l 388 961 l 288 790 l 214 790 l 351 1014 z "},"ö":{"ha":783,"x_min":86,"x_max":696,"o":"m 696 346 q 619 74 696 163 q 390 -15 543 -15 q 163 74 239 -15 q 86 346 86 163 q 163 617 86 529 q 390 706 239 706 q 619 617 543 706 q 696 346 696 529 m 619 346 q 564 566 619 494 q 392 638 508 638 q 219 566 275 638 q 164 346 164 494 q 219 125 164 197 q 392 53 275 53 q 564 125 508 53 q 619 346 619 197 m 328 910 q 315 872 328 885 q 278 860 301 860 q 242 872 256 860 q 228 910 228 885 q 242 948 228 935 q 278 961 256 961 q 315 948 301 961 q 328 910 328 935 m 544 910 q 531 872 544 885 q 494 860 518 860 q 458 872 471 860 q 444 910 444 885 q 458 948 444 935 q 494 961 472 961 q 531 948 518 961 q 544 910 544 935 z "},"ò":{"ha":783,"x_min":86,"x_max":696,"o":"m 696 346 q 619 74 696 163 q 390 -15 543 -15 q 163 74 239 -15 q 86 346 86 163 q 163 617 86 529 q 390 706 239 706 q 619 617 543 706 q 696 346 696 529 m 619 346 q 564 566 619 494 q 392 638 508 638 q 219 566 275 638 q 164 346 164 494 q 219 125 164 197 q 392 53 275 53 q 564 125 508 53 q 619 346 619 197 m 226 1014 l 313 1014 l 439 790 l 372 790 l 226 1014 z "},"õ":{"ha":783,"x_min":86,"x_max":696,"o":"m 696 346 q 619 74 696 163 q 390 -15 543 -15 q 163 74 239 -15 q 86 346 86 163 q 163 617 86 529 q 390 706 239 706 q 619 617 543 706 q 696 346 696 529 m 619 346 q 564 566 619 494 q 392 638 508 638 q 219 566 275 638 q 164 346 164 494 q 219 125 164 197 q 392 53 275 53 q 564 125 508 53 q 619 346 619 197 m 235 839 l 178 861 q 214 929 189 901 q 288 957 239 957 q 350 943 317 957 q 415 915 383 929 q 467 901 446 901 q 509 919 497 901 q 526 958 521 936 l 585 938 q 547 867 572 896 q 474 839 522 839 q 413 853 446 839 q 349 882 379 868 q 296 896 318 896 q 254 878 267 896 q 235 839 242 861 z "},"ŏ":{"ha":783,"x_min":86,"x_max":696,"o":"m 696 346 q 619 74 696 163 q 390 -15 543 -15 q 163 74 239 -15 q 86 346 86 163 q 163 617 86 529 q 390 706 239 706 q 619 617 543 706 q 696 346 696 529 m 619 346 q 564 566 619 494 q 392 638 508 638 q 219 566 275 638 q 164 346 164 494 q 219 125 164 197 q 392 53 275 53 q 564 125 508 53 q 619 346 619 197 m 190 965 l 257 965 q 291 880 260 906 q 382 854 322 854 q 474 880 443 854 q 507 965 506 906 l 574 965 q 522 837 572 879 q 382 794 472 794 q 242 837 292 794 q 190 965 192 879 z "},"ő":{"ha":783,"x_min":86,"x_max":696,"o":"m 696 346 q 619 74 696 163 q 390 -15 543 -15 q 163 74 239 -15 q 86 346 86 163 q 163 617 86 529 q 390 706 239 706 q 619 617 543 706 q 696 346 696 529 m 619 346 q 564 566 619 494 q 392 638 508 638 q 219 566 275 638 q 164 346 164 494 q 219 125 164 197 q 392 53 275 53 q 564 125 508 53 q 619 346 619 197 m 347 1014 l 419 1014 l 329 790 l 272 790 l 347 1014 m 528 1014 l 603 1014 l 492 790 l 433 790 l 528 1014 z "},"ō":{"ha":783,"x_min":86,"x_max":696,"o":"m 696 346 q 619 74 696 163 q 390 -15 543 -15 q 163 74 239 -15 q 86 346 86 163 q 163 617 86 529 q 390 706 239 706 q 619 617 543 706 q 696 346 696 529 m 619 346 q 564 566 619 494 q 392 638 508 638 q 219 566 275 638 q 164 346 164 494 q 219 125 164 197 q 392 53 275 53 q 564 125 508 53 q 619 346 619 197 m 218 926 l 546 926 l 546 865 l 218 865 l 218 926 z "},"ǿ":{"ha":785,"x_min":88,"x_max":697,"o":"m 697 346 q 621 74 697 163 q 392 -15 544 -15 q 164 74 240 -15 q 88 346 88 163 q 164 617 88 529 q 392 706 240 706 q 621 617 544 706 q 697 346 697 529 m 622 346 q 566 566 622 494 q 393 638 510 638 q 219 566 275 638 q 164 346 164 494 q 219 126 164 197 q 393 54 275 54 q 566 126 510 54 q 622 346 622 197 m 146 -107 l 89 -74 l 640 799 l 696 765 l 146 -107 m 471 1014 l 557 1014 l 413 790 l 346 790 l 471 1014 z "},"ŕ":{"ha":479,"x_min":124,"x_max":450,"o":"m 450 706 l 450 638 q 311 629 374 638 q 201 607 249 621 l 201 0 l 124 0 l 124 660 q 283 694 204 683 q 450 706 363 706 m 340 1014 l 426 1014 l 282 790 l 215 790 l 340 1014 z "},"ř":{"ha":479,"x_min":124,"x_max":475,"o":"m 450 706 l 450 638 q 311 629 374 638 q 201 607 249 621 l 201 0 l 124 0 l 124 660 q 283 694 204 683 q 450 706 363 706 m 265 790 l 128 1014 l 201 1014 l 301 843 l 401 1014 l 475 1014 l 338 790 l 265 790 z "},"ŗ":{"ha":479,"x_min":6,"x_max":450,"o":"m 450 706 l 450 638 q 311 629 374 638 q 201 607 249 621 l 201 0 l 124 0 l 124 660 q 283 694 204 683 q 450 706 363 706 m 115 -64 l 194 -64 l 69 -261 l 6 -261 l 115 -64 z "},"š":{"ha":599,"x_min":63,"x_max":538,"o":"m 507 685 l 500 619 q 408 634 457 629 q 318 639 360 639 q 191 617 233 639 q 149 547 149 596 q 176 477 149 506 q 249 426 204 449 q 343 380 293 403 q 438 328 393 357 q 510 260 482 300 q 538 164 538 221 q 510 68 538 108 q 431 6 483 28 q 299 -15 378 -15 q 172 -3 235 -15 q 63 26 110 10 l 75 92 q 181 65 124 76 q 293 53 238 53 q 417 79 378 53 q 457 160 457 106 q 429 235 457 204 q 358 290 401 267 q 264 337 314 314 q 170 387 214 360 q 99 452 126 414 q 71 544 71 490 q 99 637 71 601 q 181 689 126 672 q 317 706 236 706 q 420 699 365 706 q 507 685 475 693 m 269 790 l 132 1014 l 206 1014 l 306 843 l 406 1014 l 479 1014 l 342 790 l 269 790 z "},"ś":{"ha":599,"x_min":63,"x_max":538,"o":"m 507 685 l 500 619 q 408 634 457 629 q 318 639 360 639 q 191 617 233 639 q 149 547 149 596 q 176 477 149 506 q 249 426 204 449 q 343 380 293 403 q 438 328 393 357 q 510 260 482 300 q 538 164 538 221 q 510 68 538 108 q 431 6 483 28 q 299 -15 378 -15 q 172 -3 235 -15 q 63 26 110 10 l 75 92 q 181 65 124 76 q 293 53 238 53 q 417 79 378 53 q 457 160 457 106 q 429 235 457 204 q 358 290 401 267 q 264 337 314 314 q 170 387 214 360 q 99 452 126 414 q 71 544 71 490 q 99 637 71 601 q 181 689 126 672 q 317 706 236 706 q 420 699 365 706 q 507 685 475 693 m 344 1014 l 431 1014 l 286 790 l 219 790 l 344 1014 z "},"ş":{"ha":599,"x_min":63,"x_max":538,"o":"m 507 685 l 500 619 q 408 634 457 629 q 318 639 360 639 q 191 617 233 639 q 149 547 149 596 q 176 477 149 506 q 249 426 204 449 q 343 380 293 403 q 438 328 393 357 q 510 260 482 300 q 538 164 538 221 q 510 68 538 108 q 431 6 483 28 q 299 -15 378 -15 q 172 -3 235 -15 q 63 26 110 10 l 75 92 q 181 65 124 76 q 293 53 238 53 q 417 79 378 53 q 457 160 457 106 q 429 235 457 204 q 358 290 401 267 q 264 337 314 314 q 170 387 214 360 q 99 452 126 414 q 71 544 71 490 q 99 637 71 601 q 181 689 126 672 q 317 706 236 706 q 420 699 365 706 q 507 685 475 693 m 265 -65 l 328 -65 q 360 -124 344 -92 q 375 -186 375 -156 q 346 -256 375 -233 q 267 -278 317 -278 q 222 -275 246 -278 q 178 -264 197 -272 l 186 -211 q 221 -219 201 -215 q 257 -222 240 -222 q 297 -212 283 -222 q 310 -176 310 -203 q 295 -121 310 -151 q 265 -65 281 -90 z "},"ŝ":{"ha":599,"x_min":63,"x_max":538,"o":"m 507 685 l 500 619 q 408 634 457 629 q 318 639 360 639 q 191 617 233 639 q 149 547 149 596 q 176 477 149 506 q 249 426 204 449 q 343 380 293 403 q 438 328 393 357 q 510 260 482 300 q 538 164 538 221 q 510 68 538 108 q 431 6 483 28 q 299 -15 378 -15 q 172 -3 235 -15 q 63 26 110 10 l 75 92 q 181 65 124 76 q 293 53 238 53 q 417 79 378 53 q 457 160 457 106 q 429 235 457 204 q 358 290 401 267 q 264 337 314 314 q 170 387 214 360 q 99 452 126 414 q 71 544 71 490 q 99 637 71 601 q 181 689 126 672 q 317 706 236 706 q 420 699 365 706 q 507 685 475 693 m 269 1014 l 342 1014 l 479 790 l 406 790 l 306 961 l 206 790 l 132 790 l 269 1014 z "},"ș":{"ha":599,"x_min":63,"x_max":538,"o":"m 507 685 l 500 619 q 408 634 457 629 q 318 639 360 639 q 191 617 233 639 q 149 547 149 596 q 176 477 149 506 q 249 426 204 449 q 343 380 293 403 q 438 328 393 357 q 510 260 482 300 q 538 164 538 221 q 510 68 538 108 q 431 6 483 28 q 299 -15 378 -15 q 172 -3 235 -15 q 63 26 110 10 l 75 92 q 181 65 124 76 q 293 53 238 53 q 417 79 378 53 q 457 160 457 106 q 429 235 457 204 q 358 290 401 267 q 264 337 314 314 q 170 387 214 360 q 99 452 126 414 q 71 544 71 490 q 99 637 71 601 q 181 689 126 672 q 317 706 236 706 q 420 699 365 706 q 507 685 475 693 m 260 -64 l 339 -64 l 214 -261 l 150 -261 l 260 -64 z "},"ţ":{"ha":500,"x_min":33,"x_max":460,"o":"m 167 851 l 224 851 l 224 692 l 432 692 l 432 624 l 224 624 l 224 150 q 256 76 224 96 q 336 56 289 56 q 398 61 365 56 q 456 75 431 67 l 460 7 q 395 -9 431 -3 q 325 -15 360 -15 q 199 22 250 -15 q 147 146 147 60 l 147 624 l 33 624 l 33 692 l 147 692 l 167 851 m 240 -64 l 319 -64 l 194 -261 l 131 -261 l 240 -64 z "},"ț":{"ha":500,"x_min":33,"x_max":460,"o":"m 167 851 l 224 851 l 224 692 l 432 692 l 432 624 l 224 624 l 224 150 q 256 76 224 96 q 336 56 289 56 q 398 61 365 56 q 456 75 431 67 l 460 7 q 395 -9 431 -3 q 325 -15 360 -15 q 199 22 250 -15 q 147 146 147 60 l 147 624 l 33 624 l 33 692 l 147 692 l 167 851 m 240 -64 l 319 -64 l 194 -261 l 131 -261 l 240 -64 z "},"ŧ":{"ha":525,"x_min":49,"x_max":475,"o":"m 49 351 l 49 414 l 419 414 l 419 351 l 49 351 m 182 851 l 240 851 l 240 692 l 447 692 l 447 624 l 240 624 l 240 150 q 273 76 240 96 q 351 56 306 56 q 415 61 382 56 q 471 75 447 67 l 475 7 q 410 -9 446 -3 q 340 -15 375 -15 q 215 22 267 -15 q 163 146 163 60 l 163 624 l 49 624 l 49 692 l 163 692 l 182 851 z "},"ť":{"ha":507,"x_min":33,"x_max":460,"o":"m 385 1014 l 460 1014 l 369 783 l 313 783 l 385 1014 m 167 851 l 224 851 l 224 692 l 432 692 l 432 624 l 224 624 l 224 150 q 256 76 224 96 q 336 56 289 56 q 398 61 365 56 q 456 75 431 67 l 460 7 q 395 -9 431 -3 q 325 -15 360 -15 q 199 22 250 -15 q 147 146 147 60 l 147 624 l 33 624 l 33 692 l 147 692 l 167 851 z "},"ú":{"ha":772,"x_min":114,"x_max":650,"o":"m 572 692 l 650 692 l 650 31 q 522 -2 590 11 q 381 -15 453 -15 q 244 6 304 -15 q 149 77 183 26 q 114 214 114 128 l 114 692 l 192 692 l 192 226 q 217 121 192 158 q 286 68 242 83 q 386 53 331 53 q 482 61 431 53 q 572 81 533 69 l 572 692 m 429 1014 l 515 1014 l 371 790 l 304 790 l 429 1014 z "},"û":{"ha":772,"x_min":114,"x_max":650,"o":"m 572 692 l 650 692 l 650 31 q 522 -2 590 11 q 381 -15 453 -15 q 244 6 304 -15 q 149 77 183 26 q 114 214 114 128 l 114 692 l 192 692 l 192 226 q 217 121 192 158 q 286 68 242 83 q 386 53 331 53 q 482 61 431 53 q 572 81 533 69 l 572 692 m 351 1014 l 424 1014 l 561 790 l 488 790 l 388 961 l 288 790 l 214 790 l 351 1014 z "},"ü":{"ha":772,"x_min":114,"x_max":650,"o":"m 572 692 l 650 692 l 650 31 q 522 -2 590 11 q 381 -15 453 -15 q 244 6 304 -15 q 149 77 183 26 q 114 214 114 128 l 114 692 l 192 692 l 192 226 q 217 121 192 158 q 286 68 242 83 q 386 53 331 53 q 482 61 431 53 q 572 81 533 69 l 572 692 m 332 910 q 319 872 332 885 q 282 860 306 860 q 246 872 260 860 q 232 910 232 885 q 246 948 232 935 q 282 961 260 961 q 319 948 306 961 q 332 910 332 935 m 549 910 q 535 872 549 885 q 499 860 522 860 q 462 872 475 860 q 449 910 449 885 q 463 948 449 935 q 499 961 476 961 q 535 948 522 961 q 549 910 549 935 z "},"ù":{"ha":772,"x_min":114,"x_max":650,"o":"m 572 692 l 650 692 l 650 31 q 522 -2 590 11 q 381 -15 453 -15 q 244 6 304 -15 q 149 77 183 26 q 114 214 114 128 l 114 692 l 192 692 l 192 226 q 217 121 192 158 q 286 68 242 83 q 386 53 331 53 q 482 61 431 53 q 572 81 533 69 l 572 692 m 210 1014 l 296 1014 l 422 790 l 356 790 l 210 1014 z "},"ŭ":{"ha":772,"x_min":114,"x_max":650,"o":"m 572 692 l 650 692 l 650 31 q 522 -2 590 11 q 381 -15 453 -15 q 244 6 304 -15 q 149 77 183 26 q 114 214 114 128 l 114 692 l 192 692 l 192 226 q 217 121 192 158 q 286 68 242 83 q 386 53 331 53 q 482 61 431 53 q 572 81 533 69 l 572 692 m 197 965 l 264 965 q 298 880 267 906 q 389 854 329 854 q 481 880 450 854 q 514 965 513 906 l 581 965 q 529 837 579 879 q 389 794 479 794 q 249 837 299 794 q 197 965 199 879 z "},"ű":{"ha":772,"x_min":114,"x_max":650,"o":"m 572 692 l 650 692 l 650 31 q 522 -2 590 11 q 381 -15 453 -15 q 244 6 304 -15 q 149 77 183 26 q 114 214 114 128 l 114 692 l 192 692 l 192 226 q 217 121 192 158 q 286 68 242 83 q 386 53 331 53 q 482 61 431 53 q 572 81 533 69 l 572 692 m 344 1014 l 417 1014 l 326 790 l 269 790 l 344 1014 m 525 1014 l 600 1014 l 489 790 l 431 790 l 525 1014 z "},"ū":{"ha":772,"x_min":114,"x_max":650,"o":"m 572 692 l 650 692 l 650 31 q 522 -2 590 11 q 381 -15 453 -15 q 244 6 304 -15 q 149 77 183 26 q 114 214 114 128 l 114 692 l 192 692 l 192 226 q 217 121 192 158 q 286 68 242 83 q 386 53 331 53 q 482 61 431 53 q 572 81 533 69 l 572 692 m 225 926 l 553 926 l 553 865 l 225 865 l 225 926 z "},"ų":{"ha":772,"x_min":114,"x_max":658,"o":"m 650 -142 l 658 -193 q 626 -203 644 -199 q 588 -207 607 -207 q 516 -186 546 -207 q 486 -118 486 -165 q 503 -57 486 -85 q 543 -8 519 -29 q 585 31 567 14 l 650 31 q 608 -8 632 14 q 568 -54 585 -29 q 551 -107 551 -79 q 565 -142 551 -132 q 600 -151 578 -151 q 627 -149 615 -151 q 650 -142 639 -146 m 572 692 l 650 692 l 650 31 q 522 -2 590 11 q 381 -15 453 -15 q 244 6 304 -15 q 149 77 183 26 q 114 214 114 128 l 114 692 l 192 692 l 192 226 q 217 121 192 158 q 286 68 242 83 q 386 53 331 53 q 482 61 431 53 q 572 81 533 69 l 572 692 z "},"ů":{"ha":772,"x_min":114,"x_max":650,"o":"m 572 692 l 650 692 l 650 31 q 522 -2 590 11 q 381 -15 453 -15 q 244 6 304 -15 q 149 77 183 26 q 114 214 114 128 l 114 692 l 192 692 l 192 226 q 217 121 192 158 q 286 68 242 83 q 386 53 331 53 q 482 61 431 53 q 572 81 533 69 l 572 692 m 385 969 q 330 953 350 969 q 310 903 310 938 q 330 852 310 868 q 385 836 350 836 q 441 852 421 836 q 461 903 461 868 q 441 953 461 938 q 385 969 421 969 m 385 1018 q 481 988 446 1018 q 517 903 517 957 q 481 817 517 847 q 385 786 446 786 q 289 817 325 786 q 253 903 253 847 q 289 988 253 957 q 385 1018 325 1018 z "},"ũ":{"ha":772,"x_min":114,"x_max":650,"o":"m 572 692 l 650 692 l 650 31 q 522 -2 590 11 q 381 -15 453 -15 q 244 6 304 -15 q 149 77 183 26 q 114 214 114 128 l 114 692 l 192 692 l 192 226 q 217 121 192 158 q 286 68 242 83 q 386 53 331 53 q 482 61 431 53 q 572 81 533 69 l 572 692 m 239 839 l 182 861 q 218 929 193 901 q 292 957 243 957 q 354 943 321 957 q 419 915 388 929 q 471 901 450 901 q 513 919 501 901 q 531 958 525 936 l 589 938 q 551 867 576 896 q 478 839 526 839 q 417 853 450 839 q 353 882 383 868 q 300 896 322 896 q 258 878 271 896 q 239 839 246 861 z "},"ẃ":{"ha":1064,"x_min":51,"x_max":1000,"o":"m 574 692 l 793 88 q 874 375 840 221 q 925 692 908 529 l 1000 692 q 964 458 986 569 q 910 235 942 346 q 835 0 879 124 l 751 0 l 532 606 l 313 0 l 221 0 l 51 692 l 132 692 l 275 90 l 492 692 l 574 692 m 572 1014 l 658 1014 l 514 790 l 447 790 l 572 1014 z "},"ŵ":{"ha":1064,"x_min":51,"x_max":1000,"o":"m 574 692 l 793 88 q 874 375 840 221 q 925 692 908 529 l 1000 692 q 964 458 986 569 q 910 235 942 346 q 835 0 879 124 l 751 0 l 532 606 l 313 0 l 221 0 l 51 692 l 132 692 l 275 90 l 492 692 l 574 692 m 497 1014 l 569 1014 l 707 790 l 633 790 l 533 961 l 433 790 l 360 790 l 497 1014 z "},"ẅ":{"ha":1064,"x_min":51,"x_max":1000,"o":"m 574 692 l 793 88 q 874 375 840 221 q 925 692 908 529 l 1000 692 q 964 458 986 569 q 910 235 942 346 q 835 0 879 124 l 751 0 l 532 606 l 313 0 l 221 0 l 51 692 l 132 692 l 275 90 l 492 692 l 574 692 m 475 910 q 462 872 475 885 q 425 860 449 860 q 389 872 403 860 q 375 910 375 885 q 389 948 375 935 q 425 961 403 961 q 462 948 449 961 q 475 910 475 935 m 692 910 q 678 872 692 885 q 642 860 665 860 q 605 872 618 860 q 592 910 592 885 q 606 948 592 935 q 642 961 619 961 q 678 948 665 961 q 692 910 692 935 z "},"ẁ":{"ha":1064,"x_min":51,"x_max":1000,"o":"m 574 692 l 793 88 q 874 375 840 221 q 925 692 908 529 l 1000 692 q 964 458 986 569 q 910 235 942 346 q 835 0 879 124 l 751 0 l 532 606 l 313 0 l 221 0 l 51 692 l 132 692 l 275 90 l 492 692 l 574 692 m 357 1014 l 443 1014 l 569 790 l 503 790 l 357 1014 z "},"ý":{"ha":772,"x_min":114,"x_max":649,"o":"m 572 -39 l 572 14 q 477 -4 525 3 q 381 -11 429 -11 q 244 10 304 -11 q 149 81 183 31 q 114 218 114 132 l 114 692 l 192 692 l 192 231 q 217 125 192 163 q 285 72 242 88 q 386 57 329 57 q 482 65 431 57 q 572 85 533 74 l 572 692 l 649 692 l 649 -31 q 616 -168 649 -114 q 521 -249 583 -222 q 368 -276 458 -276 q 288 -272 328 -276 q 211 -260 249 -268 q 138 -240 174 -251 l 146 -175 q 217 -194 182 -186 q 290 -207 253 -203 q 367 -211 328 -211 q 522 -167 472 -211 q 572 -39 572 -122 m 422 1014 l 508 1014 l 364 790 l 297 790 l 422 1014 z "},"ÿ":{"ha":772,"x_min":114,"x_max":649,"o":"m 572 -39 l 572 14 q 477 -4 525 3 q 381 -11 429 -11 q 244 10 304 -11 q 149 81 183 31 q 114 218 114 132 l 114 692 l 192 692 l 192 231 q 217 125 192 163 q 285 72 242 88 q 386 57 329 57 q 482 65 431 57 q 572 85 533 74 l 572 692 l 649 692 l 649 -31 q 616 -168 649 -114 q 521 -249 583 -222 q 368 -276 458 -276 q 288 -272 328 -276 q 211 -260 249 -268 q 138 -240 174 -251 l 146 -175 q 217 -194 182 -186 q 290 -207 253 -203 q 367 -211 328 -211 q 522 -167 472 -211 q 572 -39 572 -122 m 324 910 q 310 872 324 885 q 274 860 297 860 q 238 872 251 860 q 224 910 224 885 q 238 948 224 935 q 274 961 251 961 q 310 948 297 961 q 324 910 324 935 m 540 910 q 527 872 540 885 q 490 860 514 860 q 453 872 467 860 q 440 910 440 885 q 454 948 440 935 q 490 961 468 961 q 527 948 514 961 q 540 910 540 935 z "},"ŷ":{"ha":772,"x_min":114,"x_max":649,"o":"m 572 -39 l 572 14 q 477 -4 525 3 q 381 -11 429 -11 q 244 10 304 -11 q 149 81 183 31 q 114 218 114 132 l 114 692 l 192 692 l 192 231 q 217 125 192 163 q 285 72 242 88 q 386 57 329 57 q 482 65 431 57 q 572 85 533 74 l 572 692 l 649 692 l 649 -31 q 616 -168 649 -114 q 521 -249 583 -222 q 368 -276 458 -276 q 288 -272 328 -276 q 211 -260 249 -268 q 138 -240 174 -251 l 146 -175 q 217 -194 182 -186 q 290 -207 253 -203 q 367 -211 328 -211 q 522 -167 472 -211 q 572 -39 572 -122 m 346 1014 l 418 1014 l 556 790 l 482 790 l 382 961 l 282 790 l 208 790 l 346 1014 z "},"ỳ":{"ha":772,"x_min":114,"x_max":649,"o":"m 572 -39 l 572 14 q 477 -4 525 3 q 381 -11 429 -11 q 244 10 304 -11 q 149 81 183 31 q 114 218 114 132 l 114 692 l 192 692 l 192 231 q 217 125 192 163 q 285 72 242 88 q 386 57 329 57 q 482 65 431 57 q 572 85 533 74 l 572 692 l 649 692 l 649 -31 q 616 -168 649 -114 q 521 -249 583 -222 q 368 -276 458 -276 q 288 -272 328 -276 q 211 -260 249 -268 q 138 -240 174 -251 l 146 -175 q 217 -194 182 -186 q 290 -207 253 -203 q 367 -211 328 -211 q 522 -167 472 -211 q 572 -39 572 -122 m 204 1014 l 290 1014 l 417 790 l 350 790 l 204 1014 z "},"ž":{"ha":651,"x_min":49,"x_max":604,"o":"m 60 692 l 593 692 l 593 632 l 150 68 l 604 68 l 604 0 l 49 0 l 49 58 l 493 624 l 60 624 l 60 692 m 285 790 l 147 1014 l 221 1014 l 321 843 l 421 1014 l 494 1014 l 357 790 l 285 790 z "},"ź":{"ha":651,"x_min":49,"x_max":604,"o":"m 60 692 l 593 692 l 593 632 l 150 68 l 604 68 l 604 0 l 49 0 l 49 58 l 493 624 l 60 624 l 60 692 m 360 1014 l 446 1014 l 301 790 l 235 790 l 360 1014 z "},"ż":{"ha":651,"x_min":49,"x_max":604,"o":"m 60 692 l 593 692 l 593 632 l 150 68 l 604 68 l 604 0 l 49 0 l 49 58 l 493 624 l 60 624 l 60 692 m 376 910 q 361 870 376 883 q 321 857 346 857 q 280 870 294 857 q 265 910 265 883 q 281 948 265 935 q 321 961 296 961 q 361 948 346 961 q 376 910 376 935 z "},"´":{"ha":764,"x_min":296,"x_max":507,"o":"m 421 1014 l 507 1014 l 363 790 l 296 790 l 421 1014 z "},"`":{"ha":764,"x_min":206,"x_max":418,"o":"m 206 1014 l 292 1014 l 418 790 l 351 790 l 206 1014 z "},"ˆ":{"ha":764,"x_min":208,"x_max":556,"o":"m 346 1014 l 418 1014 l 556 790 l 482 790 l 382 961 l 282 790 l 208 790 l 346 1014 z "},"ˇ":{"ha":764,"x_min":208,"x_max":556,"o":"m 346 790 l 208 1014 l 282 1014 l 382 843 l 482 1014 l 556 1014 l 418 790 l 346 790 z "},"˜":{"ha":764,"x_min":178,"x_max":585,"o":"m 235 839 l 178 861 q 214 929 189 901 q 288 957 239 957 q 350 943 317 957 q 415 915 383 929 q 467 901 446 901 q 509 919 497 901 q 526 958 521 936 l 585 938 q 547 867 572 896 q 474 839 522 839 q 413 853 446 839 q 349 882 379 868 q 296 896 318 896 q 254 878 267 896 q 235 839 242 861 z "},"¨":{"ha":764,"x_min":224,"x_max":540,"o":"m 324 910 q 310 872 324 885 q 274 860 297 860 q 238 872 251 860 q 224 910 224 885 q 238 948 224 935 q 274 961 251 961 q 310 948 297 961 q 324 910 324 935 m 540 910 q 527 872 540 885 q 490 860 514 860 q 453 872 467 860 q 440 910 440 885 q 454 948 440 935 q 490 961 468 961 q 527 948 514 961 q 540 910 540 935 z "},"˚":{"ha":764,"x_min":249,"x_max":513,"o":"m 381 969 q 326 953 346 969 q 306 903 306 938 q 326 852 306 868 q 381 836 346 836 q 437 852 417 836 q 457 903 457 868 q 437 953 457 938 q 381 969 417 969 m 381 1018 q 477 988 442 1018 q 513 903 513 957 q 477 817 513 847 q 381 786 442 786 q 285 817 321 786 q 249 903 249 847 q 285 988 249 957 q 381 1018 321 1018 z "},"¸":{"ha":764,"x_min":285,"x_max":482,"o":"m 372 -60 l 435 -60 q 467 -118 451 -86 q 482 -181 482 -150 q 453 -250 482 -228 q 374 -272 424 -272 q 328 -269 353 -272 q 285 -258 304 -267 l 293 -206 q 328 -213 308 -210 q 364 -217 347 -217 q 403 -207 390 -217 q 417 -171 417 -197 q 402 -115 417 -146 q 372 -60 388 -85 z "},"˝":{"ha":764,"x_min":219,"x_max":550,"o":"m 294 1014 l 367 1014 l 276 790 l 219 790 l 294 1014 m 475 1014 l 550 1014 l 439 790 l 381 790 l 475 1014 z "},"˘":{"ha":764,"x_min":190,"x_max":574,"o":"m 190 965 l 257 965 q 291 880 260 906 q 382 854 322 854 q 474 880 443 854 q 507 965 506 906 l 574 965 q 522 837 572 879 q 382 794 472 794 q 242 837 292 794 q 190 965 192 879 z "},"¯":{"ha":764,"x_min":218,"x_max":546,"o":"m 218 926 l 546 926 l 546 865 l 218 865 l 218 926 z "},"˙":{"ha":764,"x_min":326,"x_max":438,"o":"m 438 910 q 422 870 438 883 q 382 857 407 857 q 341 870 356 857 q 326 910 326 883 q 342 948 326 935 q 382 961 357 961 q 422 948 407 961 q 438 910 438 935 z "},"·":{"ha":622,"x_min":254,"x_max":365,"o":"m 365 375 q 350 337 365 350 q 310 324 335 324 q 269 337 283 324 q 254 375 254 350 q 269 413 254 400 q 310 426 285 426 q 350 413 335 426 q 365 375 365 400 z "},"˛":{"ha":764,"x_min":286,"x_max":483,"o":"m 476 -172 l 483 -225 q 446 -235 468 -231 q 401 -239 424 -239 q 320 -215 354 -239 q 286 -140 286 -192 q 310 -56 286 -92 q 356 0 333 -19 l 419 0 q 374 -55 397 -21 q 350 -128 350 -89 q 367 -170 350 -158 q 411 -182 385 -182 q 447 -180 431 -182 q 476 -172 463 -178 z "},".":{"ha":382,"x_min":135,"x_max":246,"o":"m 246 38 q 231 -2 246 11 q 190 -15 215 -15 q 149 -2 164 -15 q 135 38 135 11 q 150 76 135 63 q 190 89 165 89 q 231 76 215 89 q 246 38 246 63 z "},",":{"ha":421,"x_min":110,"x_max":299,"o":"m 217 103 l 299 103 l 172 -217 l 110 -217 l 217 103 z "},":":{"ha":382,"x_min":135,"x_max":246,"o":"m 246 38 q 231 -2 246 11 q 190 -15 215 -15 q 149 -2 164 -15 q 135 38 135 11 q 150 76 135 63 q 190 89 165 89 q 231 76 215 89 q 246 38 246 63 m 246 654 q 231 615 246 628 q 190 601 215 601 q 149 615 164 601 q 135 654 135 628 q 150 692 135 679 q 190 706 165 706 q 231 692 215 706 q 246 654 246 679 z "},";":{"ha":382,"x_min":31,"x_max":246,"o":"m 139 103 l 221 103 l 94 -217 l 31 -217 l 139 103 m 246 654 q 231 615 246 628 q 190 601 215 601 q 149 615 164 601 q 135 654 135 628 q 150 692 135 679 q 190 706 165 706 q 231 692 215 706 q 246 654 246 679 z "},"…":{"ha":1186,"x_min":135,"x_max":1050,"o":"m 246 38 q 231 -2 246 11 q 190 -15 215 -15 q 149 -2 164 -15 q 135 38 135 11 q 150 76 135 63 q 190 89 165 89 q 231 76 215 89 q 246 38 246 63 m 647 38 q 632 -2 647 11 q 592 -15 617 -15 q 551 -2 565 -15 q 536 38 536 11 q 551 76 536 63 q 592 89 567 89 q 632 76 617 89 q 647 38 647 63 m 1050 38 q 1035 -2 1050 11 q 994 -15 1019 -15 q 953 -2 968 -15 q 939 38 939 11 q 954 76 939 63 q 994 89 969 89 q 1035 76 1019 89 q 1050 38 1050 63 z "},"?":{"ha":575,"x_min":47,"x_max":536,"o":"m 313 38 q 297 -2 313 11 q 258 -15 282 -15 q 217 -2 232 -15 q 203 38 203 11 q 218 76 203 63 q 258 89 233 89 q 297 76 282 89 q 313 38 313 63 m 536 711 q 512 604 536 647 q 451 530 488 561 q 379 467 415 499 q 319 393 343 435 q 294 288 294 351 l 294 208 l 217 208 l 217 303 q 240 418 217 372 q 299 497 264 464 q 369 558 335 529 q 428 624 404 588 q 451 711 451 660 q 401 826 451 789 q 251 864 351 864 q 151 857 200 864 q 57 840 101 850 l 47 915 q 150 933 96 926 q 260 939 204 939 q 409 915 347 939 q 503 840 471 890 q 536 711 536 789 z "},"!":{"ha":414,"x_min":153,"x_max":263,"o":"m 163 924 l 250 924 l 240 208 l 174 208 l 163 924 m 263 38 q 247 -2 263 11 q 207 -15 232 -15 q 167 -2 182 -15 q 153 38 153 11 q 168 76 153 63 q 207 89 183 89 q 247 76 232 89 q 263 38 263 63 z "},"¿":{"ha":564,"x_min":38,"x_max":526,"o":"m 261 654 q 276 692 261 679 q 315 706 290 706 q 355 692 340 706 q 369 654 369 679 q 355 615 369 628 q 315 601 340 601 q 276 615 290 601 q 261 654 261 628 m 38 -19 q 62 88 38 44 q 122 162 86 131 q 194 225 158 193 q 255 299 231 257 q 279 404 279 340 l 279 483 l 357 483 l 357 389 q 333 275 357 321 q 275 196 310 229 q 205 133 240 163 q 146 67 169 103 q 122 -19 122 32 q 172 -135 122 -97 q 321 -172 222 -172 q 422 -165 372 -172 q 517 -149 472 -158 l 526 -224 q 424 -240 478 -233 q 314 -247 369 -247 q 165 -223 226 -247 q 70 -148 103 -199 q 38 -19 38 -97 z "},"¡":{"ha":414,"x_min":151,"x_max":261,"o":"m 163 -232 l 174 483 l 239 483 l 249 -232 l 163 -232 m 261 654 q 246 615 261 628 q 207 601 231 601 q 167 615 182 601 q 151 654 151 628 q 166 692 151 679 q 207 706 181 706 q 246 692 231 706 q 261 654 261 679 z "},"(":{"ha":435,"x_min":160,"x_max":418,"o":"m 333 -240 q 203 53 247 -111 q 160 388 160 217 q 203 722 160 558 q 333 1014 247 885 l 418 1014 q 286 717 331 878 q 242 388 242 556 q 286 58 242 221 q 418 -240 331 -104 l 333 -240 z "},")":{"ha":435,"x_min":17,"x_max":274,"o":"m 100 -240 l 17 -240 q 149 58 104 -104 q 193 388 193 221 q 149 717 193 556 q 17 1014 104 878 l 100 1014 q 230 722 186 885 q 274 388 274 558 q 230 53 274 217 q 100 -240 186 -111 z "},"{":{"ha":497,"x_min":79,"x_max":475,"o":"m 79 351 l 79 429 q 173 453 149 432 q 197 525 197 474 q 190 628 197 571 q 176 742 183 685 q 169 846 169 800 q 214 981 169 933 q 365 1029 258 1029 q 427 1026 394 1029 q 475 1021 460 1024 l 468 947 q 424 952 453 950 q 374 954 396 954 q 276 924 301 954 q 250 838 250 894 q 257 735 250 793 q 272 619 264 676 q 279 521 279 563 q 256 431 279 460 q 188 392 232 403 q 256 350 232 378 q 279 260 279 322 q 272 161 279 218 q 257 46 264 104 q 250 -58 250 -12 q 276 -144 250 -114 q 374 -174 301 -174 q 424 -171 396 -174 q 468 -167 453 -168 l 475 -240 q 427 -245 460 -242 q 365 -249 394 -249 q 214 -201 258 -249 q 169 -65 169 -153 q 176 39 169 -18 q 190 153 183 96 q 197 256 197 211 q 173 328 197 307 q 79 351 149 350 z "},"}":{"ha":499,"x_min":19,"x_max":417,"o":"m 417 351 q 322 328 346 350 q 299 256 299 307 q 306 153 299 211 q 319 39 313 96 q 326 -65 326 -18 q 282 -201 326 -153 q 131 -249 238 -249 q 69 -245 101 -249 q 19 -240 36 -242 l 28 -167 q 72 -171 43 -168 q 122 -174 100 -174 q 221 -144 196 -174 q 246 -58 246 -114 q 238 46 246 -12 q 224 161 231 104 q 217 260 217 218 q 240 351 217 322 q 308 392 264 379 q 240 431 264 403 q 217 521 217 458 q 224 619 217 563 q 238 734 231 675 q 246 838 246 793 q 221 924 246 894 q 122 954 196 954 q 72 952 100 954 q 28 947 43 950 l 19 1021 q 69 1026 36 1024 q 131 1029 101 1029 q 282 981 238 1029 q 326 846 326 933 q 319 742 326 800 q 306 628 313 685 q 299 525 299 571 q 322 453 299 474 q 417 429 346 432 l 417 351 z "},"[":{"ha":447,"x_min":172,"x_max":425,"o":"m 172 1014 l 425 1014 l 425 936 l 253 936 l 253 -162 l 425 -162 l 425 -240 l 172 -240 l 172 1014 z "},"]":{"ha":447,"x_min":22,"x_max":276,"o":"m 276 1014 l 276 -240 l 22 -240 l 22 -162 l 194 -162 l 194 936 l 22 936 l 22 1014 l 276 1014 z "},"/":{"ha":665,"x_min":44,"x_max":618,"o":"m 536 1014 l 618 1014 l 126 -74 l 44 -74 l 536 1014 z "},"\\":{"ha":665,"x_min":47,"x_max":621,"o":"m 47 1014 l 129 1014 l 621 -74 l 539 -74 l 47 1014 z "},"_":{"ha":954,"x_min":60,"x_max":894,"o":"m 60 -21 l 894 -21 l 894 -81 l 60 -81 l 60 -21 z "},"-":{"ha":535,"x_min":92,"x_max":443,"o":"m 92 414 l 443 414 l 443 340 l 92 340 l 92 414 z "},"­":{"ha":0,"x_min":0,"x_max":0,"o":""},"–":{"ha":806,"x_min":92,"x_max":714,"o":"m 92 414 l 714 414 l 714 340 l 92 340 l 92 414 z "},"—":{"ha":1113,"x_min":92,"x_max":1022,"o":"m 92 414 l 1022 414 l 1022 340 l 92 340 l 92 414 z "},"¦":{"ha":417,"x_min":168,"x_max":249,"o":"m 168 1111 l 249 1111 l 249 554 l 168 554 l 168 1111 m 168 279 l 249 279 l 249 -278 l 168 -278 l 168 279 z "},"|":{"ha":417,"x_min":168,"x_max":249,"o":"m 168 1111 l 249 1111 l 249 -278 l 168 -278 l 168 1111 z "},"«":{"ha":771,"x_min":92,"x_max":681,"o":"m 303 656 l 392 656 l 182 376 l 392 97 l 303 97 l 92 376 l 303 656 m 592 656 l 681 656 l 469 376 l 681 97 l 592 97 l 381 376 l 592 656 z "},"»":{"ha":771,"x_min":90,"x_max":679,"o":"m 468 656 l 679 376 l 468 97 l 379 97 l 590 376 l 379 656 l 468 656 m 181 656 l 392 376 l 181 97 l 90 97 l 301 376 l 90 656 l 181 656 z "},"‹":{"ha":482,"x_min":92,"x_max":392,"o":"m 303 656 l 392 656 l 182 376 l 392 97 l 303 97 l 92 376 l 303 656 z "},"›":{"ha":482,"x_min":90,"x_max":392,"o":"m 181 656 l 392 376 l 181 97 l 90 97 l 301 376 l 90 656 l 181 656 z "},"‚":{"ha":233,"x_min":-3,"x_max":186,"o":"m 104 103 l 186 103 l 60 -217 l -3 -217 l 104 103 z "},"„":{"ha":425,"x_min":-29,"x_max":379,"o":"m 79 103 l 161 103 l 35 -217 l -29 -217 l 79 103 m 297 103 l 379 103 l 251 -217 l 189 -217 l 297 103 z "},"‘":{"ha":282,"x_min":51,"x_max":240,"o":"m 133 604 l 51 604 l 178 924 l 240 924 l 133 604 z "},"“":{"ha":499,"x_min":51,"x_max":458,"o":"m 350 604 l 269 604 l 394 924 l 458 924 l 350 604 m 133 604 l 51 604 l 178 924 l 240 924 l 133 604 z "},"’":{"ha":282,"x_min":43,"x_max":232,"o":"m 150 924 l 232 924 l 106 604 l 43 604 l 150 924 z "},"”":{"ha":499,"x_min":43,"x_max":450,"o":"m 150 924 l 232 924 l 106 604 l 43 604 l 150 924 m 368 924 l 450 924 l 324 604 l 261 604 l 368 924 z "},"'":{"ha":285,"x_min":101,"x_max":183,"o":"m 101 924 l 183 924 l 174 604 l 113 604 l 101 924 z "},"\"":{"ha":428,"x_min":68,"x_max":358,"o":"m 68 924 l 150 924 l 140 604 l 79 604 l 68 924 m 276 924 l 358 924 l 349 604 l 288 604 l 276 924 z "},"•":{"ha":535,"x_min":151,"x_max":383,"o":"m 383 376 q 349 296 383 322 q 267 269 315 269 q 184 296 217 269 q 151 376 151 322 q 185 455 151 428 q 267 482 218 482 q 349 455 315 482 q 383 376 383 428 z "},"№":{"ha":1415,"x_min":129,"x_max":1343,"o":"m 1343 679 q 1296 504 1343 564 q 1149 444 1249 444 q 1003 504 1051 444 q 956 678 956 564 q 1003 856 956 796 q 1149 915 1050 915 q 1296 856 1249 915 q 1343 679 1343 796 m 1274 679 q 1244 806 1274 764 q 1149 849 1214 849 q 1055 806 1085 849 q 1025 678 1025 764 q 1055 552 1025 594 q 1149 510 1085 510 q 1244 552 1214 510 q 1274 679 1274 594 m 988 375 l 1311 375 l 1311 308 l 988 308 l 988 375 m 129 924 l 201 924 l 761 325 l 761 924 l 842 924 l 842 0 l 761 0 l 761 208 l 210 797 l 210 0 l 129 0 l 129 924 z "},"&":{"ha":865,"x_min":64,"x_max":817,"o":"m 394 494 l 643 204 q 695 272 672 236 q 740 354 718 308 l 804 333 q 772 267 789 299 q 735 205 756 235 q 689 147 715 175 l 817 0 l 715 0 l 633 92 q 515 15 585 46 q 356 -15 444 -15 q 197 15 263 -15 q 98 101 132 44 q 64 233 64 157 q 90 350 64 301 q 165 437 117 399 q 276 508 213 475 q 212 590 242 551 q 164 667 182 628 q 146 750 146 706 q 206 891 146 843 q 360 939 265 939 q 522 891 463 939 q 581 751 581 843 q 533 613 581 672 q 394 494 486 553 m 592 144 l 325 456 q 226 394 265 424 q 166 326 186 364 q 146 233 146 289 q 203 99 146 146 q 361 53 261 53 q 490 79 432 53 q 592 144 549 106 m 346 546 q 467 645 432 599 q 503 753 503 692 q 465 846 503 818 q 361 874 428 874 q 265 846 304 874 q 225 753 225 818 q 242 683 225 715 q 286 617 258 650 q 346 546 314 585 z "},"¶":{"ha":871,"x_min":67,"x_max":744,"o":"m 676 924 l 744 924 l 744 -219 l 676 -219 l 676 924 m 401 326 q 150 402 233 326 q 67 625 67 478 q 103 790 67 724 q 214 890 140 857 q 399 924 288 924 l 538 924 l 538 -219 l 469 -219 l 469 326 q 438 326 454 326 q 401 326 421 326 z "},"†":{"ha":603,"x_min":43,"x_max":558,"o":"m 260 924 l 339 924 l 339 664 l 558 664 l 558 593 l 339 593 l 339 206 l 260 206 l 260 593 l 43 593 l 43 664 l 260 664 l 260 924 z "},"‡":{"ha":631,"x_min":57,"x_max":572,"o":"m 57 713 l 274 713 l 274 924 l 353 924 l 353 713 l 572 713 l 572 642 l 353 642 l 353 500 l 572 500 l 572 428 l 353 428 l 353 206 l 274 206 l 274 428 l 57 428 l 57 500 l 274 500 l 274 642 l 57 642 l 57 713 z "},"§":{"ha":688,"x_min":38,"x_max":621,"o":"m 76 400 q 115 508 76 465 q 207 569 153 551 q 120 649 156 606 q 85 757 85 693 q 109 849 85 814 q 176 904 133 885 q 271 931 218 924 q 379 938 324 938 q 503 931 442 938 q 601 917 565 924 l 592 844 q 531 854 568 850 q 454 861 494 858 q 378 864 414 864 q 273 856 322 864 q 194 825 224 849 q 164 753 164 801 q 197 671 164 706 q 282 607 231 636 q 392 547 333 578 q 503 481 451 517 q 588 396 554 444 q 621 281 621 347 q 587 169 621 215 q 504 101 553 124 q 572 25 544 68 q 600 -71 600 -18 q 564 -190 600 -144 q 466 -255 528 -235 q 326 -275 404 -275 q 168 -261 244 -275 q 38 -231 92 -247 l 47 -161 q 174 -192 100 -178 q 324 -206 247 -206 q 466 -175 413 -206 q 519 -76 519 -144 q 488 18 519 -22 q 405 90 456 58 q 298 152 354 122 q 191 217 242 182 q 108 295 140 251 q 76 400 76 339 m 153 407 q 182 328 153 363 q 258 266 211 294 q 356 210 304 238 q 453 150 407 182 q 519 197 494 165 q 543 272 543 229 q 519 356 543 321 q 455 419 494 392 q 369 472 415 447 q 276 524 322 497 q 191 488 229 517 q 153 407 153 458 z "},"*":{"ha":544,"x_min":42,"x_max":503,"o":"m 61 815 l 249 758 l 239 924 l 306 924 l 296 758 l 482 815 l 503 756 l 313 714 l 443 582 l 393 538 l 272 683 l 151 538 l 101 582 l 233 714 l 42 756 l 61 815 z "},"™":{"ha":983,"x_min":39,"x_max":906,"o":"m 39 924 l 381 924 l 381 868 l 242 868 l 242 508 l 179 508 l 179 868 l 39 868 l 39 924 m 717 596 l 667 596 l 539 828 l 539 508 l 481 508 l 481 924 l 547 924 l 693 660 l 838 924 l 906 924 l 906 508 l 847 508 l 847 828 l 717 596 z "},"®":{"ha":900,"x_min":69,"x_max":831,"o":"m 378 742 l 378 593 q 406 590 389 592 q 442 589 424 589 q 513 605 481 589 q 546 668 546 621 q 519 727 546 713 q 450 742 492 742 l 378 742 m 325 788 l 456 788 q 559 760 519 788 q 599 672 599 733 q 572 597 599 622 q 513 564 546 572 q 553 536 540 556 q 576 489 567 517 l 613 394 l 557 394 l 524 483 q 494 528 513 513 q 440 544 476 544 q 404 546 422 544 q 378 549 386 547 l 378 394 l 325 394 l 325 788 m 831 582 q 733 324 831 417 q 450 231 636 231 q 167 324 265 231 q 69 582 69 417 q 167 840 69 747 q 450 932 265 932 q 733 840 636 932 q 831 582 831 747 m 782 582 q 699 808 782 729 q 450 888 617 888 q 202 808 285 888 q 119 582 119 729 q 202 355 119 435 q 450 275 285 275 q 699 355 617 275 q 782 582 782 435 z "},"©":{"ha":1079,"x_min":82,"x_max":999,"o":"m 999 461 q 878 105 999 224 q 539 -14 758 -14 q 201 105 321 -14 q 82 461 82 224 q 201 819 82 699 q 539 939 321 939 q 878 819 758 939 q 999 461 999 699 m 947 461 q 842 782 947 675 q 539 889 738 889 q 238 782 342 889 q 133 461 133 675 q 238 142 133 247 q 539 38 342 38 q 842 142 738 38 q 947 461 947 247 m 700 708 l 692 651 q 640 660 671 656 q 571 664 608 664 q 472 642 513 664 q 409 576 431 621 q 388 461 388 532 q 433 307 388 354 q 571 260 479 260 q 642 265 611 260 q 696 275 674 269 l 701 218 q 642 206 679 211 q 564 200 606 200 q 434 226 489 200 q 349 310 379 253 q 319 461 319 368 q 350 611 319 554 q 437 695 381 668 q 568 722 493 722 q 643 718 608 722 q 700 708 678 714 z "},"@":{"ha":1222,"x_min":86,"x_max":1144,"o":"m 729 483 q 674 494 704 490 q 617 497 644 497 q 499 451 540 497 q 458 306 458 406 q 478 177 458 221 q 530 118 497 133 q 601 103 563 103 q 681 112 646 103 q 742 135 717 121 q 733 169 736 147 q 729 214 729 190 l 729 483 m 615 -183 q 812 -171 718 -183 q 972 -144 906 -158 l 979 -201 q 826 -231 922 -217 q 614 -244 729 -244 q 356 -201 458 -244 q 194 -82 253 -158 q 110 95 135 -6 q 86 310 86 196 q 119 540 86 438 q 217 713 151 642 q 385 822 283 785 q 624 860 486 860 q 871 818 771 860 q 1031 705 971 776 q 1118 544 1092 633 q 1144 360 1144 456 q 1118 172 1144 246 q 1041 62 1092 97 q 917 26 990 26 q 818 45 853 26 q 768 85 783 64 q 692 51 739 65 q 592 36 646 36 q 490 60 536 36 q 415 144 443 85 q 388 307 388 203 q 449 497 388 435 q 614 560 511 560 q 710 552 664 560 q 799 532 756 544 l 799 217 q 824 120 799 153 q 918 88 850 88 q 1007 113 971 88 q 1063 197 1043 138 q 1082 363 1082 257 q 1058 529 1082 450 q 982 669 1035 608 q 841 766 929 731 q 624 801 753 801 q 353 744 458 801 q 197 578 247 688 q 147 310 147 468 q 168 114 147 204 q 240 -43 189 24 q 383 -147 292 -110 q 615 -183 475 -183 z "},"ª":{"ha":446,"x_min":54,"x_max":374,"o":"m 317 572 l 317 703 q 271 710 294 707 q 222 713 247 713 q 144 698 178 713 q 110 635 110 683 q 138 575 110 592 q 210 558 165 558 q 263 562 233 558 q 317 572 293 565 m 90 869 l 83 924 q 144 935 111 931 q 214 939 178 939 q 329 907 285 939 q 374 803 374 875 l 374 536 q 302 517 346 528 q 207 507 258 507 q 132 519 167 507 q 76 558 97 531 q 54 635 54 586 q 78 712 54 685 q 138 749 101 739 q 217 760 175 760 q 269 756 243 760 q 317 750 294 753 l 317 801 q 301 853 317 835 q 262 877 286 871 q 208 883 238 883 q 143 880 171 883 q 90 869 115 876 z "},"º":{"ha":506,"x_min":63,"x_max":443,"o":"m 443 722 q 391 557 443 608 q 253 506 339 506 q 115 557 168 506 q 63 722 63 608 q 115 888 63 838 q 253 939 168 939 q 391 888 339 939 q 443 722 443 838 m 382 722 q 345 847 382 814 q 253 881 308 881 q 160 847 197 881 q 122 722 122 814 q 160 597 122 629 q 253 564 197 564 q 345 597 308 564 q 382 722 382 629 z "},"#":{"ha":946,"x_min":46,"x_max":901,"o":"m 357 924 l 436 924 l 386 647 l 626 647 l 676 924 l 756 924 l 706 647 l 901 647 l 889 575 l 693 575 l 653 351 l 849 351 l 835 279 l 639 279 l 589 0 l 510 0 l 560 279 l 319 279 l 271 0 l 192 0 l 240 279 l 46 279 l 58 351 l 254 351 l 296 575 l 100 575 l 113 647 l 307 647 l 357 924 m 374 575 l 333 351 l 572 351 l 614 575 l 374 575 z "},"€":{"ha":806,"x_min":56,"x_max":754,"o":"m 750 917 q 653 932 701 925 q 553 939 606 939 q 343 888 429 939 q 213 730 257 836 q 168 460 168 624 q 211 191 168 296 q 338 35 254 86 q 540 -15 421 -15 q 654 -7 603 -15 q 754 13 706 1 l 749 85 q 647 68 696 75 q 543 61 597 61 q 383 102 449 61 q 283 231 317 143 q 250 460 250 319 q 285 687 250 597 q 388 819 321 776 q 551 863 456 863 q 646 856 600 863 q 739 840 692 850 l 750 917 m 56 528 l 651 528 l 674 588 l 56 588 l 56 528 m 56 336 l 640 336 l 664 394 l 56 394 l 56 336 z "},"$":{"ha":707,"x_min":65,"x_max":642,"o":"m 336 -15 q 199 0 267 -12 q 65 32 131 13 l 75 104 q 213 71 144 82 q 356 60 282 60 q 506 99 454 60 q 557 222 557 138 q 531 313 557 275 q 463 378 506 350 q 369 428 419 406 q 267 476 318 451 q 174 533 217 501 q 105 610 131 565 q 79 718 79 654 q 144 877 79 825 q 335 936 208 929 l 335 1044 l 403 1044 l 403 938 q 506 931 454 936 q 606 917 557 925 l 597 843 q 492 858 547 851 q 382 864 438 864 q 218 831 272 864 q 164 724 164 797 q 190 638 164 674 q 258 577 215 603 q 352 528 301 551 q 453 481 403 506 q 547 423 504 456 q 616 343 590 390 q 642 229 642 296 q 583 57 642 117 q 404 -11 524 -3 l 404 -139 l 336 -139 l 336 -15 z "},"¥":{"ha":860,"x_min":50,"x_max":793,"o":"m 282 568 l 317 508 l 88 508 l 88 568 l 282 568 m 793 924 l 489 375 l 786 375 l 786 317 l 478 317 l 478 0 l 394 0 l 394 317 l 88 317 l 88 375 l 382 375 l 50 924 l 142 924 l 436 431 l 708 924 l 793 924 m 550 508 l 581 568 l 786 568 l 786 508 l 550 508 z "},"£":{"ha":763,"x_min":50,"x_max":715,"o":"m 176 293 l 193 442 l 71 442 l 71 511 l 199 511 l 215 679 q 265 840 225 783 q 367 917 304 896 q 513 939 431 939 q 617 934 567 939 q 715 919 668 929 l 707 846 q 615 859 663 854 q 519 864 568 864 q 401 847 447 864 q 332 791 356 831 q 301 681 308 751 l 283 511 l 632 511 l 632 442 l 275 442 l 260 288 q 242 188 254 226 q 209 122 229 149 q 160 71 189 96 l 685 71 l 685 0 l 50 0 l 50 60 q 118 112 93 85 q 156 181 143 139 q 176 293 169 224 z "},"¢":{"ha":629,"x_min":85,"x_max":585,"o":"m 581 806 l 571 738 q 492 750 531 746 q 417 754 454 754 q 276 724 332 754 q 191 628 219 693 q 163 463 163 564 q 226 242 163 314 q 419 169 289 169 q 494 176 456 169 q 576 192 532 182 l 585 125 q 507 110 546 115 q 432 101 468 104 l 432 -54 l 365 -54 l 365 103 q 156 203 228 115 q 85 461 85 292 q 156 720 85 633 q 363 819 228 807 l 363 981 l 429 981 l 429 822 q 505 817 467 821 q 581 806 543 813 z "},"₡":{"ha":772,"x_min":94,"x_max":719,"o":"m 399 1063 l 371 892 l 438 892 l 465 1063 l 399 1063 m 596 1063 l 567 892 l 633 892 l 663 1063 l 596 1063 m 483 22 l 417 22 l 396 -110 l 463 -110 l 483 22 m 299 93 l 235 108 l 199 -110 l 265 -110 l 299 93 m 715 917 q 609 933 661 926 q 500 939 557 939 q 278 888 369 939 q 141 730 188 836 q 94 460 94 624 q 140 191 94 296 q 274 35 186 86 q 488 -15 361 -15 q 611 -8 556 -15 q 719 13 667 0 l 713 86 q 602 69 656 75 q 490 63 549 63 q 319 104 389 63 q 215 234 250 146 q 179 460 179 322 q 262 763 179 664 q 499 861 344 861 q 602 856 551 861 q 704 840 653 850 l 715 917 z "},"₮":{"ha":814,"x_min":44,"x_max":771,"o":"m 128 531 l 690 651 l 690 592 l 128 471 l 128 531 m 128 333 l 690 454 l 690 394 l 128 274 l 128 333 m 44 924 l 771 924 l 771 849 l 449 849 l 449 0 l 367 0 l 367 849 l 44 849 l 44 924 z "},"₴":{"ha":778,"x_min":67,"x_max":694,"o":"m 67 529 l 67 588 l 693 588 l 693 529 l 67 529 m 68 336 l 68 396 l 694 396 l 694 336 l 68 336 m 146 917 q 258 932 200 926 q 374 938 315 938 q 537 917 471 938 q 636 853 603 896 q 669 742 669 810 q 642 633 669 681 q 568 548 614 586 q 469 477 522 510 q 365 413 417 444 q 272 343 313 381 q 218 278 238 313 q 199 196 199 243 q 248 95 199 131 q 396 60 297 60 q 539 71 469 60 q 678 104 608 82 l 688 32 q 543 -3 617 10 q 392 -15 469 -15 q 183 40 253 -15 q 114 201 114 96 q 148 325 114 272 q 235 417 182 378 q 349 492 289 457 q 463 561 410 526 q 551 638 515 597 q 586 739 586 679 q 533 834 586 804 q 369 864 481 864 q 260 858 315 864 q 156 843 206 851 l 146 917 z "},"₺":{"ha":772,"x_min":57,"x_max":719,"o":"m 57 535 l 557 657 l 557 596 l 57 475 l 57 535 m 57 336 l 557 458 l 557 397 l 57 276 l 57 336 m 503 0 l 172 0 l 172 924 l 254 924 l 254 75 l 503 75 q 593 92 563 75 q 635 144 624 110 q 646 228 646 178 l 646 249 l 719 249 l 719 228 q 700 103 719 154 q 633 26 681 51 q 503 0 586 0 z "},"₹":{"ha":747,"x_min":68,"x_max":693,"o":"m 578 657 q 552 535 578 585 q 481 453 526 485 q 375 408 435 422 q 247 393 315 393 l 215 389 l 68 389 l 68 460 l 238 460 q 433 508 369 460 q 496 657 496 557 q 434 803 496 757 q 244 849 372 849 l 68 849 l 68 901 l 233 901 q 426 877 350 901 q 540 799 503 853 q 578 657 578 744 m 693 625 l 68 625 l 68 683 l 693 683 l 693 625 m 693 865 l 68 865 l 68 924 l 693 924 l 693 865 m 74 389 l 174 407 q 278 390 236 404 q 353 348 319 376 q 421 276 386 319 q 504 169 456 232 l 635 0 l 547 0 l 436 149 q 338 271 379 224 q 260 344 297 318 q 180 379 224 369 q 74 389 136 389 z "},"₫":{"ha":814,"x_min":76,"x_max":772,"o":"m 96 -107 l 643 -107 l 643 -169 l 96 -169 l 96 -107 m 650 1014 l 650 28 q 513 -4 579 7 q 383 -15 446 -15 q 216 24 285 -15 q 112 142 147 63 q 76 344 76 222 q 112 549 76 469 q 214 667 147 629 q 376 706 281 706 q 474 699 421 706 q 572 679 526 692 l 572 1014 l 650 1014 m 572 79 l 572 610 q 472 631 518 625 q 382 638 425 638 q 211 566 268 638 q 154 344 154 494 q 180 180 154 244 q 257 85 206 115 q 385 54 308 54 q 478 60 429 54 q 572 79 526 65 m 357 843 l 357 901 l 772 901 l 772 843 l 357 843 z "},"₩":{"ha":1368,"x_min":64,"x_max":1308,"o":"m 64 536 l 64 596 l 221 596 l 224 536 l 64 536 m 65 344 l 65 403 l 265 403 l 271 344 l 65 344 m 1140 536 l 1143 596 l 1308 596 l 1308 536 l 1140 536 m 1099 344 l 1107 403 l 1308 403 l 1308 344 l 1099 344 m 411 0 l 326 0 l 101 924 l 186 924 l 378 103 l 636 732 l 717 732 l 978 99 q 1094 493 1049 290 q 1165 924 1140 696 l 1240 924 q 1206 676 1225 792 q 1162 450 1188 560 q 1101 230 1136 340 q 1021 0 1067 119 l 938 0 l 676 642 l 411 0 z "},"₪":{"ha":967,"x_min":106,"x_max":865,"o":"m 179 0 l 106 0 l 106 660 q 233 692 165 679 q 371 706 300 706 q 504 685 446 706 q 597 614 563 664 q 631 476 631 564 l 631 271 l 567 271 l 567 465 q 541 569 567 532 q 469 622 515 607 q 365 638 424 638 q 271 629 322 638 q 179 608 219 621 l 179 0 m 406 421 l 406 83 q 498 63 446 71 q 593 54 550 54 q 696 69 651 54 q 766 122 740 85 q 792 226 792 160 l 792 692 l 865 692 l 865 214 q 831 77 865 128 q 736 6 796 26 q 599 -15 676 -15 q 465 -1 531 -15 q 342 31 400 13 l 342 421 l 406 421 z "},"₭":{"ha":867,"x_min":43,"x_max":813,"o":"m 43 467 l 43 525 l 183 525 l 183 467 l 43 467 m 371 468 l 396 524 l 774 524 l 774 468 l 371 468 m 160 924 l 242 924 l 242 406 l 710 924 l 801 924 l 438 518 q 596 436 538 494 q 697 271 654 378 l 813 0 l 722 0 l 618 244 q 562 353 592 310 q 490 421 532 396 q 383 456 447 446 l 242 304 l 242 0 l 160 0 l 160 924 z "},"₱":{"ha":956,"x_min":56,"x_max":900,"o":"m 56 706 l 56 765 l 215 765 l 215 706 l 56 706 m 56 514 l 56 572 l 215 572 l 215 514 l 56 514 m 739 706 l 739 765 l 900 765 l 900 706 l 739 706 m 743 514 l 743 572 l 900 572 l 900 514 l 743 514 m 254 849 l 254 439 q 355 424 306 429 q 451 419 404 419 q 647 474 583 419 q 710 638 710 528 q 648 798 710 747 q 458 849 586 849 l 254 849 m 172 924 l 458 924 q 644 893 571 924 q 755 799 718 863 q 792 638 792 736 q 753 472 792 536 q 641 376 715 407 q 458 344 567 344 q 362 349 413 344 q 254 364 311 354 l 254 0 l 172 0 l 172 924 z "},"₵":{"ha":761,"x_min":86,"x_max":711,"o":"m 518 904 l 453 904 l 453 1044 l 518 1044 l 518 904 m 449 24 l 515 24 l 515 -139 l 449 -139 l 449 24 m 707 917 l 696 840 q 593 856 643 850 q 490 861 543 861 q 253 763 336 861 q 171 460 171 664 q 206 234 171 322 q 311 104 242 146 q 482 63 381 63 q 594 69 540 63 q 704 86 647 75 l 711 13 q 603 -8 658 0 q 479 -15 547 -15 q 265 35 353 -15 q 132 191 178 86 q 86 460 86 296 q 133 730 86 624 q 269 888 179 836 q 492 939 360 939 q 601 933 549 939 q 707 917 653 926 z "},"₸":{"ha":836,"x_min":54,"x_max":781,"o":"m 54 688 l 781 688 l 781 613 l 458 613 l 458 0 l 376 0 l 376 613 l 54 613 l 54 688 m 781 849 l 54 849 l 54 924 l 781 924 l 781 849 z "},"₼":{"ha":882,"x_min":90,"x_max":792,"o":"m 442 706 q 649 660 572 706 q 758 539 725 615 q 792 365 792 463 l 792 -15 l 710 -15 l 710 363 q 685 499 710 438 q 601 595 660 560 q 440 631 543 631 q 281 595 339 631 q 197 499 222 560 q 172 363 172 438 l 172 -15 l 90 -15 l 90 365 q 124 539 90 463 q 234 660 157 615 q 442 706 311 706 m 408 924 l 474 924 l 474 685 l 474 665 l 474 139 l 408 139 l 408 663 l 408 682 l 408 924 z "},"₽":{"ha":819,"x_min":56,"x_max":754,"o":"m 207 431 l 207 363 l 56 363 l 56 431 l 207 431 m 439 229 l 439 169 l 56 169 l 56 229 l 439 229 m 254 849 l 254 431 l 413 431 q 608 482 544 431 q 672 638 672 533 q 610 798 672 747 q 421 849 549 849 l 254 849 m 172 924 l 421 924 q 607 893 533 924 q 717 799 681 863 q 754 638 754 736 q 716 479 754 540 q 603 390 678 418 q 421 361 529 361 l 254 361 l 254 0 l 172 0 l 172 924 z "},"¤":{"ha":647,"x_min":64,"x_max":583,"o":"m 535 447 q 477 278 535 331 q 324 226 419 226 q 169 278 226 226 q 113 447 113 331 q 169 619 113 567 q 324 671 226 671 q 477 619 419 671 q 535 447 535 567 m 467 447 q 426 572 467 538 q 322 607 385 607 q 219 572 260 607 q 179 447 179 538 q 197 353 179 388 q 248 305 215 319 q 322 290 281 290 q 426 324 385 290 q 467 447 467 358 m 508 731 l 583 731 l 471 586 l 415 606 l 508 731 m 138 731 l 232 606 l 176 586 l 64 731 l 138 731 m 508 167 l 415 290 l 471 310 l 583 167 l 508 167 m 138 167 l 64 167 l 176 310 l 232 290 l 138 167 z "},"°":{"ha":535,"x_min":71,"x_max":465,"o":"m 269 874 q 170 834 201 874 q 139 728 139 794 q 170 622 139 661 q 269 582 201 582 q 367 622 336 582 q 397 728 397 661 q 367 834 397 794 q 269 874 336 874 m 269 938 q 416 881 367 938 q 465 728 465 824 q 416 575 465 631 q 268 519 367 519 q 121 575 171 519 q 71 728 71 631 q 121 881 71 824 q 269 938 171 938 z "},"%":{"ha":1194,"x_min":83,"x_max":1113,"o":"m 432 697 q 414 808 432 768 q 365 863 396 847 q 290 879 333 879 q 217 863 249 879 q 166 808 185 847 q 147 697 147 768 q 166 588 147 628 q 217 531 185 547 q 290 515 249 515 q 365 531 333 515 q 414 588 396 547 q 432 697 432 628 m 497 697 q 439 513 497 568 q 290 457 381 457 q 142 513 201 457 q 83 697 83 568 q 142 883 83 828 q 290 938 201 938 q 439 883 381 938 q 497 697 497 828 m 1049 226 q 1031 337 1049 297 q 981 392 1013 376 q 906 408 949 408 q 832 392 864 408 q 782 338 800 376 q 764 228 764 299 q 782 117 764 157 q 832 61 800 78 q 906 44 864 44 q 981 60 949 44 q 1031 117 1013 76 q 1049 226 1049 157 m 1113 226 q 1054 42 1113 97 q 906 -14 996 -14 q 758 42 817 -14 q 700 228 700 97 q 758 413 700 358 q 906 468 817 468 q 1054 413 996 468 q 1113 226 1113 358 m 861 924 l 933 924 l 338 0 l 267 0 l 861 924 z "},"‰":{"ha":1724,"x_min":83,"x_max":1643,"o":"m 432 696 q 414 806 432 767 q 364 862 396 846 q 290 878 332 878 q 217 862 249 878 q 166 806 185 846 q 147 696 147 767 q 166 586 147 626 q 217 530 185 546 q 290 514 249 514 q 364 530 332 514 q 414 586 396 546 q 432 696 432 626 m 497 696 q 439 511 497 567 q 290 456 381 456 q 142 511 201 456 q 83 696 83 567 q 142 883 83 828 q 290 938 201 938 q 439 883 381 938 q 497 696 497 828 m 1049 228 q 1031 338 1049 299 q 981 394 1013 378 q 906 410 949 410 q 832 394 864 410 q 782 338 800 378 q 764 228 764 299 q 782 118 764 158 q 832 62 800 78 q 906 46 864 46 q 981 62 949 46 q 1031 118 1013 78 q 1049 228 1049 158 m 1113 228 q 1054 43 1113 99 q 906 -12 996 -12 q 758 43 817 -12 q 700 228 700 99 q 758 413 700 358 q 906 468 817 468 q 1054 413 996 468 q 1113 228 1113 358 m 1578 228 q 1560 338 1578 299 q 1510 394 1542 378 q 1436 410 1478 410 q 1363 394 1394 410 q 1312 338 1331 378 q 1293 228 1293 299 q 1312 118 1293 158 q 1363 62 1331 78 q 1436 46 1394 46 q 1510 62 1478 46 q 1560 118 1542 78 q 1578 228 1578 158 m 1643 228 q 1585 43 1643 99 q 1436 -12 1526 -12 q 1288 43 1347 -12 q 1229 228 1229 99 q 1288 413 1229 358 q 1436 468 1347 468 q 1585 413 1526 468 q 1643 228 1643 358 m 861 924 l 933 924 l 338 0 l 267 0 l 861 924 z "},"⁄":{"ha":293,"x_min":-187,"x_max":481,"o":"m 407 924 l 481 924 l -115 0 l -187 0 l 407 924 z "},"½":{"ha":953,"x_min":26,"x_max":913,"o":"m 26 890 l 168 925 l 211 925 l 211 456 l 151 456 l 151 861 l 26 829 l 26 890 m 676 924 l 750 924 l 154 0 l 82 0 l 676 924 m 615 411 l 610 468 q 665 478 633 474 q 732 482 697 482 q 817 470 778 482 q 881 431 857 458 q 906 356 906 404 q 892 290 906 319 q 853 231 879 261 q 783 160 826 201 l 681 58 l 913 58 l 913 1 l 594 1 l 594 53 l 728 183 q 799 256 774 228 q 833 305 824 283 q 843 351 843 326 q 810 409 843 394 q 729 424 776 424 q 667 420 699 424 q 615 411 636 417 z "},"¼":{"ha":906,"x_min":26,"x_max":874,"o":"m 26 890 l 168 925 l 211 925 l 211 456 l 151 456 l 151 861 l 26 829 l 26 890 m 676 924 l 750 924 l 154 0 l 82 0 l 676 924 m 738 469 l 807 469 l 807 161 l 874 161 l 874 107 l 807 107 l 807 1 l 749 1 l 749 107 l 488 107 l 486 149 l 738 469 m 547 143 l 514 161 l 749 161 l 749 438 l 774 431 l 547 143 z "},"¾":{"ha":1024,"x_min":32,"x_max":992,"o":"m 36 925 l 335 925 l 335 871 l 182 725 l 196 725 q 269 710 235 724 q 326 667 304 696 q 349 590 349 638 q 306 482 349 524 q 171 440 263 440 q 99 447 136 440 q 32 460 63 453 l 39 514 q 104 502 67 508 q 168 496 142 496 q 256 519 225 496 q 288 590 288 543 q 249 660 288 643 q 156 676 211 676 l 107 676 l 107 718 l 263 868 l 36 868 l 36 925 m 794 924 l 868 924 l 272 0 l 200 0 l 794 924 m 856 469 l 925 469 l 925 161 l 992 161 l 992 107 l 925 107 l 925 1 l 867 1 l 867 107 l 606 107 l 604 149 l 856 469 m 665 143 l 632 161 l 867 161 l 867 438 l 892 431 l 665 143 z "},"+":{"ha":722,"x_min":43,"x_max":678,"o":"m 43 481 l 322 481 l 322 726 l 397 726 l 397 481 l 678 481 l 678 408 l 397 408 l 397 161 l 322 161 l 322 408 l 43 408 l 43 481 z "},"−":{"ha":722,"x_min":43,"x_max":678,"o":"m 43 478 l 678 478 l 678 406 l 43 406 l 43 478 z "},"×":{"ha":644,"x_min":47,"x_max":597,"o":"m 549 181 l 321 393 l 94 181 l 49 231 l 276 444 l 47 658 l 96 707 l 324 496 l 550 708 l 596 657 l 368 443 l 597 229 l 549 181 z "},"÷":{"ha":722,"x_min":43,"x_max":678,"o":"m 43 479 l 678 479 l 678 407 l 43 407 l 43 479 m 415 210 q 400 172 415 185 q 361 158 385 158 q 322 172 336 158 q 307 210 307 185 q 322 249 307 236 q 361 263 336 263 q 400 249 385 263 q 415 210 415 236 m 415 676 q 400 637 415 650 q 361 624 385 624 q 322 637 336 624 q 307 676 307 650 q 322 715 307 701 q 361 728 336 728 q 400 715 385 728 q 415 676 415 701 z "},"=":{"ha":750,"x_min":58,"x_max":692,"o":"m 58 617 l 692 617 l 692 544 l 58 544 l 58 617 m 58 338 l 692 338 l 692 265 l 58 265 l 58 338 z "},"¬":{"ha":751,"x_min":43,"x_max":678,"o":"m 43 619 l 678 619 l 678 274 l 606 274 l 606 547 l 43 547 l 43 619 z "},"~":{"ha":758,"x_min":43,"x_max":718,"o":"m 658 522 l 718 494 q 684 420 704 453 q 633 369 664 388 q 556 350 603 350 q 469 369 515 350 q 376 411 422 388 q 286 453 329 435 q 210 472 243 472 q 141 443 161 472 q 104 369 121 414 l 43 397 q 76 472 57 439 q 127 523 96 504 q 204 542 158 542 q 291 523 244 542 q 385 481 338 504 q 477 438 433 457 q 554 419 521 419 q 623 449 603 419 q 658 522 643 478 z "},"<":{"ha":738,"x_min":43,"x_max":678,"o":"m 43 407 l 43 478 l 678 731 l 678 651 l 101 429 l 107 454 l 678 232 l 678 154 l 43 407 z "},">":{"ha":738,"x_min":60,"x_max":694,"o":"m 694 407 l 60 154 l 60 232 l 631 454 l 636 429 l 60 653 l 60 731 l 694 478 l 694 407 z "},"±":{"ha":743,"x_min":54,"x_max":689,"o":"m 54 72 l 689 72 l 689 0 l 54 0 l 54 72 m 54 483 l 333 483 l 333 726 l 408 726 l 408 483 l 689 483 l 689 413 l 408 413 l 408 175 l 333 175 l 333 413 l 54 413 l 54 483 z "},"^":{"ha":624,"x_min":38,"x_max":586,"o":"m 275 924 l 347 924 l 586 501 l 508 501 l 300 874 l 326 879 l 115 501 l 38 501 l 275 924 z "},"≠":{"ha":750,"x_min":58,"x_max":692,"o":"m 58 338 l 692 338 l 692 265 l 58 265 l 58 338 m 58 617 l 692 617 l 692 544 l 58 544 l 58 617 m 510 800 l 582 800 l 240 82 l 168 82 l 510 800 z "},"≈":{"ha":786,"x_min":57,"x_max":731,"o":"m 672 639 l 731 611 q 698 537 718 569 q 647 485 678 504 q 569 467 615 467 q 483 485 529 467 q 389 528 436 504 q 299 571 342 553 q 224 589 257 589 q 155 560 175 589 q 117 488 135 532 l 57 515 q 90 590 71 557 q 140 641 110 622 q 218 660 171 660 q 304 641 258 660 q 398 598 350 622 q 490 555 446 574 q 567 536 533 536 q 635 565 615 536 q 672 639 656 594 m 672 393 l 731 364 q 698 290 718 322 q 647 238 678 257 q 569 219 615 219 q 483 238 529 219 q 389 281 436 257 q 299 324 342 306 q 224 342 257 342 q 155 313 175 342 q 117 240 135 285 l 57 268 q 90 342 71 310 q 140 394 110 375 q 218 413 171 413 q 304 394 258 413 q 398 351 350 375 q 490 309 446 328 q 567 290 533 290 q 635 319 615 290 q 672 393 656 347 z "},"≤":{"ha":757,"x_min":54,"x_max":689,"o":"m 54 410 l 54 481 l 689 729 l 689 651 l 111 432 l 118 457 l 689 239 l 689 161 l 54 410 m 689 72 l 689 0 l 54 0 l 54 72 l 689 72 z "},"≥":{"ha":757,"x_min":68,"x_max":703,"o":"m 703 410 l 68 161 l 68 239 l 639 457 l 646 432 l 68 651 l 68 729 l 703 481 l 703 410 m 68 72 l 703 72 l 703 0 l 68 0 l 68 72 z "},"∞":{"ha":936,"x_min":58,"x_max":878,"o":"m 431 442 q 359 510 390 482 q 300 554 328 539 q 238 569 272 569 q 156 538 188 569 q 125 442 125 507 q 156 347 125 378 q 238 315 188 315 q 300 330 272 315 q 359 373 328 344 q 431 442 390 401 m 504 442 q 578 374 547 403 q 637 331 608 346 q 699 315 665 315 q 778 347 747 315 q 810 442 810 378 q 778 538 810 507 q 699 569 747 569 q 637 554 665 569 q 578 510 608 539 q 504 442 547 482 m 468 493 q 549 569 514 538 q 620 617 585 600 q 701 633 656 633 q 829 583 781 633 q 878 442 878 533 q 829 300 878 350 q 701 250 781 250 q 620 267 656 250 q 549 315 585 283 q 468 390 514 347 q 387 315 424 347 q 314 267 350 283 q 232 250 278 250 q 106 301 154 250 q 58 442 58 353 q 107 583 58 533 q 235 633 156 633 q 316 617 281 633 q 388 569 351 600 q 468 493 424 538 z "},"◊":{"ha":732,"x_min":40,"x_max":690,"o":"m 331 0 l 40 463 l 331 924 l 401 924 l 690 463 l 401 0 l 331 0 m 365 81 l 611 463 l 365 844 l 122 463 l 365 81 z "},"√":{"ha":824,"x_min":31,"x_max":878,"o":"m 31 692 l 229 692 l 471 78 l 804 924 l 878 924 l 513 0 l 422 0 l 168 628 l 31 628 l 31 692 z "},"∫":{"ha":319,"x_min":-82,"x_max":403,"o":"m -82 -265 l -82 -197 l -68 -197 q 28 -183 -15 -197 q 97 -131 71 -168 q 122 -29 122 -94 l 122 782 q 156 920 122 868 q 250 995 190 972 q 383 1018 310 1018 l 403 1018 l 403 950 l 390 950 q 294 935 338 950 q 224 885 250 921 q 199 782 199 849 l 199 -31 q 165 -167 199 -115 q 72 -242 131 -219 q -62 -265 13 -265 l -82 -265 z "},"∂":{"ha":814,"x_min":69,"x_max":743,"o":"m 263 833 l 253 903 q 353 928 297 917 q 483 939 408 939 q 628 910 571 939 q 715 823 686 882 q 743 672 743 764 q 731 504 743 596 q 690 321 718 413 q 612 153 661 229 q 489 31 563 78 q 314 -15 415 -15 q 133 53 197 -15 q 69 235 69 121 q 108 406 69 335 q 221 514 146 476 q 403 551 296 551 q 550 537 485 551 q 656 504 615 522 q 666 597 664 553 q 668 672 668 640 q 621 824 668 781 q 478 867 574 867 q 358 856 410 867 q 263 833 306 846 m 642 438 q 538 471 599 458 q 406 483 476 483 q 270 460 329 483 q 178 381 211 436 q 144 235 144 326 q 188 103 144 151 q 319 56 232 56 q 466 102 401 56 q 575 234 531 149 q 642 438 619 319 z "},"∏":{"ha":968,"x_min":40,"x_max":929,"o":"m 40 924 l 929 924 l 929 847 l 803 847 l 803 0 l 721 0 l 721 847 l 247 847 l 247 0 l 165 0 l 165 847 l 40 847 l 40 924 z "},"∑":{"ha":742,"x_min":56,"x_max":694,"o":"m 163 849 l 493 481 l 160 75 l 694 75 l 694 0 l 56 0 l 56 69 l 393 481 l 56 854 l 56 924 l 676 924 l 676 849 l 163 849 z "},"π":{"ha":828,"x_min":32,"x_max":794,"o":"m 32 692 l 794 692 l 794 621 l 643 621 l 643 0 l 567 0 l 567 621 l 261 621 l 261 0 l 183 0 l 183 621 l 32 621 l 32 692 z "},"Δ":{"ha":824,"x_min":46,"x_max":778,"o":"m 46 0 l 365 924 l 458 924 l 778 0 l 46 0 m 682 50 l 394 881 l 422 867 l 140 49 l 106 75 l 724 75 l 682 50 z "},"Ω":{"ha":960,"x_min":75,"x_max":885,"o":"m 479 939 q 691 889 607 939 q 816 735 775 839 q 857 471 857 632 q 832 281 857 357 q 763 157 807 206 q 661 75 719 108 l 885 75 l 885 0 l 542 0 l 542 72 q 642 128 599 97 q 715 203 685 158 q 759 313 744 247 q 774 471 774 378 q 742 701 774 615 q 644 825 710 788 q 479 863 579 863 q 315 825 381 863 q 218 701 250 788 q 186 471 186 615 q 201 313 186 378 q 245 203 215 247 q 318 128 275 158 q 418 72 361 97 l 418 0 l 75 0 l 75 75 l 299 75 q 197 157 242 108 q 128 281 153 206 q 103 471 103 357 q 144 735 103 632 q 269 889 185 839 q 479 939 353 939 z "},"ℓ":{"ha":568,"x_min":117,"x_max":528,"o":"m 193 290 l 193 161 q 226 78 193 100 q 306 56 260 56 q 372 62 338 56 q 432 76 406 68 l 438 8 q 368 -9 406 -3 q 294 -15 331 -15 q 168 25 219 -15 q 117 158 117 65 l 117 681 q 142 815 117 757 q 216 906 168 872 q 332 939 264 939 q 438 911 394 939 q 505 831 482 883 q 528 704 528 778 q 506 577 528 636 q 441 467 483 518 q 336 373 399 417 q 193 290 274 329 m 193 360 q 385 510 317 428 q 454 699 454 592 q 421 824 454 782 q 332 865 388 865 q 231 814 268 865 q 193 676 193 763 l 193 360 z "},"µ":{"ha":778,"x_min":122,"x_max":657,"o":"m 579 692 l 657 692 l 657 31 q 529 -2 597 11 q 389 -15 461 -15 q 243 12 308 -15 q 150 107 178 39 q 131 157 140 131 q 122 214 122 183 l 122 692 l 199 692 l 199 215 q 224 116 199 151 q 293 67 249 81 q 393 53 338 53 q 489 61 438 53 q 579 81 540 69 l 579 692 m 196 -261 l 122 -261 l 122 218 l 196 218 l 196 -261 z "},"ſ":{"ha":344,"x_min":32,"x_max":507,"o":"m 224 789 l 224 0 l 144 0 l 144 624 l 32 624 l 32 692 l 144 692 l 144 789 q 176 923 144 872 q 262 996 207 974 q 389 1018 317 1018 q 448 1015 414 1018 q 507 1008 482 1013 l 499 942 q 448 948 476 946 q 396 950 419 950 q 271 917 318 950 q 224 789 224 883 z "},"ƒ":{"ha":679,"x_min":38,"x_max":663,"o":"m 38 531 l 222 531 l 222 708 q 255 843 222 793 q 345 916 288 893 q 478 939 403 939 q 573 933 525 939 q 663 918 621 926 l 654 851 q 572 864 614 858 q 483 869 531 869 q 351 836 401 869 q 301 708 301 803 l 301 531 l 642 531 l 642 463 l 301 463 l 301 0 l 222 0 l 222 463 l 38 463 l 38 531 z "},"ﬁ":{"ha":743,"x_min":32,"x_max":621,"o":"m 32 692 l 144 692 l 144 783 q 180 921 144 869 q 279 995 215 972 q 426 1018 343 1018 q 485 1015 451 1018 q 552 1008 518 1013 q 611 1000 586 1004 l 603 932 q 517 945 564 940 q 432 950 469 950 q 322 935 369 950 q 249 885 275 921 q 224 783 224 849 l 224 692 l 621 692 l 621 0 l 544 0 l 544 624 l 224 624 l 224 0 l 144 0 l 144 624 l 32 624 l 32 692 z "},"ﬂ":{"ha":744,"x_min":32,"x_max":624,"o":"m 32 692 l 144 692 l 144 783 q 180 921 144 869 q 279 995 215 972 q 426 1018 343 1018 q 490 1015 454 1018 q 560 1007 525 1011 q 624 997 596 1003 l 615 931 q 522 944 572 939 q 432 950 472 950 q 322 935 369 950 q 249 885 275 921 q 224 783 224 849 l 224 692 l 422 692 l 422 624 l 224 624 l 224 0 l 144 0 l 144 624 l 32 624 l 32 692 m 546 997 l 624 997 l 624 0 l 546 0 l 546 997 z "},"⁰":{"ha":474,"x_min":44,"x_max":431,"o":"m 431 838 q 383 655 431 717 q 236 593 336 593 q 92 655 139 593 q 44 838 44 717 q 91 1023 44 961 q 236 1085 138 1085 q 383 1023 336 1085 q 431 838 431 961 m 369 838 q 338 980 369 932 q 236 1028 306 1028 q 137 980 168 1028 q 106 838 106 932 q 137 697 106 744 q 236 650 168 650 q 338 697 306 650 q 369 838 369 744 z "},"¹":{"ha":269,"x_min":26,"x_max":211,"o":"m 26 1038 l 168 1072 l 211 1072 l 211 603 l 151 603 l 151 1008 l 26 976 l 26 1038 z "},"²":{"ha":390,"x_min":32,"x_max":350,"o":"m 53 1014 l 47 1071 q 103 1081 71 1076 q 169 1085 135 1085 q 255 1073 215 1085 q 319 1034 294 1061 q 343 958 343 1007 q 330 893 343 922 q 290 834 317 864 q 221 763 264 804 l 118 661 l 350 661 l 350 604 l 32 604 l 32 656 l 165 786 q 236 858 211 831 q 271 908 261 886 q 281 954 281 929 q 247 1012 281 997 q 167 1026 214 1026 q 105 1023 136 1026 q 53 1014 74 1019 z "},"³":{"ha":388,"x_min":32,"x_max":349,"o":"m 36 1072 l 335 1072 l 335 1018 l 182 872 l 196 872 q 269 857 235 871 q 326 814 304 843 q 349 738 349 785 q 306 629 349 671 q 171 588 263 588 q 99 594 136 588 q 32 607 63 600 l 39 661 q 104 649 67 656 q 168 643 142 643 q 256 667 225 643 q 288 738 288 690 q 249 807 288 790 q 156 824 211 824 l 107 824 l 107 865 l 263 1015 l 36 1015 l 36 1072 z "},"⁴":{"ha":447,"x_min":28,"x_max":415,"o":"m 279 1072 l 349 1072 l 349 764 l 415 764 l 415 710 l 349 710 l 349 604 l 290 604 l 290 710 l 29 710 l 28 751 l 279 1072 m 89 746 l 56 764 l 290 764 l 290 1040 l 315 1033 l 89 746 z "},"⁵":{"ha":396,"x_min":43,"x_max":358,"o":"m 358 743 q 316 631 358 675 q 181 588 274 588 q 111 593 147 588 q 43 607 75 599 l 50 661 q 116 649 79 654 q 179 643 153 643 q 297 742 297 643 q 265 814 297 796 q 175 832 232 832 q 124 828 156 832 q 67 819 93 825 l 50 840 l 68 1072 l 325 1072 l 325 1015 l 117 1015 l 106 876 q 139 882 115 879 q 185 885 163 885 q 311 853 264 885 q 358 743 358 821 z "},"⁶":{"ha":426,"x_min":44,"x_max":390,"o":"m 106 814 q 114 728 107 768 q 145 665 121 689 q 222 642 169 642 q 304 670 275 642 q 333 750 333 699 q 306 817 333 793 q 221 840 278 840 q 164 833 193 840 q 106 814 135 826 m 356 1074 l 350 1018 q 302 1026 328 1024 q 250 1029 276 1029 q 142 992 178 1029 q 106 867 106 954 q 162 883 132 876 q 226 892 192 890 q 347 856 303 892 q 390 750 390 819 q 347 633 390 679 q 222 588 304 588 q 115 617 154 588 q 60 702 76 647 q 44 832 44 757 q 69 981 44 926 q 140 1060 93 1036 q 250 1085 186 1085 q 303 1082 275 1085 q 356 1074 331 1079 z "},"⁷":{"ha":383,"x_min":26,"x_max":356,"o":"m 26 1072 l 356 1072 l 356 1031 l 147 604 l 83 604 l 286 1014 l 26 1014 l 26 1072 z "},"⁸":{"ha":447,"x_min":43,"x_max":403,"o":"m 224 825 q 103 733 103 825 q 224 639 103 639 q 344 733 344 639 q 224 825 344 825 m 313 849 q 379 809 356 839 q 403 731 403 779 q 357 625 403 663 q 224 588 311 588 q 89 625 135 588 q 43 731 43 663 q 67 809 43 779 q 136 849 92 839 q 79 888 99 860 q 60 958 60 915 q 102 1052 60 1019 q 224 1085 144 1085 q 344 1052 301 1085 q 386 958 386 1019 q 367 888 386 915 q 313 849 349 860 m 224 1036 q 119 956 119 1036 q 224 872 119 872 q 329 956 329 872 q 224 1036 329 1036 z "},"⁹":{"ha":428,"x_min":38,"x_max":383,"o":"m 322 860 q 315 946 322 907 q 283 1008 307 985 q 206 1032 258 1032 q 124 1003 153 1032 q 96 924 96 975 q 124 857 96 881 q 207 833 151 833 q 264 840 235 833 q 322 860 293 847 m 71 600 l 78 654 q 126 647 101 650 q 178 643 151 643 q 287 681 251 643 q 322 807 322 718 q 266 790 296 797 q 201 782 236 782 q 81 818 125 782 q 38 922 38 854 q 81 1040 38 994 q 206 1085 124 1085 q 313 1055 274 1085 q 367 971 351 1025 q 383 840 383 917 q 359 692 383 747 q 289 612 335 636 q 178 588 243 588 q 124 591 151 588 q 71 600 97 594 z "},"←":{"ha":896,"x_min":42,"x_max":851,"o":"m 328 644 l 50 365 q 42 344 42 357 q 50 324 42 332 l 326 49 l 374 100 l 104 354 l 104 336 l 375 593 l 328 644 m 100 313 l 851 313 l 851 381 l 100 381 l 100 313 z "},"↑":{"ha":671,"x_min":40,"x_max":632,"o":"m 40 525 l 89 474 l 346 744 l 328 744 l 585 475 l 632 525 l 358 803 q 338 811 350 811 q 318 803 326 811 l 40 525 m 368 749 l 304 749 l 304 0 l 368 0 l 368 749 z "},"→":{"ha":896,"x_min":43,"x_max":854,"o":"m 568 644 l 521 593 l 792 336 l 792 354 l 522 100 l 569 49 l 846 324 q 854 344 854 332 q 846 365 854 357 l 568 644 m 796 313 l 796 381 l 43 381 l 43 313 l 796 313 z "},"↓":{"ha":668,"x_min":38,"x_max":629,"o":"m 38 272 l 315 -6 q 335 -15 324 -15 q 356 -6 347 -15 l 629 271 l 582 322 l 325 53 l 343 53 l 86 324 l 38 272 m 365 47 l 365 796 l 301 796 l 301 47 l 365 47 z "},"↔":{"ha":1154,"x_min":42,"x_max":1113,"o":"m 328 644 l 50 365 q 42 344 42 357 q 50 324 42 332 l 326 49 l 374 100 l 104 354 l 104 336 l 375 593 l 328 644 m 100 313 l 815 313 l 815 381 l 100 381 l 100 313 m 826 644 l 779 593 l 1050 336 l 1050 354 l 779 100 l 828 49 l 1103 324 q 1113 344 1113 332 q 1103 365 1113 357 l 826 644 m 1054 313 l 1054 381 l 339 381 l 339 313 l 1054 313 z "},"↕":{"ha":690,"x_min":49,"x_max":642,"o":"m 49 293 l 326 15 q 347 6 336 6 q 367 15 358 6 l 642 292 l 593 342 l 338 74 l 356 74 l 97 343 l 49 293 m 378 68 l 378 757 l 314 757 l 314 68 l 378 68 m 49 668 l 97 618 l 356 888 l 338 888 l 593 619 l 642 669 l 367 946 q 347 956 358 956 q 326 946 336 956 l 49 668 m 378 893 l 314 893 l 314 204 l 378 204 l 378 893 z "},"↖":{"ha":719,"x_min":82,"x_max":685,"o":"m 82 243 l 150 243 l 140 617 l 128 604 l 500 593 l 500 667 l 111 668 q 90 659 99 668 q 82 638 82 650 l 82 243 m 108 589 l 640 58 l 685 107 l 153 636 l 108 589 z "},"↗":{"ha":719,"x_min":36,"x_max":639,"o":"m 639 243 l 638 638 q 629 659 638 650 q 610 668 621 668 l 219 667 l 221 593 l 593 604 l 579 617 l 569 243 l 639 243 m 613 589 l 567 636 l 36 107 l 81 58 l 613 589 z "},"↘":{"ha":722,"x_min":38,"x_max":642,"o":"m 642 497 l 572 497 l 582 124 l 594 136 l 222 147 l 222 74 l 611 72 q 632 81 624 72 q 640 103 640 90 l 642 497 m 614 151 l 82 682 l 38 633 l 569 104 l 614 151 z "},"↙":{"ha":722,"x_min":81,"x_max":683,"o":"m 81 497 l 81 103 q 90 81 81 90 q 110 72 99 72 l 499 74 l 499 147 l 126 136 l 140 124 l 150 497 l 81 497 m 107 151 l 153 104 l 683 633 l 639 682 l 107 151 z "},"℮":{"ha":1003,"x_min":76,"x_max":926,"o":"m 926 357 l 238 357 q 232 353 232 357 l 232 144 q 235 131 232 138 q 242 119 238 125 q 358 38 290 68 q 503 8 426 8 q 656 42 586 8 q 776 133 726 76 l 838 133 q 692 26 781 67 q 501 -15 604 -15 q 337 15 414 -15 q 201 97 260 44 q 110 218 143 149 q 76 367 76 288 q 110 516 76 446 q 201 639 143 586 q 337 722 260 692 q 501 751 414 751 q 666 722 589 751 q 801 639 743 692 q 893 516 860 586 q 926 367 926 446 l 926 357 m 771 383 l 771 593 q 760 619 771 608 q 645 699 711 669 q 503 728 579 728 q 359 698 426 728 q 243 615 292 668 q 232 589 232 607 l 232 383 q 238 378 232 378 l 767 378 q 771 383 771 378 z "}}}
